<svg xmlns="http://www.w3.org/2000/svg" xmlns:xlink="http://www.w3.org/1999/xlink" version="1.1" width="1000" height="1000" viewBox="0 0 1000 1000" xml:space="preserve">
<desc>Created with Fabric.js 3.5.0</desc>
<defs>
</defs>
<rect x="0" y="0" width="100%" height="100%" fill="rgba(255,255,255,0)"/>
<g transform="matrix(45.4282 0 0 45.4282 500.0004 500.0003)" id="204416">
<path style="stroke: none; stroke-width: 1; stroke-dasharray: none; stroke-linecap: butt; stroke-dashoffset: 0; stroke-linejoin: miter; stroke-miterlimit: 4; is-custom-font: none; font-file-url: none; fill: rgb(255,255,255); fill-rule: nonzero; opacity: 1;" vector-effect="non-scaling-stroke" transform=" translate(-12.0148, -12.0003)" d="M 15.71 12.71 a 6 6 0 1 0 -7.42 0 a 10 10 0 0 0 -6.22 8.18 a 1 1 0 0 0 2 0.22 a 8 8 0 0 1 15.9 0 a 1 1 0 0 0 1 0.89 h 0.11 a 1 1 0 0 0 0.88 -1.1 A 10 10 0 0 0 15.71 12.71 Z M 12 12 a 4 4 0 1 1 4 -4 A 4 4 0 0 1 12 12 Z" stroke-linecap="round"/>
</g>
</svg>