<svg xmlns="http://www.w3.org/2000/svg" xmlns:xlink="http://www.w3.org/1999/xlink" version="1.1" width="1000" height="1000" viewBox="0 0 1000 1000" xml:space="preserve">
<desc>Created with Fabric.js 3.5.0</desc>
<defs>
</defs>
<rect x="0" y="0" width="100%" height="100%" fill="rgba(255,255,255,0)"/>
<g transform="matrix(1.1364 0 0 1.1364 500.0145 500.0145)" id="614448">
<g style="" vector-effect="non-scaling-stroke">
		<g transform="matrix(25.0352 0 0 25.0352 0.014 0.0093)" id="Capa_1">
<path style="stroke: none; stroke-width: 1; stroke-dasharray: none; stroke-linecap: butt; stroke-dashoffset: 0; stroke-linejoin: miter; stroke-miterlimit: 4; is-custom-font: none; font-file-url: none; fill: rgb(206,206,206); fill-rule: nonzero; opacity: 1;" transform=" translate(-15.9781, -15.9779)" d="M 27.25 4.655 C 20.996 -1.571 10.88 -1.546 4.656 4.706 C -1.571 10.96 -1.548 21.076 4.705 27.3 c 6.256 6.226 16.374 6.203 22.597 -0.051 C 33.526 20.995 33.505 10.878 27.25 4.655 z" stroke-linecap="round"/>
</g>
		<g transform="matrix(25.0352 0 0 25.0352 -5.2857 -0.1189)" id="Capa_1">
<path style="stroke: none; stroke-width: 1; stroke-dasharray: none; stroke-linecap: butt; stroke-dashoffset: 0; stroke-linejoin: miter; stroke-miterlimit: 4; is-custom-font: none; font-file-url: none; fill: rgb(206,206,206); fill-rule: nonzero; opacity: 1;" transform=" translate(-15.7664, -15.9728)" d="M 13.288 23.896 l -1.768 5.207 c 2.567 0.829 5.331 0.886 7.926 0.17 l -0.665 -5.416 C 17.01 24.487 15.067 24.5 13.288 23.896 z M 8.12 13.122 l -5.645 -0.859 c -0.741 2.666 -0.666 5.514 0.225 8.143 l 5.491 -1.375 C 7.452 17.138 7.426 15.029 8.12 13.122 z M 28.763 11.333 l -4.965 1.675 c 0.798 2.106 0.716 4.468 -0.247 6.522 l 5.351 0.672 C 29.827 17.319 29.78 14.193 28.763 11.333 z M 11.394 2.883 l 1.018 5.528 c 2.027 -0.954 4.356 -1.05 6.442 -0.288 l 1.583 -5.137 C 17.523 1.94 14.328 1.906 11.394 2.883 z" stroke-linecap="round"/>
</g>
		<g transform="matrix(25.0352 0 0 25.0352 0.0375 -0.0126)" id="Capa_1">
<circle style="stroke: none; stroke-width: 1; stroke-dasharray: none; stroke-linecap: butt; stroke-dashoffset: 0; stroke-linejoin: miter; stroke-miterlimit: 4; is-custom-font: none; font-file-url: none; fill: rgb(206,206,206); fill-rule: nonzero; opacity: 1;" cx="0" cy="0" r="6.117"/>
</g>
</g>
</g>
</svg>