<svg xmlns="http://www.w3.org/2000/svg" viewBox="0 0 400 300" width="406" height="306" class="illustration styles_illustrationTablet__1DWOa"><g id="_58_fishing" data-name="#58_fishing"><path d="M298.58,219.18H229.47a.5.5,0,0,1-.5-.5.5.5,0,0,1,.5-.5h69.11a.5.5,0,0,1,.5.5A.5.5,0,0,1,298.58,219.18Z" fill="#d1d3d4"></path><path d="M223.6,219.18H138.25a.5.5,0,0,1-.5-.5.5.5,0,0,1,.5-.5H223.6a.5.5,0,0,1,.5.5A.5.5,0,0,1,223.6,219.18Z" fill="#d1d3d4"></path><path d="M347,219.18H304.46a.5.5,0,0,1-.5-.5.5.5,0,0,1,.5-.5H347a.5.5,0,0,1,.5.5A.5.5,0,0,1,347,219.18Z" fill="#d1d3d4"></path><path d="M132.38,219.18H53a.51.51,0,0,1-.5-.5.5.5,0,0,1,.5-.5h79.36a.5.5,0,0,1,.5.5A.51.51,0,0,1,132.38,219.18Z" fill="#d1d3d4"></path><path d="M112.43,218.58a.52.52,0,0,1-.47-.33.5.5,0,0,1,.3-.64c6.78-2.45,11.38-8.73,12.83-10.94l-55.58,2.18L71.2,218a.5.5,0,0,1-1,.18l-1.79-9.71a.48.48,0,0,1,.1-.4.54.54,0,0,1,.37-.19L126,205.63a.57.57,0,0,1,.45.24.52.52,0,0,1,0,.51c-.21.37-5.25,9.06-13.85,12.17A.47.47,0,0,1,112.43,218.58Z" fill="#d1d3d4"></path><path d="M72.09,208.31H65.74a3,3,0,0,1-3-3v-2.64a3,3,0,0,1,3-3h6.35a3,3,0,0,1,3,3v2.64A3,3,0,0,1,72.09,208.31Zm-6.35-7.62a2,2,0,0,0-2,2v2.64a2,2,0,0,0,2,2h6.35a2,2,0,0,0,2-2v-2.64a2,2,0,0,0-2-2Z" fill="#d1d3d4"></path><path d="M65.74,218.58a.5.5,0,0,1-.5-.5V207.81a.5.5,0,0,1,.5-.5.51.51,0,0,1,.5.5v10.27A.51.51,0,0,1,65.74,218.58Z" fill="#d1d3d4"></path><path d="M122.19,206.63a.5.5,0,0,1-.5-.5v-2.8a.5.5,0,0,1,.5-.5.5.5,0,0,1,.5.5v2.8A.5.5,0,0,1,122.19,206.63Z" fill="#d1d3d4"></path><path d="M304.46,222.37a.5.5,0,0,1-.5-.5V205.28h-4.88v16.59a.5.5,0,0,1-.5.5.51.51,0,0,1-.5-.5V204.78a.5.5,0,0,1,.5-.5h5.88a.5.5,0,0,1,.5.5v17.09A.51.51,0,0,1,304.46,222.37Z" fill="#d1d3d4"></path><path d="M229.47,222.37a.5.5,0,0,1-.5-.5V205.28H224.1v16.59a.5.5,0,0,1-1,0V204.78a.5.5,0,0,1,.5-.5h5.87a.5.5,0,0,1,.5.5v17.09A.5.5,0,0,1,229.47,222.37Z" fill="#d1d3d4"></path><path d="M138.25,222.37a.5.5,0,0,1-.5-.5V205.28h-4.87v16.59a.51.51,0,0,1-.5.5.5.5,0,0,1-.5-.5V204.78a.5.5,0,0,1,.5-.5h5.87a.5.5,0,0,1,.5.5v17.09A.51.51,0,0,1,138.25,222.37Z" fill="#d1d3d4"></path><path d="M124.56,224.75a4.48,4.48,0,0,1-2.34-.62,5.47,5.47,0,0,1-2.31-3.4,15,15,0,0,1-.29-3.94l.14-10.29a.49.49,0,0,1,.5-.49h0a.5.5,0,0,1,.5.5l-.14,10.29a14.56,14.56,0,0,0,.26,3.68,4.56,4.56,0,0,0,1.86,2.8,4.25,4.25,0,0,0,4.48-.38,9,9,0,0,0,3-4c.31-.71.58-1.45.85-2.17.34-.93.69-1.88,1.13-2.79a.51.51,0,0,1,.25-.25c1.15-.49,2.29-.92,3.38-1.3l-1.29-.18c-.77-.1-1.53-.2-2.26-.27a.5.5,0,0,1-.42-.34c-.16-.44.11-.87.68-1.1,1.68-.67,3.35-1.32,5-2a.74.74,0,0,1,.62,0,.61.61,0,0,1,.35.59.65.65,0,0,1-.39.51.48.48,0,0,1-.45-.07l-4,1.55.93.12a33.16,33.16,0,0,0,3.62.37.5.5,0,0,1,.14,1c-1.61.52-3.51,1.16-5.41,2-.38.82-.7,1.69-1,2.53s-.55,1.49-.87,2.23a10,10,0,0,1-3.32,4.42A5.7,5.7,0,0,1,124.56,224.75Z" fill="#d1d3d4"></path><path d="M171.84,72.87c18.88-2.17,31.81.06,44.25,2.72s30.77,36.62,36.4,43.11a60.77,60.77,0,0,0,27.84,18.23l-1.27,18.57s-24.93-.4-40-15.29-23.89-33.08-23.89-33.08l-49-4.23s-20.27,31.26-24.49,29.29-32.95-32.1-32.95-32.1L114.35,87s25.92,19.18,27.6,16.46S153,75,171.84,72.87Z" fill="#231f20"></path><path d="M279.06,156h0c-.25,0-25.3-.58-40.36-15.44-14-13.83-22.72-30.69-23.86-33l-48.41-4.18c-3.78,5.81-20.64,31.25-25,29.22s-31.92-31-33.1-32.21a.51.51,0,0,1-.09-.54l5.63-13.08a.47.47,0,0,1,.32-.28.5.5,0,0,1,.43.08c11.87,8.78,25.52,17.62,26.89,16.59.2-.33.56-1.12,1-2.11,3.43-7.33,12.54-26.8,29.21-28.72h0c19-2.18,31.86,0,44.42,2.74,9.35,2,21.73,21,29.92,33.49a115.48,115.48,0,0,0,6.75,9.77,60.61,60.61,0,0,0,27.59,18.07.51.51,0,0,1,.37.52l-1.27,18.58A.5.5,0,0,1,279.06,156Zm-112.9-53.59h0l49,4.22a.49.49,0,0,1,.4.28c.09.18,8.94,18.29,23.79,32.94,13.64,13.46,35.71,15,39.21,15.14l1.21-17.7A62.32,62.32,0,0,1,252.11,119a119.44,119.44,0,0,1-6.82-9.89C237.18,96.74,224.94,78,216,76.08c-12.48-2.67-25.24-4.88-44.09-2.72h0c-16.12,1.85-25.06,21-28.43,28.15-.5,1.07-.86,1.83-1.09,2.22a1.07,1.07,0,0,1-.73.47c-3.61.71-23.06-13.46-27.09-16.42L109.31,100c10,10.46,29.32,30.24,32.57,31.75,2.64,1.25,15.54-16.27,23.86-29.1A.51.51,0,0,1,166.16,102.41Zm5.68-29.54h0Z" fill="#231f20"></path><path d="M207.5,55.93c-.23-.47,2-5.73,1.27-14s-16-11.22-21.49-10.51-11,6.33-12.11,11.82,1.27,15.35,1.27,15.35Z" fill="#fff"></path><path d="M176.44,59.07a.51.51,0,0,1-.5-.39c-.1-.41-2.41-10-1.27-15.57,1.21-5.92,7-11.52,12.54-12.23,3.8-.49,13.26.76,18.53,5a8.6,8.6,0,0,1,3.54,6,37.59,37.59,0,0,1-1.05,12.89c-.11.45-.22.91-.23,1.06a.59.59,0,0,1-.05.39.53.53,0,0,1-.41.25l-31.06,2.63ZM189.08,31.8a14.48,14.48,0,0,0-1.74.1c-5.1.65-10.55,6-11.66,11.42-1,4.67.73,12.74,1.16,14.69L207,55.45c0-.23.11-.54.22-1a36.62,36.62,0,0,0,1-12.55,7.66,7.66,0,0,0-3.16-5.27C200.73,33.17,193.35,31.8,189.08,31.8Z" fill="#231f20"></path><path d="M202.9,55.43c.85-5.29,9.62-6.59,9.18-.36a9.15,9.15,0,0,1-2.33,5.85,5.46,5.46,0,0,1-5.89,1.38" fill="#fff"></path><path d="M205.69,63.19a5.07,5.07,0,0,1-2-.42.52.52,0,0,1-.26-.68.52.52,0,0,1,.68-.26,5,5,0,0,0,5.31-1.27A8.71,8.71,0,0,0,211.57,55c.14-2.07-.82-3.38-2.64-3.59a5.17,5.17,0,0,0-5.52,4.06.52.52,0,0,1-.59.43.52.52,0,0,1-.43-.59,6.14,6.14,0,0,1,6.66-4.92c1.86.21,3.77,1.55,3.55,4.68a9.75,9.75,0,0,1-2.49,6.17A6.27,6.27,0,0,1,205.69,63.19Z" fill="#231f20"></path><path d="M181,55.43c-.85-5.29-9.62-6.59-9.18-.36a9.15,9.15,0,0,0,2.33,5.85,5.46,5.46,0,0,0,5.89,1.38" fill="#fff"></path><path d="M178.25,63.19a6.27,6.27,0,0,1-4.42-1.91,9.75,9.75,0,0,1-2.49-6.17c-.22-3.13,1.69-4.47,3.55-4.68a6.13,6.13,0,0,1,6.66,4.92.52.52,0,0,1-.43.59.52.52,0,0,1-.59-.43A5.15,5.15,0,0,0,175,51.45c-1.82.21-2.78,1.52-2.64,3.59a8.71,8.71,0,0,0,2.19,5.52,5,5,0,0,0,5.31,1.27.51.51,0,0,1,.42.94A5.07,5.07,0,0,1,178.25,63.19Z" fill="#231f20"></path><path d="M181.81,81.84s2.37,5.17,9.3,5.17a11.17,11.17,0,0,0,9.73-5.17l-.29-3.7-.68-8.59-.65-8h-15.8l-.53,6.56-.16,2.13Z" fill="#fff"></path><path d="M191.11,87.52c-7.18,0-9.67-5.25-9.77-5.47a.58.58,0,0,1-.05-.26l1.62-20.3a.51.51,0,0,1,.51-.48h15.8a.52.52,0,0,1,.52.48l1.61,20.3a.46.46,0,0,1-.06.29A11.6,11.6,0,0,1,191.11,87.52Zm-8.78-5.79c.4.76,2.77,4.76,8.78,4.76a10.64,10.64,0,0,0,9.2-4.77L198.75,62H183.9Z" fill="#231f20"></path><path d="M181.67,67.48a7.32,7.32,0,0,0,1.06,2.74,14,14,0,0,0,5.19,4.55c3.41,1.88,8.5,4,12.63,3.37l-.68-8.59a39,39,0,0,1-9.11.06,26,26,0,0,1-7.87-1.52C182.47,67.9,182.06,67.7,181.67,67.48Z" fill="#231f20"></path><path d="M199,78.75c-4.2,0-8.77-2.15-11.3-3.54a14.3,14.3,0,0,1-5.37-4.73,7.85,7.85,0,0,1-1.13-2.91.47.47,0,0,1,.2-.49.51.51,0,0,1,.53,0c.38.21.78.41,1.19.59a26.12,26.12,0,0,0,7.7,1.48,38.07,38.07,0,0,0,9-.06.51.51,0,0,1,.38.1.5.5,0,0,1,.18.35L201,78.1a.49.49,0,0,1-.42.53A11.21,11.21,0,0,1,199,78.75ZM182.42,68.42a6.72,6.72,0,0,0,.73,1.53,13.35,13.35,0,0,0,5,4.38c2.65,1.47,7.62,3.8,11.84,3.38l-.6-7.59a40.62,40.62,0,0,1-8.7,0,26.88,26.88,0,0,1-8-1.56Z" fill="#231f20"></path><path d="M190.86,71.58h1.41a12.12,12.12,0,0,0,12.12-12.12V40.29H178.75V59.46A12.12,12.12,0,0,0,190.86,71.58Z" fill="#fff"></path><path d="M204.39,40.29V59.46a12.12,12.12,0,0,1-12.12,12.12h-1.41a12.12,12.12,0,0,1-12.11-12.12V40.29h25.64m0-1H178.75a1,1,0,0,0-1,1V59.46a13.16,13.16,0,0,0,13.14,13.15h1.41a13.17,13.17,0,0,0,13.15-13.15V40.29a1,1,0,0,0-1-1Z" fill="#231f20"></path><path d="M191.76,59.78a13.65,13.65,0,0,1-1.76-.1,1,1,0,0,1-.72-.48c-.92-1.53,1.25-7.48,1.94-9.27a.51.51,0,0,1,1,.37c-1.52,4-2.46,7.87-2,8.38a17.06,17.06,0,0,0,3.34,0,.51.51,0,0,1,.58.44.53.53,0,0,1-.45.58A15.78,15.78,0,0,1,191.76,59.78Z" fill="#231f20"></path><path d="M208.77,41.9s-5,7.42-7.93,5.92-4.54-5.55-9.75-5.65c-4.52-.08-7.1,6.49-10.85,5.55a7.79,7.79,0,0,1-5.07-4.51,20.12,20.12,0,0,1,18.54-8.63C206.52,35.52,208.77,41.9,208.77,41.9Z" fill="#fff"></path><path d="M201.69,48.53a2.35,2.35,0,0,1-1.09-.25A12.7,12.7,0,0,1,197.73,46c-1.68-1.61-3.42-3.27-6.65-3.33-2,0-3.7,1.46-5.31,2.91s-3.49,3.16-5.66,2.62a8.2,8.2,0,0,1-5.42-4.83.49.49,0,0,1,0-.44,20.85,20.85,0,0,1,19-8.89c13,1,15.41,7.39,15.51,7.67a.54.54,0,0,1-.06.46C208.72,42.9,204.84,48.53,201.69,48.53ZM191,41.66h.1c3.63.06,5.6,2,7.34,3.61a11.89,11.89,0,0,0,2.63,2.09c2,1,5.73-3.53,7.11-5.51-.56-1.11-3.61-6-14.51-6.76a19.84,19.84,0,0,0-17.92,8.17,7.25,7.25,0,0,0,4.61,4c1.63.41,3.07-.89,4.72-2.38S188.61,41.66,191,41.66Z" fill="#231f20"></path><path d="M175.17,43.21A48.38,48.38,0,0,1,176.44,32c1.36-5.07,10.07-8.45,15.48-7.51s14.5,4.88,15.58,7.32,1.27,10.14,1.27,10.14S187.9,31,175.17,43.21Z" fill="#fff"></path><path d="M175.17,43.73a.71.71,0,0,1-.2,0,.51.51,0,0,1-.31-.47,47.85,47.85,0,0,1,1.28-11.4c1.41-5.26,10.24-8.9,16.06-7.89,5.14.9,14.73,4.83,16,7.62,1.11,2.51,1.31,10,1.32,10.34a.53.53,0,0,1-.25.45.54.54,0,0,1-.51,0c-.2-.11-20.69-10.62-33,1.22A.51.51,0,0,1,175.17,43.73ZM190,24.8c-5.2,0-11.89,3.11-13,7.28a45.21,45.21,0,0,0-1.24,10c11.46-9.83,28.67-2.76,32.52-1-.08-2.05-.37-7.24-1.19-9.09-.93-2.08-9.45-6-15.2-7A11.45,11.45,0,0,0,190,24.8Z" fill="#231f20"></path><path d="M179.51,63.67c.09,0,5.53-.47,7.67-1.42s2.23-3.46,6.53-.72,10.15.77,10.15.77l.13.19a12.12,12.12,0,0,1-7.45,8.3,47.76,47.76,0,0,1-5.68.79A12.11,12.11,0,0,1,179.51,63.67Z" fill="#d1d3d4"></path><path d="M192.42,67.62a11,11,0,0,1-5.06-1.46.51.51,0,1,1,.48-.91c2.43,1.27,4.5,1.64,6.17,1.1a4.15,4.15,0,0,0,2.33-1.82.5.5,0,0,1,.69-.23.51.51,0,0,1,.23.69,5.09,5.09,0,0,1-2.93,2.34A6,6,0,0,1,192.42,67.62Z" fill="#231f20"></path><path d="M162.41,96.71h61s-2.09,42.8-2.09,47.3c0,1.55,3.18,83.72,3.18,83.72H204.26l-16.7-50.5s-14.63,47.87-14.29,47.87-21.82-3.38-21.82-3.38,7.64-82.27,8-84.09C160.53,132,162.41,96.71,162.41,96.71Z" fill="#68e1fd"></path><path d="M216.09,109.47c-.75-1.5-.66-34.51-.66-35.2s-7.65-1-7.65-1l-3.39,38.49Z" fill="#68e1fd"></path><path d="M181,108.72c-.61-2.25-2.42-37.92-2.42-37.92l-7.86.78L168,108.72Z" fill="#68e1fd"></path><path d="M203.06,225.1s20.29-11,23.39-10.89c1.13,0,2.81,46.6,2.81,46.6s17.5,12.95,14.12,12.95S210.49,269,210.49,269Z" fill="#231f20"></path><path d="M243.38,274.26c-3.38,0-31.76-4.55-33-4.75a.49.49,0,0,1-.41-.4l-7.43-43.93a.48.48,0,0,1,.25-.52c2.08-1.12,20.36-10.95,23.61-10.95h0c.67,0,1.16,0,2.31,23.79.51,10.6.91,21.33,1,23.05,7,5.16,15.05,11.58,14.53,13.17A.84.84,0,0,1,243.38,274.26Zm-32.46-5.67c3.3.53,28.61,4.55,32.32,4.67-.85-1.56-7.71-7.19-14.28-12.05a.51.51,0,0,1-.2-.38c-.62-17.24-1.8-43.16-2.59-46.1-3.08.42-16.91,7.6-22.56,10.64Z" fill="#231f20"></path><path d="M174,225.1s-20.29-11-23.39-10.89c-1.13,0-6.81,46.6-6.81,46.6s-27.5,12.95-24.12,12.95S162.58,269,162.58,269Z" fill="#231f20"></path><path d="M119.69,274.26c-.6,0-.74-.35-.78-.5-.09-.43-.36-1.6,24.44-13.29.22-1.82,1.53-12.48,3-23,3.18-23.71,3.67-23.72,4.3-23.74h0c3.25,0,21.53,9.83,23.61,10.95a.49.49,0,0,1,.24.56l-11.43,43.93a.5.5,0,0,1-.42.37C161,269.71,123.06,274.26,119.69,274.26Zm31.18-59.53c-1,2.75-4.45,28.81-6.57,46.14a.48.48,0,0,1-.28.39c-8,3.76-20.37,9.84-23.47,11.95,6.44-.44,38-4.21,41.63-4.64l11.25-43.22C167.75,222.29,153.88,215.1,150.87,214.73Z" fill="#231f20"></path><path d="M190.7,140.72a18.55,18.55,0,0,1-8.26-1.91c-9-4.45-13.51-15.61-12.32-30.61a.52.52,0,0,1,.52-.47h0l40,.63a.54.54,0,0,1,.5.39c0,.17,4,16.66-7.6,27.06A19.29,19.29,0,0,1,190.7,140.72Zm-19.59-31.95c-1,14.31,3.27,24.91,11.79,29.12a18.14,18.14,0,0,0,20-2.85c10.13-9.11,7.87-23.16,7.37-25.65Z" fill="#231f20"></path><path d="M206.88,156.31c-19.19,0-46.1-4.6-46.44-4.66a.52.52,0,0,1,.18-1c.41.08,41.4,7.08,58,3.76a.53.53,0,0,1,.61.41.51.51,0,0,1-.41.6A63.46,63.46,0,0,1,206.88,156.31Z" fill="#231f20"></path><path d="M157.9,166.68a.52.52,0,0,1-.16-1c9.94-3.2,9.79-8.44,9.78-8.49a.52.52,0,0,1,.49-.54.5.5,0,0,1,.54.48c0,.24.28,6.07-10.49,9.53A.45.45,0,0,1,157.9,166.68Z" fill="#231f20"></path><path d="M219.65,171.29h-.11a15.19,15.19,0,0,1-11.38-11.39.52.52,0,0,1,1-.22,14.3,14.3,0,0,0,10.6,10.6.53.53,0,0,1,.39.62A.51.51,0,0,1,219.65,171.29Z" fill="#231f20"></path><path d="M187.56,177.75a.53.53,0,0,1-.5-.37c0-.11-3-10.52-2.55-20.25a.52.52,0,0,1,.54-.5.53.53,0,0,1,.49.54c-.43,9.56,2.49,19.82,2.52,19.92a.52.52,0,0,1-.36.64Z" fill="#231f20"></path><path d="M134.2,145.7a2,2,0,0,1,.07.23c1.89-.24,3.92-4.1,4.81-5.69a26.35,26.35,0,0,0,2.84-7.89,25.77,25.77,0,0,0-2.17-16.42,4,4,0,0,0-2.06-2.19,3.69,3.69,0,0,0-3,.75c-2.93,1.92-5.29,4.77-4.65,8.25.46,2.48,1,5,1.43,7.44C132.42,135.25,132.88,140.74,134.2,145.7Z" fill="#fff"></path><path d="M134.27,146.45a.51.51,0,0,1-.5-.38l-.06-.24h0a87.58,87.58,0,0,1-1.82-9.79c-.28-1.91-.58-3.88-.93-5.76-.2-1.09-.42-2.18-.63-3.26-.27-1.4-.54-2.79-.8-4.19-.59-3.21,1.14-6.32,4.88-8.77a4,4,0,0,1,3.43-.81,4.35,4.35,0,0,1,2.37,2.45,26.19,26.19,0,0,1,2.22,16.74,26.8,26.8,0,0,1-2.9,8.05l-.15.28c-1,1.89-3,5.42-5,5.67ZM137,114.16a3.86,3.86,0,0,0-2,.77c-1.95,1.27-5.12,4-4.42,7.71.26,1.4.53,2.79.8,4.18.21,1.09.42,2.18.62,3.27.36,1.9.66,3.88.94,5.8a89.6,89.6,0,0,0,1.72,9.4c1.44-.68,3.1-3.67,3.84-5l.16-.28a26,26,0,0,0,2.79-7.74,25.19,25.19,0,0,0-2.13-16.08,3.52,3.52,0,0,0-1.76-1.94A1.77,1.77,0,0,0,137,114.16Z" fill="#231f20"></path><path d="M88.65,120.3a43,43,0,0,0-.84,10.84c.27,3.47,2.67,13.4,7.59,12.57a3.73,3.73,0,0,0,2.38-1.32,5.46,5.46,0,0,0,.73-1.61c2.7-8.53,4.62-18.52-3.24-25-1.5-1.23-3.93-2.07-5.23-.62a4.32,4.32,0,0,0-.84,2.19C89,118.36,88.82,119.33,88.65,120.3Z" fill="#fff"></path><path d="M94.82,144.28a4.13,4.13,0,0,1-2.57-.95c-3.19-2.49-4.74-9.39-5-12.15a44,44,0,0,1,.84-11c.18-1,.36-1.95.55-2.92a5,5,0,0,1,1-2.43c1.46-1.63,4.1-1,5.95.56,8,6.58,6.22,16.59,3.4,25.52a6,6,0,0,1-.81,1.76,4.15,4.15,0,0,1-2.71,1.52A3.68,3.68,0,0,1,94.82,144.28ZM91.87,115a1.88,1.88,0,0,0-1.45.6,4.11,4.11,0,0,0-.72,1.93c-.18,1-.37,1.94-.54,2.91h0a42.62,42.62,0,0,0-.83,10.71c.22,2.92,1.8,9.26,4.55,11.42a3,3,0,0,0,2.43.69,3.2,3.2,0,0,0,2.06-1.13,5,5,0,0,0,.65-1.46c2.71-8.59,4.48-18.21-3.07-24.4A5.45,5.45,0,0,0,91.87,115Zm-3.22,5.35h0Z" fill="#231f20"></path><path d="M94.08,144.41A41.08,41.08,0,0,0,96.65,159c.9,2.39,9.08,18.29,12.31,14.84a3.59,3.59,0,0,0,.7-1.63,35.06,35.06,0,0,1,3.11-8.06,1,1,0,0,1,.5-.55c.32-.08.61.22.79.52a10.14,10.14,0,0,1,1,2.86,74.23,74.23,0,0,0,2.62,7.61c.18.47.41,1,.84,1.14,2.16.78,6.56-4.37,7.8-5.89A38.68,38.68,0,0,0,132.62,159a41.08,41.08,0,0,0,2.57-14.63c0-25.46-20.56-57-20.56-57S94.08,119,94.08,144.41Z" fill="#fff"></path><path d="M119,176.36a1.89,1.89,0,0,1-.63-.1,2.19,2.19,0,0,1-1.15-1.45,74.87,74.87,0,0,1-2.64-7.65l-.08-.32a8.59,8.59,0,0,0-.88-2.41.68.68,0,0,0-.25-.28s0,.07-.15.28a34.64,34.64,0,0,0-3.06,7.94,4.21,4.21,0,0,1-.82,1.87,2,2,0,0,1-1.89.6c-4.09-.81-10.54-13.64-11.29-15.62a41.89,41.89,0,0,1-2.6-14.81c0-25.32,20.43-56.94,20.63-57.26a.54.54,0,0,1,.87,0c.21.32,20.64,31.94,20.64,57.26a41.66,41.66,0,0,1-2.6,14.81,39.37,39.37,0,0,1-6.36,11C124.79,172.6,121.34,176.36,119,176.36Zm-5.62-13.25a1.39,1.39,0,0,1,1.12.77,9.77,9.77,0,0,1,1,2.7l.08.31a72.18,72.18,0,0,0,2.6,7.55c.1.25.3.76.54.85,1.18.42,4-1.82,7.23-5.73a38.33,38.33,0,0,0,6.18-10.71,40.52,40.52,0,0,0,2.54-14.44c0-23-17.09-51.29-20-56-3,4.72-20,33.05-20,56a40.75,40.75,0,0,0,2.54,14.44c.82,2.19,7.14,14.31,10.52,15a.9.9,0,0,0,.93-.3,3.12,3.12,0,0,0,.56-1.36,36.28,36.28,0,0,1,3.17-8.23,1.44,1.44,0,0,1,.83-.79A.67.67,0,0,1,113.38,163.11Z" fill="#231f20"></path><path d="M110.65,143.64a.52.52,0,0,1-.52-.52c0-.06-.14-.51-.32-1.22-1.27-4.75-5.13-19.23-3-23.23,1-1.9,3.36-3,6.3-3h0c3.63,0,8.21,1.79,10.25,5.71,3.31,6.34-5.51,20.61-6,21a.52.52,0,0,1-.69-.77c.59-.67,8.76-14.12,5.8-19.8-1.85-3.53-6-5.13-9.35-5.14-2.57-.05-4.6.91-5.43,2.47-1.28,2.42-.25,10,3.08,22.49a8.13,8.13,0,0,1,.36,1.48A.51.51,0,0,1,110.65,143.64Z" fill="#231f20"></path><path d="M127.71,139.22a.51.51,0,0,1-.39-.19s-1.5-1.91-3-2a1.81,1.81,0,0,0-1.43.57.49.49,0,0,1-.7,0,.5.5,0,0,1,0-.71,2.78,2.78,0,0,1,2.21-.86c2,.14,3.67,2.3,3.74,2.39a.49.49,0,0,1-.09.7A.45.45,0,0,1,127.71,139.22Z" fill="#d1d3d4"></path><path d="M99.52,134.36a.45.45,0,0,1-.25-.07.5.5,0,0,1-.18-.68,3.75,3.75,0,0,1,2.42-1.9,6.15,6.15,0,0,1,4.19.88.5.5,0,1,1-.54.84,5.22,5.22,0,0,0-3.43-.75,2.85,2.85,0,0,0-1.78,1.43A.5.5,0,0,1,99.52,134.36Z" fill="#d1d3d4"></path><path d="M111,105.64a.5.5,0,0,1-.28-.91c.12-.09,3.06-2,5.45-.48a.5.5,0,1,1-.55.84c-1.83-1.21-4.32.45-4.34.46A.49.49,0,0,1,111,105.64Z" fill="#d1d3d4"></path><path d="M122.61,108.27a.52.52,0,0,1-.35-.14,3,3,0,0,0-3.37-.38.5.5,0,0,1-.67-.23.49.49,0,0,1,.22-.67,4,4,0,0,1,4.51.55.5.5,0,0,1,0,.71A.52.52,0,0,1,122.61,108.27Z" fill="#d1d3d4"></path><path d="M117.52,85.73a25.86,25.86,0,0,1,1.31-2.37,41.67,41.67,0,0,1,6.08-6.94c1.27-1.16,2.84-2.29,4.45-1.88.47-2.13-1.32-4-3-5.17-4.33-3-11.24-4.48-13.94,1.92-1.54-1.43-2.52-3-4.51-3.61a8.6,8.6,0,0,0-5.31,0,9.74,9.74,0,0,0-6.14,7.28c2.16-.94,4.69-.1,6.51,1.49,2.65,2.3,4.09,5.86,6.11,8.75,1.09,1.55,3.06,4.58,5,4.52C115.38,89.65,116.56,87.58,117.52,85.73Z" fill="#fff"></path><path d="M114,90.21c-2.07,0-3.92-2.67-5.15-4.44l-.21-.31c-.69-1-1.32-2-1.92-3.08a21.75,21.75,0,0,0-4.11-5.57c-1.48-1.29-3.83-2.34-6-1.41a.53.53,0,0,1-.53-.07.52.52,0,0,1-.18-.51,10.19,10.19,0,0,1,6.48-7.66,9.18,9.18,0,0,1,5.63,0,8.66,8.66,0,0,1,3.6,2.61l.59.61a7.09,7.09,0,0,1,4.39-3.79c3.4-1,7.4.54,10,2.32s3.65,3.77,3.22,5.71a.49.49,0,0,1-.23.33.55.55,0,0,1-.4.06c-1.41-.36-2.87.75-4,1.76a41.23,41.23,0,0,0-6,6.86,17.43,17.43,0,0,0-1,1.81L118,86h0c-1.1,2.11-2.31,4.19-3.9,4.24ZM98.39,74a7.58,7.58,0,0,1,4.91,2,22.65,22.65,0,0,1,4.32,5.83c.59,1,1.21,2.06,1.87,3l.22.31c1,1.4,2.77,4,4.3,4h0c1.11,0,2.4-2.5,3-3.68l.25-.49a20.74,20.74,0,0,1,1.08-1.93,42.47,42.47,0,0,1,6.16-7c1.17-1.07,2.69-2.22,4.36-2.09.07-1.93-1.94-3.53-2.86-4.16-2.41-1.64-6.07-3.08-9.13-2.18a6.28,6.28,0,0,0-4,3.88.51.51,0,0,1-.37.3.52.52,0,0,1-.46-.12c-.41-.38-.78-.77-1.14-1.15a7.7,7.7,0,0,0-3.18-2.35,8.18,8.18,0,0,0-5,0,9.18,9.18,0,0,0-5.57,6A5.41,5.41,0,0,1,98.39,74Zm19.13,11.71h0Z" fill="#231f20"></path><path d="M116.63,84.86a1.2,1.2,0,0,1,.43,1c-.06.87-1,1.33-1.85,1.61l-3.81,1.29a14.42,14.42,0,0,1,2.86-.25,2.66,2.66,0,0,1,1.22.24,1,1,0,0,1,.58,1c-.08.41-.48.68-.86.88a11.17,11.17,0,0,1-3.12,1.11,4.9,4.9,0,0,1,2.3.65,1.68,1.68,0,0,1,.64,2.1,2.45,2.45,0,0,1-2,.84c-1.47.14-2.92-.07-4,1a56.45,56.45,0,0,0-2.95,5.41,5.9,5.9,0,0,1-2.52-4.06c-1.28-5.91,1.29-13,6.7-16.06,1.43-.8,3.26-1.25,4.66-.41a1.29,1.29,0,0,1,.55.56c.24.59-.3,1.2-.8,1.59a15.84,15.84,0,0,1-1.89,1.25,19.73,19.73,0,0,1,2.52-.32A2.1,2.1,0,0,1,116.63,84.86Z" fill="#fff"></path><path d="M106.12,102.29a.54.54,0,0,1-.25-.06h0a6.44,6.44,0,0,1-2.77-4.39c-1.39-6.47,1.6-13.62,7-16.62.91-.51,3.23-1.57,5.18-.4a1.72,1.72,0,0,1,.76.81c.28.71-.06,1.49-1,2.18h0a2,2,0,0,1,.35,0,2.62,2.62,0,0,1,1.61.67h0a1.74,1.74,0,0,1,.6,1.39c-.09,1.35-1.69,1.89-2.21,2.07l-.31.1a2.66,2.66,0,0,1,.67.23,1.54,1.54,0,0,1,.84,1.58,2,2,0,0,1-1.13,1.25,11.37,11.37,0,0,1-1.28.58,2.62,2.62,0,0,1,.51.3,2.17,2.17,0,0,1,.79,2.79,3,3,0,0,1-2.37,1.09l-1,.06a3.64,3.64,0,0,0-2.7.8c-.3.36-2.57,4.58-2.82,5.17a.78.78,0,0,1-.05.14A.52.52,0,0,1,106.12,102.29Zm7.1-21a5.51,5.51,0,0,0-2.67.79c-5,2.79-7.75,9.45-6.45,15.5a6,6,0,0,0,1.81,3.4c.77-1.63,2.76-5,2.79-5a4.57,4.57,0,0,1,3.4-1.13c.29,0,.59,0,.89,0,.67-.07,1.33-.18,1.58-.6a1.18,1.18,0,0,0-.49-1.41,4.49,4.49,0,0,0-2.06-.56.51.51,0,0,1-.46-.49.53.53,0,0,1,.42-.53,10.91,10.91,0,0,0,3-1c.14-.08.55-.29.59-.53a.53.53,0,0,0-.31-.48,2.18,2.18,0,0,0-1-.17,14.06,14.06,0,0,0-2.75.23.51.51,0,0,1-.26-1L115,87c1-.33,1.48-.71,1.51-1.16a.74.74,0,0,0-.27-.56,1.6,1.6,0,0,0-1-.4A5.09,5.09,0,0,0,114,85a10.27,10.27,0,0,1-1.09.17.53.53,0,0,1-.53-.37.51.51,0,0,1,.23-.6A16.22,16.22,0,0,0,114.4,83c.36-.28.74-.71.63-1a.83.83,0,0,0-.33-.31A2.85,2.85,0,0,0,113.22,81.32Z" fill="#231f20"></path><path d="M129.44,126a.52.52,0,0,1-.37-.16,2.09,2.09,0,0,0-2.76-.17.5.5,0,0,1-.65-.77,3.1,3.1,0,0,1,4.14.26.5.5,0,0,1,0,.71A.51.51,0,0,1,129.44,126Z" fill="#d1d3d4"></path><path d="M125.7,161.63a.48.48,0,0,1-.36-.15l-4.09-4.24a.5.5,0,0,1,0-.71.49.49,0,0,1,.7,0l4.09,4.24a.5.5,0,0,1-.36.84Z" fill="#d1d3d4"></path><path d="M121.61,161.63a.5.5,0,0,1-.36-.84l4.09-4.24a.49.49,0,0,1,.7,0,.5.5,0,0,1,0,.71L122,161.48A.49.49,0,0,1,121.61,161.63Z" fill="#d1d3d4"></path><path d="M101.39,122a.47.47,0,0,1-.25-.07.49.49,0,0,1-.18-.68,3.19,3.19,0,0,1,5.06-.61.51.51,0,0,1,0,.71.5.5,0,0,1-.71,0,2.23,2.23,0,0,0-1.84-.66,2.26,2.26,0,0,0-1.64,1.08A.5.5,0,0,1,101.39,122Z" fill="#d1d3d4"></path><path d="M115.62,141.77h-.08a.5.5,0,0,1-.42-.56c.1-.64,2.91-19.23,2.91-19.23l1,.15s-2.81,18.58-2.91,19.22A.5.5,0,0,1,115.62,141.77Z" fill="#d1d3d4"></path><path d="M114.36,141.51a.51.51,0,0,1-.5-.45L112,122.33a.51.51,0,0,1,.45-.55.5.5,0,0,1,.55.45L114.85,141a.49.49,0,0,1-.44.54Z" fill="#d1d3d4"></path><path d="M97.53,156.7a.52.52,0,0,1-.38-.17.51.51,0,0,1,0-.73c.17-.16,17.27-15.53,34.87-2.36a.52.52,0,0,1,.1.72.51.51,0,0,1-.72.1c-16.92-12.65-33.39,2.15-33.55,2.3A.54.54,0,0,1,97.53,156.7Z" fill="#231f20"></path><path d="M117.73,90.39a1.58,1.58,0,0,0,1,.46c2.45,0,3.37-5.94.37-6.51C115.42,83.64,115.75,88.69,117.73,90.39Z" fill="#fff"></path><path d="M118.73,91.37h0a2.1,2.1,0,0,1-1.32-.59h0a5.29,5.29,0,0,1-1.28-5.61,2.55,2.55,0,0,1,3.08-1.34c1.81.35,2.45,2.26,2.28,4S120.3,91.37,118.73,91.37ZM118.06,90a1.13,1.13,0,0,0,.66.33h0c.91,0,1.58-1.32,1.71-2.6s-.19-2.65-1.44-2.88a1.58,1.58,0,0,0-2,.77,4.29,4.29,0,0,0,1,4.38Z" fill="#231f20"></path><path d="M275,218.07h0a.52.52,0,0,1-.5-.53c.53-17.21.64-76.1.64-76.7a.47.47,0,0,1,.09-.28c.09-.14,9-13.75,10.7-28.46,2.24-19.9-3-29.53-3-29.63a.49.49,0,0,1,0-.41.57.57,0,0,1,.26-.31c.07,0,6.88-3.66,9.53-23.87,2.32-17.71-2.84-27.62-2.9-27.71a.52.52,0,0,1,.21-.7.51.51,0,0,1,.7.21c.22.41,5.38,10.27,3,28.34s-8,23.25-9.65,24.39c1,2.12,5,11.7,2.94,29.8-1.6,14.19-9.85,27.33-10.79,28.79,0,3.36-.12,59.78-.64,76.57A.51.51,0,0,1,275,218.07Z" fill="#231f20"></path><circle cx="273.92" cy="225.78" r="8.29" fill="#231f20"></circle><path d="M273.94,234.57a8.92,8.92,0,0,1-1.16-.08,8.79,8.79,0,1,1,8.11-14.07,8.8,8.8,0,0,1-6.95,14.15Zm0-16.59a7.86,7.86,0,1,0,1,.07A7.13,7.13,0,0,0,273.9,218Z" fill="#231f20"></path><circle cx="273.92" cy="225.78" r="5.86" fill="#fff"></circle><path d="M273.93,232.16a5.93,5.93,0,0,1-.84-.06,6.38,6.38,0,0,1-5.5-7.15,6.38,6.38,0,1,1,6.34,7.21Zm0-11.73a5.35,5.35,0,0,0-5.29,4.65,5.35,5.35,0,1,0,10.6,1.39,5.29,5.29,0,0,0-1.06-3.95,5.35,5.35,0,0,0-3.55-2.05A5.48,5.48,0,0,0,273.91,220.43Z" fill="#231f20"></path><rect x="260.53" y="187.37" width="6.38" height="88.6" rx="2.39" transform="translate(495.08 495.67) rotate(-172.53)" fill="#231f20"></rect><path d="M259.07,276.21l-.38,0-1.58-.21h0a2.89,2.89,0,0,1-2.49-3.24l10.9-83.1a2.88,2.88,0,0,1,3.24-2.49l1.58.21a2.87,2.87,0,0,1,2.49,3.23l-10.9,83.11A2.89,2.89,0,0,1,259.07,276.21ZM257.23,275l1.59.21a1.91,1.91,0,0,0,2.13-1.63l10.9-83.1a1.91,1.91,0,0,0-1.64-2.13l-1.58-.21a1.91,1.91,0,0,0-2.13,1.63l-10.9,83.11a1.9,1.9,0,0,0,1.63,2.12Z" fill="#231f20"></path><path d="M269.17,191.17H269a1,1,0,0,1-.86-1.12l21.46-163.6a1,1,0,0,1,1.12-.86,1,1,0,0,1,.86,1.12L270.16,190.3A1,1,0,0,1,269.17,191.17Z" fill="#231f20"></path><path d="M285.06,139.27a4,4,0,0,0-.23-2.91c-1-1.65-3.27-1-4.84-.78a36.66,36.66,0,0,0-6.37,1.35,5.11,5.11,0,0,0-1.87.88c-.73.62-1.64,2.38-.9,3.26a2.49,2.49,0,0,0,1.91.59,10.18,10.18,0,0,0,3.81-.39,12.29,12.29,0,0,0-3.65.74,5.41,5.41,0,0,0-1.88,1.07,2.49,2.49,0,0,0-.83,1.93c.2,2.91,4,2.09,5.77,1.65a10.11,10.11,0,0,0-4.91,1.75,3,3,0,0,0-.95,1,1.2,1.2,0,0,0,0,1.28,1.66,1.66,0,0,0,1.18.5,11.17,11.17,0,0,0,3.78-.18c-1.7.36-3.37.76-4.1,2.45-1.11,2.54,1.1,2.84,3.25,2.76a16.4,16.4,0,0,0,4.79-.67c1.34-.46,3-1.43,3.36-2.88s.63-2.85,1-4.24C284.14,145.38,284.51,142.31,285.06,139.27Z" fill="#fff"></path><path d="M273.69,156.7c-1.24,0-2.57-.18-3.18-1.07a2.46,2.46,0,0,1,0-2.43,3.71,3.71,0,0,1,1.17-1.5l-.44,0a2.15,2.15,0,0,1-1.52-.69,1.69,1.69,0,0,1-.09-1.84,3.25,3.25,0,0,1,1.11-1.13c.27-.19.56-.37.84-.53a3,3,0,0,1-.92-.44,2.52,2.52,0,0,1-1-2,3,3,0,0,1,1-2.34,4.87,4.87,0,0,1,.89-.66,2,2,0,0,1-1.11-.65,1.82,1.82,0,0,1-.39-1.38,4.25,4.25,0,0,1,1.35-2.6,5.49,5.49,0,0,1,2.05-1,37.48,37.48,0,0,1,6.46-1.36l.74-.11c1.49-.24,3.54-.56,4.6,1.12a4.56,4.56,0,0,1,.3,3.28c-.18,1-.33,1.93-.49,2.89-.33,2.06-.67,4.18-1.18,6.25-.15.59-.28,1.2-.41,1.81-.17.81-.35,1.66-.57,2.45-.56,2-3,3-3.69,3.23a16.66,16.66,0,0,1-4.94.7Zm1.42-5.22c-1.75.39-3,.79-3.62,2.13-.28.66-.33,1.15-.12,1.44.31.46,1.27.67,2.88.61a15.72,15.72,0,0,0,4.64-.65c.61-.21,2.61-1,3-2.53.21-.76.38-1.59.55-2.39.13-.62.27-1.23.41-1.84.51-2,.85-4.13,1.17-6.16.16-1,.32-1.94.49-2.91h0a3.68,3.68,0,0,0-.15-2.55c-.65-1-1.89-.92-3.57-.65l-.78.11a36.25,36.25,0,0,0-6.27,1.33,4.66,4.66,0,0,0-1.7.79,3.27,3.27,0,0,0-1,1.89.81.81,0,0,0,.16.63,2.09,2.09,0,0,0,1.52.42c.37,0,.75,0,1.12,0a13.17,13.17,0,0,1,2.65-.41.55.55,0,0,1,.53.42.51.51,0,0,1-.32.58,8.23,8.23,0,0,1-2.71.44c-.32.09-.63.19-1,.3a4.79,4.79,0,0,0-1.69,1,2,2,0,0,0-.68,1.52,1.53,1.53,0,0,0,.59,1.22,3.78,3.78,0,0,0,2.45.37,10.75,10.75,0,0,1,2.18-.41.52.52,0,0,1,.55.43.51.51,0,0,1-.39.58,17.5,17.5,0,0,1-2.11.41,9.21,9.21,0,0,0-2.62,1.27,2.4,2.4,0,0,0-.79.76.69.69,0,0,0,0,.72,1.3,1.3,0,0,0,.83.31,10.71,10.71,0,0,0,3.48-.15l.13,0a.53.53,0,0,1,.61.39.52.52,0,0,1-.39.62Z" fill="#231f20"></path><path d="M270.49,141.89c.28-1.29-1.18-2.47-2.49-2.28a3.82,3.82,0,0,0-2.76,2.57c-.84,2.19-.4,4.64.29,6.88a2.82,2.82,0,0,0,.88,1.54,2,2,0,0,0,2.32-.22,4.51,4.51,0,0,0,1.26-2.14,13.59,13.59,0,0,0,0-8.25" fill="#fff"></path><path d="M267.34,151.41a2.06,2.06,0,0,1-1.24-.4,3.29,3.29,0,0,1-1.06-1.8c-.58-1.89-1.24-4.7-.29-7.21a4.36,4.36,0,0,1,3.18-2.9,2.82,2.82,0,0,1,1.86.42l.07,0a.51.51,0,0,1,.64.33,4.91,4.91,0,0,1,.15.51A2.15,2.15,0,0,1,271,142a14.06,14.06,0,0,1-.52,6.41,5.06,5.06,0,0,1-1.42,2.38A2.83,2.83,0,0,1,267.34,151.41Zm.94-11.3h-.2a3.31,3.31,0,0,0-2.36,2.25c-.85,2.21-.23,4.79.3,6.54a2.38,2.38,0,0,0,.69,1.27,1.45,1.45,0,0,0,1.69-.2,4.14,4.14,0,0,0,1.1-1.9,13.07,13.07,0,0,0,.21-7.28l-.08-.09A1.89,1.89,0,0,0,268.28,140.11Z" fill="#231f20"></path><path d="M275.75,245.53a.48.48,0,0,1-.28-.08.53.53,0,0,1-.22-.37l-1.83-19.26a.51.51,0,0,1,.45-.54.5.5,0,0,1,.54.45l1.78,18.65,2.79-.87a.5.5,0,0,1,.3,1l-3.38,1A.39.39,0,0,1,275.75,245.53Z" fill="#231f20"></path><ellipse cx="197.06" cy="48.96" rx="0.73" ry="1.67" transform="translate(-2.8 13.1) rotate(-3.78)" fill="#231f20"></ellipse><ellipse cx="186.26" cy="49.74" rx="0.73" ry="1.67" transform="translate(-2.87 12.39) rotate(-3.78)" fill="#231f20"></ellipse></g></svg>