<svg xmlns="http://www.w3.org/2000/svg" viewBox="0 0 400 300" width="406" height="306" class="illustration styles_illustrationTablet__1DWOa"><g id="_198_adventure_flatline" data-name="#198_adventure_flatline"><path d="M92.09,126.35l54.8-2a6.31,6.31,0,0,1,4,5.8c.33,6.16-3.32,7.77-3.32,7.77L93,143Z" fill="#fff"></path><path d="M93,143.47a.52.52,0,0,1-.33-.12.53.53,0,0,1-.17-.35l-.89-16.62a.49.49,0,0,1,.13-.36.53.53,0,0,1,.35-.17l54.8-2,.17,0a6.85,6.85,0,0,1,4.37,6.24c.34,6.44-3.45,8.19-3.61,8.26a.47.47,0,0,1-.16,0L93,143.47Zm-.37-16.63.84,15.59,54-5c.47-.24,3.23-1.92,3-7.25a5.79,5.79,0,0,0-3.61-5.32Z" fill="#231f20"></path><path d="M135.88,138.49c-1.63,0-3.27,0-4.9,0a147.64,147.64,0,0,0-15.88.83c-5,.65-11.21,1.87-15.18,5.18a13.61,13.61,0,0,0-3.74,6.51c-.16.58-1.14,6.73-.35,6.76-2.43-.1-3.92,2.58-4.65,4.89-3.33,10.44-2.87,20.44.7,30.65.87,2.48,1.9,3.52,4.42,3.66a33.58,33.58,0,0,1,6.45,1.42c5.87,1.46,12,1.45,18,1.43a105.21,105.21,0,0,0,12.17-.5c7.49-.9,16.31-2.73,22-8.1,5.47-5.21,3.46-12.57,3.43-19.18,0-9.05-.29-16.08-5.33-24.1-2.67-4.26-6.37-7.62-11.36-8.83A26.69,26.69,0,0,0,135.88,138.49Z" fill="#231f20"></path><path d="M118.84,200.38c-5.39,0-10.9-.13-16.21-1.46l-1.78-.48a20.82,20.82,0,0,0-4.57-.92c-3-.17-4-1.6-4.87-4-3.72-10.64-4-20.77-.71-31,1-3,2.53-4.85,4.38-5.19-.26-1.88.61-6.4.62-6.44.39-1.38,1.55-4.79,3.9-6.76,4.11-3.43,10.4-4.63,15.43-5.3a122.47,122.47,0,0,1,13.34-.77L131,138h.47c1.46,0,3-.07,4.45,0h0a27.56,27.56,0,0,1,5.88.68c4.68,1.14,8.61,4.18,11.67,9.06,5,7.91,5.36,14.78,5.4,24.36,0,1.36.1,2.79.19,4.17.36,5.45.73,11.08-3.78,15.37-6,5.71-15.58,7.43-22.26,8.23a104.34,104.34,0,0,1-12.21.51ZM95.71,158.31c-2.35,0-3.62,3.17-4.06,4.55-3.18,10-3,19.9.7,30.33.85,2.43,1.78,3.21,4,3.33a22.11,22.11,0,0,1,4.79,1c.57.16,1.15.32,1.75.47,5.84,1.46,12,1.44,17.91,1.43a106.83,106.83,0,0,0,12.11-.51c6.53-.78,15.88-2.45,21.68-8,4.17-4,3.82-9.37,3.48-14.59-.09-1.39-.19-2.83-.19-4.22-.05-9.41-.43-16.16-5.26-23.85-2.91-4.64-6.63-7.54-11-8.61a26.24,26.24,0,0,0-5.68-.66h0c-1.46,0-3,0-4.4.05H131l-2.61.06a120.17,120.17,0,0,0-13.23.76c-4.51.6-11,1.77-14.92,5.08-2.14,1.78-3.22,5-3.58,6.26-.22.77-.84,5.33-.58,6.19a.52.52,0,0,1,.25.44.48.48,0,0,1-.52.48Z" fill="#231f20"></path><path d="M104.18,125.7a116.55,116.55,0,0,1,18.57-2.49c3.89-.2,13.63-.7,17,1.38,3.73,2.28.68,10.2.67,14.31,0,5.82-3.47,7.27-8.76,8.84a31.93,31.93,0,0,1-11.79,1.14c-3.21-.3-10.24-2.07-11-5.84a7.21,7.21,0,0,1,.24-2.68C109.67,137.56,108.07,128.52,104.18,125.7Z" fill="#231f20"></path><path d="M122.73,149.5c-1,0-1.93,0-2.88-.13-2.7-.24-10.58-1.92-11.44-6.23a6,6,0,0,1,.16-2.5l.07-.37c.51-2.63-1.07-11.35-4.65-14.09a.4.4,0,0,1-.21-.18.5.5,0,0,1,0-.65.49.49,0,0,1,.41-.14l.89-.18a106.66,106.66,0,0,1,17.6-2.32c4.13-.21,13.78-.71,17.31,1.45,2.93,1.8,2.14,6.41,1.44,10.48a28.45,28.45,0,0,0-.53,4.26c0,6.14-3.78,7.74-9.11,9.32A32.59,32.59,0,0,1,122.73,149.5ZM105.29,126c3.49,3.51,4.86,11.66,4.33,14.44l-.08.39a5.49,5.49,0,0,0-.16,2.11c.69,3.4,7.54,5.16,10.56,5.43a31.52,31.52,0,0,0,11.6-1.11c5.23-1.56,8.41-2.89,8.41-8.37a28.81,28.81,0,0,1,.54-4.43c.64-3.76,1.37-8-1-9.46-3.27-2-13-1.49-16.73-1.3A106,106,0,0,0,105.33,126Z" fill="#231f20"></path><ellipse cx="92.53" cy="134.66" rx="5.58" ry="8.32" transform="translate(-7.1 5.16) rotate(-3.08)" fill="#fff"></ellipse><path d="M92.77,143.48a5.42,5.42,0,0,1-4.26-2.43A11.07,11.07,0,0,1,86.46,135c-.26-4.86,2.25-9,5.6-9.13a5.26,5.26,0,0,1,4.5,2.42,11.15,11.15,0,0,1,2,6.06h0c.26,4.85-2.25,8.95-5.6,9.13Zm-.48-16.63h-.18c-2.79.15-4.88,3.78-4.65,8.09a10.08,10.08,0,0,0,1.85,5.51,4.37,4.37,0,0,0,3.64,2c2.8-.15,4.89-3.77,4.66-8.08h0a10.08,10.08,0,0,0-1.85-5.51A4.44,4.44,0,0,0,92.29,126.85Z" fill="#231f20"></path><path d="M102.61,165.16a.52.52,0,0,1-.51-.42c-1-5.44-4-6.25-4.13-6.28a.52.52,0,0,1-.37-.63.5.5,0,0,1,.61-.37c.16,0,3.75.95,4.91,7.09a.51.51,0,0,1-.41.6Z" fill="#fff"></path><path d="M112.62,163.63a.51.51,0,0,1-.47-.32c0-.09-3.48-8.68,4.18-14.34,4.9-3.63,14.57-4,21.47-2.82,4.23.73,7.21,2,8.19,3.42a20.2,20.2,0,0,1,2.94,9.12.53.53,0,0,1-.49.54.5.5,0,0,1-.54-.49,19.6,19.6,0,0,0-2.77-8.59c-.79-1.18-3.67-2.32-7.5-3-6.7-1.15-16-.82-20.69,2.63-7,5.19-3.87,13-3.84,13.12a.52.52,0,0,1-.28.67A.45.45,0,0,1,112.62,163.63Z" fill="#fff"></path><path d="M235.8,130.07s6.8,30.52,13.92,30.3,22.12-29.3,22.12-29.3l-8.46-4.56-9,7.93-6.9-15.9Z" fill="#fff"></path><path d="M249.64,160.87c-3.17,0-6.54-5.18-10-15.41-2.57-7.54-4.29-15.2-4.31-15.28a.52.52,0,0,1,.14-.47l11.69-11.53a.53.53,0,0,1,.45-.13.49.49,0,0,1,.36.29l6.63,15.27,8.47-7.47a.5.5,0,0,1,.57-.07l8.46,4.56a.49.49,0,0,1,.2.67c-.61,1.2-15.22,29.34-22.55,29.57Zm-13.29-30.64c1.92,8.53,7.86,29.64,13.29,29.64h.06c5.5-.18,17.14-20.29,21.47-28.59l-7.72-4.16-8.73,7.69a.47.47,0,0,1-.44.11.51.51,0,0,1-.35-.29l-6.6-15.22Z" fill="#231f20"></path><path d="M175.87,118.17s-16.36,33-14.69,42.05S192,154,192,154l3-7.52-8.13-5.69,2.37-18.22Z" fill="#fff"></path><path d="M165.93,163.57a7.33,7.33,0,0,1-3.21-.6,3.54,3.54,0,0,1-2-2.66c-1.69-9.1,14.06-41,14.73-42.36a.51.51,0,0,1,.61-.26l13.35,4.38a.49.49,0,0,1,.33.54l-2.33,17.92,7.89,5.51a.5.5,0,0,1,.18.59l-3,7.53a.47.47,0,0,1-.23.25C191.44,154.84,174.68,163.57,165.93,163.57Zm10.2-44.79c-1.83,3.73-16,33.1-14.45,41.35a2.54,2.54,0,0,0,1.47,1.94c6,2.94,26.42-7.4,28.47-8.46l2.75-7-7.81-5.46a.51.51,0,0,1-.21-.47l2.32-17.81Z" fill="#231f20"></path><path d="M186.85,132l-16.47-10.39c6.59-11.34,10.34-21.72,14.9-24.08,5.91-4.09,26.77-1.33,39.31-.7a17.48,17.48,0,0,1,10.58,1.8c13.09,6.68,18.54,27.62,18.54,27.62L239.53,133s.73,4,5.75,25.75c0,0-34.38,10-62.29,20C183,178.76,186.86,135.77,186.85,132Z" fill="#68e1fd"></path><path d="M215.05,161.94a.5.5,0,0,1-.5-.48l-1.71-56.15a.5.5,0,0,1,.48-.52h0a.5.5,0,0,1,.5.48l1.71,56.16a.5.5,0,0,1-.49.51Z" fill="#231f20"></path><path d="M206.54,123.64a.51.51,0,0,1-.47-.32c-.27-.71-6.68-17.38-6.26-23.32.26-3.67,2.75-6.14,6.84-6.76,5.51-.85,13.15,2,15.15,7.05,3.07,7.8.07,20-.06,20.49a.49.49,0,0,1-.6.36.5.5,0,0,1-.37-.6c0-.13,3-12.38.1-19.88C219,96,211.93,93.44,206.8,94.22c-2.11.33-5.69,1.52-6,5.85-.41,5.72,6.13,22.72,6.2,22.89a.5.5,0,0,1-.29.64A.39.39,0,0,1,206.54,123.64Z" fill="#231f20"></path><path d="M189.54,70.71s-3.12-6.54-1.93-10.69,16.65-12,22.12-11.42S223,62.84,223,62.84,196.08,63.49,189.54,70.71Z" fill="#fff"></path><path d="M189.54,71.23h-.08a.52.52,0,0,1-.39-.28c-.13-.28-3.18-6.77-1.95-11.06S204,47.43,209.79,48.08s13.3,13.93,13.62,14.5a.52.52,0,0,1,0,.51.51.51,0,0,1-.44.26c-.26,0-26.73.74-33.05,7.71A.52.52,0,0,1,189.54,71.23Zm19.53-22.15c-5.8,0-19.89,7.33-21,11.08-.91,3.16.86,7.91,1.6,9.65,6.71-6.15,27.73-7.29,32.36-7.46-1.69-2.83-8-12.76-12.4-13.24A5.74,5.74,0,0,0,209.07,49.08Z" fill="#231f20"></path><ellipse cx="206.54" cy="70.71" rx="25.66" ry="14.01" transform="translate(-8.95 105.66) rotate(-28.11)" fill="#231f20"></ellipse><path d="M195.44,88.5h-.24c-5.71,0-9.88-2-11.73-5.46C179.7,76,187,64.71,199.7,57.91s26.14-6.58,29.91.48c1.86,3.47,1.15,8-2,12.79s-8.13,9.07-14.25,12.33A39.2,39.2,0,0,1,195.44,88.5Zm22.23-34.59a38.44,38.44,0,0,0-17.5,4.88C187.93,65.33,180.83,76,184.34,82.57c1.68,3.14,5.54,4.89,10.87,4.94h.23a38.26,38.26,0,0,0,17.47-4.88c6-3.19,10.9-7.45,13.89-12s3.61-8.64,1.93-11.77h0C227,55.56,222.87,53.91,217.67,53.91Z" fill="#231f20"></path><path d="M220.51,64.36c-.22-.36-.45-.71-.7-1.06-2.8-3.92-10.23-2.63-14.13-1.5a22.36,22.36,0,0,0-9.88,5.38c-2.14,2.18-4.13,5.72-3.73,8.9s2.4,6.9,4,9.58a11.25,11.25,0,0,0,3.72,4.11A11.67,11.67,0,0,0,205.12,91c3.95.21,8.06-.17,11.5-2.12s6.66-6.09,6.93-10.28C223.86,73.77,223.09,68.59,220.51,64.36Z" fill="#fff"></path><path d="M207,91.6c-.62,0-1.25,0-1.91,0a12.23,12.23,0,0,1-5.54-1.33,11.83,11.83,0,0,1-3.91-4.3c-2.4-4-3.77-7.26-4.09-9.77-.44-3.53,1.82-7.23,3.88-9.33a22.59,22.59,0,0,1,10.11-5.52c2.62-.75,11.43-2.87,14.69,1.7a13,13,0,0,1,.72,1.1h0c3,5,3.37,10.66,3.11,14.57s-3.21,8.44-7.18,10.69A19.57,19.57,0,0,1,207,91.6Zm6-30.43a27.92,27.92,0,0,0-7.21,1.13,21.43,21.43,0,0,0-9.65,5.25c-2,2.08-4,5.51-3.59,8.47.29,2.37,1.62,5.52,3.95,9.37a10.9,10.9,0,0,0,3.54,3.94,11.4,11.4,0,0,0,5.08,1.19c4.68.26,8.34-.42,11.22-2,3.68-2.1,6.42-6.15,6.66-9.87s-.07-9.23-3-14h0c-.21-.35-.44-.69-.68-1C218.06,61.73,215.56,61.17,213,61.17Z" fill="#231f20"></path><path d="M218.49,90.79l1.16,9.55s-2.61,6-8.86,4.86a12.67,12.67,0,0,1-8.72-6.52l-.78-17.43s4.47-2.67,2.64-12.55a30.7,30.7,0,0,0,16.16,1.45s3.33,10.65,2.82,15.48S218.49,90.79,218.49,90.79Z" fill="#fff"></path><path d="M212.37,105.87a9.16,9.16,0,0,1-1.68-.16,13.06,13.06,0,0,1-9.09-6.81.45.45,0,0,1,0-.19l-.77-17.44a.51.51,0,0,1,.25-.47s4.12-2.66,2.39-12a.51.51,0,0,1,.19-.5.49.49,0,0,1,.52-.07A30.37,30.37,0,0,0,220,69.64a.5.5,0,0,1,.58.36c.14.44,3.36,10.81,2.84,15.68-.44,4.09-3.19,5.22-4.36,5.52l1.1,9.08a.46.46,0,0,1,0,.26C220.1,100.6,217.76,105.87,212.37,105.87Zm-9.79-7.32a12.24,12.24,0,0,0,8.3,6.14c5.31,1,7.84-3.63,8.24-4.44L218,90.85a.54.54,0,0,1,.11-.39.56.56,0,0,1,.36-.19h0c.14,0,3.48-.38,3.94-4.7.44-4.12-2-12.8-2.66-14.83a31.68,31.68,0,0,1-15.14-1.24c1.26,8.16-1.82,11.26-2.77,12Z" fill="#231f20"></path><path d="M204.9,80.77a4.07,4.07,0,0,0-1.47-2.1,7.13,7.13,0,0,0-2.22-1,2.86,2.86,0,0,0-1.32-.17,2.5,2.5,0,0,0-.86.36,3.06,3.06,0,0,0-1.41,1.64,3.66,3.66,0,0,0,0,1.77,7.08,7.08,0,0,0,.57,1.85,4.89,4.89,0,0,0,6.6,2.24" fill="#fff"></path><path d="M202.59,86.42a5.37,5.37,0,0,1-1.73-.29,5.45,5.45,0,0,1-3.14-2.76,8.39,8.39,0,0,1-.61-2,4.31,4.31,0,0,1,0-2,3.63,3.63,0,0,1,1.64-1.92,2.91,2.91,0,0,1,1.05-.43,3.31,3.31,0,0,1,1.54.19,7.45,7.45,0,0,1,2.38,1.06,4.56,4.56,0,0,1,1.66,2.36.51.51,0,0,1-.34.64.51.51,0,0,1-.64-.35,3.59,3.59,0,0,0-1.29-1.82,7.09,7.09,0,0,0-2.06-.91A2.5,2.5,0,0,0,200,78a1.86,1.86,0,0,0-.68.29,2.65,2.65,0,0,0-1.19,1.35,3.13,3.13,0,0,0,0,1.52,6.73,6.73,0,0,0,.52,1.73,4.4,4.4,0,0,0,5.91,2,.51.51,0,1,1,.46.92A5.4,5.4,0,0,1,202.59,86.42Z" fill="#231f20"></path><path d="M218.85,95.54a8,8,0,0,1-6.43-1.75c-2.85-2.49-2.69-4-2.69-4S214.24,92,218.25,91Z" fill="#231f20"></path><path d="M217.57,96.15a8.29,8.29,0,0,1-5.48-2c-3-2.59-2.87-4.27-2.85-4.46a.48.48,0,0,1,.25-.38.5.5,0,0,1,.46,0s4.39,2.1,8.18,1.15a.48.48,0,0,1,.4.07.5.5,0,0,1,.21.35l.6,4.59A.5.5,0,0,1,219,96,7.4,7.4,0,0,1,217.57,96.15Zm-7.12-5.54a8.71,8.71,0,0,0,2.3,2.81,7.49,7.49,0,0,0,5.54,1.7l-.46-3.57A14.39,14.39,0,0,1,210.45,90.61Z" fill="#231f20"></path><path d="M213.54,75.89s3.63,4.55,2.93,5.45-2.89.53-2.89.53" fill="#fff"></path><path d="M214.58,82.45a8.37,8.37,0,0,1-1.08-.08.5.5,0,0,1,.16-1c.63.1,2,.16,2.42-.34.11-.45-1.25-2.73-2.94-4.84a.5.5,0,0,1,.79-.62c1.77,2.21,3.71,5.07,2.94,6.07A2.89,2.89,0,0,1,214.58,82.45Z" fill="#231f20"></path><path d="M215.64,85.28s-3.49,1.47-4.76-1.93" fill="#fff"></path><path d="M214,86.09a3.6,3.6,0,0,1-3.55-2.57.49.49,0,0,1,.29-.64.5.5,0,0,1,.65.29,2.76,2.76,0,0,0,1.46,1.7,3.85,3.85,0,0,0,2.64-.05.49.49,0,0,1,.65.26.5.5,0,0,1-.26.66A5.37,5.37,0,0,1,214,86.09Z" fill="#231f20"></path><ellipse cx="209.44" cy="76.17" rx="0.8" ry="1.13" transform="translate(-5.99 19.09) rotate(-5.15)" fill="#231f20"></ellipse><ellipse cx="217.29" cy="75.46" rx="0.8" ry="1.13" transform="translate(-5.89 19.8) rotate(-5.15)" fill="#231f20"></ellipse><path d="M235.75,174.44h0a.5.5,0,0,1-.48-.51c0-.08.24-8.22,0-11.91a.5.5,0,0,1,.46-.53.52.52,0,0,1,.53.47c.24,3.73,0,11.92,0,12A.5.5,0,0,1,235.75,174.44Z" fill="#fff"></path><rect x="202.25" y="117.55" width="23.83" height="12.61" rx="1.55" transform="translate(438.71 227.7) rotate(174.78)" fill="#fff"></rect><path d="M204.28,131.58a2.06,2.06,0,0,1-2.05-1.86l-.86-9.47a2.06,2.06,0,0,1,1.86-2.23l20.64-1.89A2.05,2.05,0,0,1,226.1,118l.86,9.47a2.06,2.06,0,0,1-1.85,2.23l-20.65,1.88Zm19.77-14.45H224L203.32,119a1.06,1.06,0,0,0-.72.37,1,1,0,0,0-.23.77l.86,9.47a1.07,1.07,0,0,0,1.14,1h0L225,128.69a1.06,1.06,0,0,0,.72-.37,1,1,0,0,0,.23-.77l-.86-9.47A1.05,1.05,0,0,0,224.05,117.13Z" fill="#231f20"></path><path d="M207.81,114.57h11.3a0,0,0,0,1,0,0v1.22a1.79,1.79,0,0,1-1.79,1.79H209.6a1.79,1.79,0,0,1-1.79-1.79v-1.22A0,0,0,0,1,207.81,114.57Z" transform="translate(436.59 212.25) rotate(174.78)" fill="#fff"></path><path d="M208,118.59a.49.49,0,0,1-.49-.45l-.11-1.22a2.25,2.25,0,0,1,.52-1.67,2.29,2.29,0,0,1,1.55-.82l7.68-.7a2.28,2.28,0,0,1,2.49,2.07l.12,1.22a.51.51,0,0,1-.46.54l-11.25,1Zm9.36-3.87h-.11l-7.69.71a1.25,1.25,0,0,0-.87.46,1.29,1.29,0,0,0-.3.94l.07.72,10.25-.94-.06-.72A1.29,1.29,0,0,0,217.32,114.72Z" fill="#231f20"></path><circle cx="214.17" cy="123.85" r="5.32" fill="#fff"></circle><path d="M214.16,129.67a5.83,5.83,0,0,1-5.79-5.29h0a5.82,5.82,0,1,1,6.33,5.27Zm-4.79-5.38a4.81,4.81,0,1,0,9.59-.87,4.81,4.81,0,1,0-9.59.87Z" fill="#231f20"></path><circle cx="214.17" cy="123.85" r="3.2" fill="#231f20"></circle><path d="M214.16,127.55a3.69,3.69,0,0,1-3.67-3.36h0a3.7,3.7,0,0,1,3.34-4,3.74,3.74,0,0,1,2.7.84,3.7,3.7,0,0,1,1.31,2.51,3.69,3.69,0,0,1-3.34,4Zm-2.68-3.45a2.7,2.7,0,0,0,4.76,1.48,2.7,2.7,0,0,0-2.32-4.41,2.69,2.69,0,0,0-2.44,2.93Z" fill="#231f20"></path><path d="M241.17,141.12a.49.49,0,0,1-.49-.38l-6.93-29.95a.5.5,0,0,1,.38-.6.51.51,0,0,1,.6.37l6.93,29.95a.5.5,0,0,1-.38.6Z" fill="#231f20"></path><path d="M186.43,139.09h-.06a.5.5,0,0,1-.44-.55L189.61,106a.5.5,0,0,1,1,.11l-3.68,32.51A.51.51,0,0,1,186.43,139.09Z" fill="#231f20"></path><path d="M199.19,94.86s-11.9,0-15.13,2.5v3.48s11.48-3.61,15.13-2.7Z" fill="#231f20"></path><path d="M184.06,101.34a.46.46,0,0,1-.29-.1.48.48,0,0,1-.2-.4V97.36a.51.51,0,0,1,.19-.39c3.32-2.58,14.94-2.61,15.43-2.61a.5.5,0,0,1,.5.5v3.28a.51.51,0,0,1-.19.4.54.54,0,0,1-.43.09c-3.47-.88-14.74,2.65-14.86,2.69Zm.5-3.72v2.55c2.37-.71,10.46-3,14.14-2.62V95.36C196.48,95.4,187.48,95.66,184.56,97.62Z" fill="#231f20"></path><path d="M222.67,95.38,222,97.85s11.27.85,15.7,3.74l.88-3.11S229.79,94.28,222.67,95.38Z" fill="#231f20"></path><path d="M237.7,102.09a.53.53,0,0,1-.27-.08c-4.27-2.79-15.35-3.65-15.47-3.66a.52.52,0,0,1-.37-.21.51.51,0,0,1-.07-.42l.67-2.47a.51.51,0,0,1,.4-.37c7.2-1.11,15.84,3,16.2,3.15a.51.51,0,0,1,.27.59l-.88,3.11a.49.49,0,0,1-.3.33A.57.57,0,0,1,237.7,102.09Zm-15.06-4.68c2.31.21,10.58,1.1,14.76,3.42l.58-2.07c-1.72-.76-8.92-3.72-14.92-2.94Z" fill="#231f20"></path><path d="M360.82,205.6c-.51,0-1,0-1.53,0-3.21-.15-7-1.38-7.79-4.48-.36.41-.74.8-1.12,1.19L252,121.16a2,2,0,0,1,2.6-3.15Z" fill="#fff"></path><path d="M360.4,206.1l-1.13,0c-3.11-.15-6.69-1.29-8-4l-.57.6a.52.52,0,0,1-.68,0l-98.43-81.13a2.57,2.57,0,0,1-.34-3.59,2.53,2.53,0,0,1,1.71-.91,2.58,2.58,0,0,1,1.87.57l106.27,87.59a.51.51,0,0,1-.31.89Zm-8.9-5.5h.11a.49.49,0,0,1,.37.36c.76,2.81,4.28,4,7.33,4.11h.1L254.23,118.4a1.52,1.52,0,0,0-1.14-.35,1.47,1.47,0,0,0-1,.55,1.53,1.53,0,0,0,.2,2.17l98.07,80.84q.41-.41.78-.84A.52.52,0,0,1,351.5,200.6Z" fill="#231f20"></path><path d="M272.92,125.4a4.18,4.18,0,0,0-1.95-.2,3.92,3.92,0,0,0-1.29.57,9.22,9.22,0,0,0-2.55,2.35,3.6,3.6,0,0,1,1.5.95,4.35,4.35,0,0,0-.15,5.59,7.77,7.77,0,0,0,3,1.92,7.5,7.5,0,0,0,2.69.74,5,5,0,0,0,4.36-2.6C281.26,130,277.27,126.67,272.92,125.4Z" fill="#fff"></path><path d="M274.3,137.82h-.16a8.07,8.07,0,0,1-2.87-.78A8.19,8.19,0,0,1,268.1,135a4.85,4.85,0,0,1-.16-5.87,3.49,3.49,0,0,0-1-.52.51.51,0,0,1-.32-.32.52.52,0,0,1,.08-.45,9.71,9.71,0,0,1,2.68-2.47,4.44,4.44,0,0,1,1.47-.64,4.54,4.54,0,0,1,2.18.21c3.26,1,5.63,2.73,6.49,4.89A5.7,5.7,0,0,1,279,135,5.52,5.52,0,0,1,274.3,137.82Zm-6.37-9.9a4,4,0,0,1,1.06.8.5.5,0,0,1,0,.69,3.85,3.85,0,0,0-.14,4.93,7.48,7.48,0,0,0,2.8,1.78,7.24,7.24,0,0,0,2.52.7,4.58,4.58,0,0,0,3.91-2.35,4.81,4.81,0,0,0,.54-4.29c-.74-1.84-2.93-3.45-5.85-4.3h0a3.65,3.65,0,0,0-1.71-.19,3.76,3.76,0,0,0-1.13.5A9.21,9.21,0,0,0,267.93,127.92Z" fill="#231f20"></path><polygon points="107.93 206.13 87.76 207.54 29.54 236.53 64.69 255.22 107.93 218.96 107.93 206.13" fill="#fff"></polygon><path d="M64.7,255.73a.5.5,0,0,1-.24-.06L29.31,237a.5.5,0,0,1-.27-.45.49.49,0,0,1,.28-.44l58.22-29a.41.41,0,0,1,.19-.05l20.17-1.41a.51.51,0,0,1,.37.13.46.46,0,0,1,.16.36V219a.49.49,0,0,1-.17.38L65,255.61A.51.51,0,0,1,64.7,255.73ZM30.63,236.55l34,18.08,42.8-35.91V206.66L87.89,208Z" fill="#231f20"></path><path d="M316.56,113.27s-67.62,37-112.36,46.06c-63.63,12.9-133,8.9-133,8.9l18.29,31.89a574.5,574.5,0,0,0,89.84,9.42c33.47.78,81,.07,81,.07s37.38-21.36,50.73-57S316.56,113.27,316.56,113.27Z" fill="#fff"></path><path d="M217.37,210.41c-12.67,0-26.3-.09-38.11-.37a580.93,580.93,0,0,1-89.92-9.43.49.49,0,0,1-.33-.25l-18.3-31.88a.52.52,0,0,1,0-.51.48.48,0,0,1,.46-.24c.69,0,70.08,3.85,132.92-8.89,44.16-9,111.55-45.64,112.22-46a.53.53,0,0,1,.46,0c.33.17,8,4.39-5.31,40-13.26,35.36-50.58,57-51,57.22a.53.53,0,0,1-.24.06C260,210.12,240.23,210.41,217.37,210.41ZM89.76,199.67A582.21,582.21,0,0,0,179.29,209c32.22.75,78,.12,80.84.08,2.25-1.33,37.63-22.57,50.4-56.64,11.65-31.07,7-37.64,6-38.61-4.85,2.62-69.39,37.26-112.22,45.95-59,12-123.82,9.36-132.26,9Z" fill="#231f20"></path><path d="M334.14,118.17a16.9,16.9,0,0,1,6.08,14.9s-13.63,29.69-26.11,47.32c-13.64,19.29-23.21,24.89-28.33,27a30.2,30.2,0,0,1-9.71,2.22S330.8,147.09,334.14,118.17Z" fill="#fff"></path><path d="M276.07,210.11a.52.52,0,0,1-.46-.28.53.53,0,0,1,.08-.55c.55-.62,54.67-62.73,57.95-91.17a.48.48,0,0,1,.3-.4.5.5,0,0,1,.49.05,17.59,17.59,0,0,1,6.29,15.36.43.43,0,0,1-.05.16c-.13.3-13.78,29.93-26.15,47.4-10.2,14.42-19.81,23.56-28.55,27.17a30.37,30.37,0,0,1-9.89,2.26Zm58.44-91c-1.78,12.12-12,30.92-30.26,55.89-12,16.42-23.88,30.36-27,34a30.73,30.73,0,0,0,8.35-2.09c8.56-3.54,18-12.56,28.12-26.83,12-17,25.24-45.47,26-47.16A16.56,16.56,0,0,0,334.51,119.14Z" fill="#231f20"></path><path d="M322.72,109l-6.16,4.23s-8.48,30-16.24,44.43c-15.58,29.07-40.05,51.91-40.05,51.91l4,1.78S299,180.69,311,159.33,322.72,109,322.72,109Z" fill="#fff"></path><path d="M264.27,211.89a.51.51,0,0,1-.2,0l-4-1.78a.48.48,0,0,1-.29-.37.5.5,0,0,1,.15-.45c.24-.23,24.59-23.13,39.95-51.79,7.64-14.26,16.12-44,16.2-44.32a.47.47,0,0,1,.2-.28l6.15-4.23a.54.54,0,0,1,.52,0,.52.52,0,0,1,.27.44c0,.29.16,29.3-11.79,50.53s-46.48,51.89-46.82,52.2A.54.54,0,0,1,264.27,211.89Zm-3.12-2.43,3,1.35c3.1-2.77,35.07-31.61,46.38-51.73,10.6-18.84,11.57-43.92,11.65-49.08L317,113.58c-.71,2.48-8.84,30.57-16.23,44.35C286.61,184.35,264.86,205.89,261.15,209.46Z" fill="#231f20"></path><path d="M264.27,211.39s21.88-20,36.94-48.28c13.1-24.59,21.51-54.07,21.51-54.07l17.5,1.78s-10.68,36.79-28.78,62.6-35,37.42-35,37.42Z" fill="#fff"></path><path d="M264.27,211.89a.5.5,0,0,1-.33-.87c.22-.19,22-20.29,36.83-48.14,12.92-24.26,21.38-53.68,21.47-54a.49.49,0,0,1,.53-.36l17.5,1.78a.45.45,0,0,1,.36.22.46.46,0,0,1,.07.41c-.11.37-10.91,37.17-28.85,62.75s-35,37.42-35.17,37.54a.54.54,0,0,1-.26.09l-12.12.55Zm58.81-102.31c-1.06,3.63-9.28,31-21.43,53.77C288.53,188,270,206.56,265.59,210.83l10.64-.49c1.52-1.07,17.75-12.88,34.81-37.21,16.61-23.69,27.08-57.09,28.53-61.87Z" fill="#231f20"></path><path d="M123.51,176.5a459,459,0,0,1-46.19-2.06.5.5,0,0,1-.44-.55.48.48,0,0,1,.55-.44c.33,0,33.9,3.75,78.63,1.09,41.26-2.44,100.73-11,149.7-37.65a.5.5,0,1,1,.48.87c-49.14,26.79-108.77,35.33-150.14,37.78C144.33,176.24,133.33,176.5,123.51,176.5Z" fill="#d1d3d4"></path><path d="M145.13,187.42a580.1,580.1,0,0,1-60.31-2.94.5.5,0,0,1,.12-1A597.62,597.62,0,0,0,157,186.31c37.59-.73,91.4-5.43,134.31-23.69a.49.49,0,0,1,.65.26.5.5,0,0,1-.26.66c-43.06,18.32-97,23-134.69,23.77C152.94,187.39,149,187.42,145.13,187.42Z" fill="#d1d3d4"></path><path d="M175,199.45a573.45,573.45,0,0,1-85.83-6.28.5.5,0,0,1-.41-.58.49.49,0,0,1,.57-.41c1,.17,99.89,16.68,185.25-4.55a.5.5,0,0,1,.61.36.5.5,0,0,1-.37.61C241.35,196.91,205.85,199.45,175,199.45Z" fill="#d1d3d4"></path><path d="M332.09,145.44a.49.49,0,0,1-.39-.19l-2.25-2.81a.5.5,0,1,1,.78-.63l2.25,2.82a.5.5,0,0,1-.08.7A.51.51,0,0,1,332.09,145.44Z" fill="#d1d3d4"></path><path d="M319.8,169.56a.52.52,0,0,1-.38-.17l-2-2.25a.49.49,0,0,1,0-.7.5.5,0,0,1,.71,0l2,2.26a.49.49,0,0,1,0,.7A.46.46,0,0,1,319.8,169.56Z" fill="#d1d3d4"></path><path d="M304.12,189.42a11,11,0,0,1-2-.16.5.5,0,0,1-.39-.59.48.48,0,0,1,.58-.39,11.68,11.68,0,0,0,3.58,0,.5.5,0,1,1,.16,1A11.81,11.81,0,0,1,304.12,189.42Z" fill="#d1d3d4"></path><polygon points="71.15 168.23 66.11 168.23 84.71 199.94 89.44 200.12 71.15 168.23" fill="#fff"></polygon><path d="M89.44,200.62h0l-4.73-.18a.49.49,0,0,1-.41-.25l-18.6-31.71a.5.5,0,0,1,0-.5.5.5,0,0,1,.43-.25h5a.5.5,0,0,1,.43.25l18.3,31.89a.47.47,0,0,1,0,.5A.5.5,0,0,1,89.44,200.62ZM85,199.45l3.56.13-17.7-30.85H67Z" fill="#231f20"></path><rect x="151.92" y="81.16" width="4.09" height="189.81" rx="2.04" transform="translate(218.54 -48.73) rotate(57.2)" fill="#fff"></rect><path d="M75.92,228.92a2.48,2.48,0,0,1-.54-.06,2.57,2.57,0,0,1-1.61-1.11,2.54,2.54,0,0,1-.34-1.92,2.5,2.5,0,0,1,1.11-1.6l156.1-100.61a2.52,2.52,0,0,1,1.91-.35,2.55,2.55,0,0,1,.84,4.63L77.29,228.51A2.5,2.5,0,0,1,75.92,228.92ZM232,124.21a1.55,1.55,0,0,0-.83.25L75.08,225.07a1.54,1.54,0,0,0-.68,1,1.56,1.56,0,0,0,.22,1.17,1.54,1.54,0,0,0,2.13.46l156.1-100.61a1.56,1.56,0,0,0,.68-1,1.54,1.54,0,0,0-.22-1.16,1.47,1.47,0,0,0-1-.67A1.24,1.24,0,0,0,232,124.21Z" fill="#231f20"></path><path d="M172.46,146.13s21.36-7.86,25.21-9,12.51-2,14.46.89,1.25,7,0,8-8,5.93-9.26,3.86a40.88,40.88,0,0,1-2.53-6.1l-3.67,2.37-20.09,12.95" fill="#fff"></path><path d="M176.58,159.56a.5.5,0,0,1-.28-.92l23.77-15.32a.52.52,0,0,1,.44,0,.5.5,0,0,1,.31.31,40.58,40.58,0,0,0,2.48,6,.51.51,0,0,0,.39.25c1.78.29,6.52-2.91,8.12-4.24,1.06-.88,1.67-4.75-.1-7.34s-10.08-1.86-13.89-.69-25,9-25.19,9a.5.5,0,0,1-.64-.3.49.49,0,0,1,.3-.64c.21-.08,21.41-7.88,25.24-9.06,3.35-1,12.75-2.22,15,1.09,2.07,3,1.42,7.41-.09,8.67-.06,0-6.27,4.93-8.93,4.45a1.55,1.55,0,0,1-1.09-.72,37.12,37.12,0,0,1-2.36-5.58l-23.22,15A.56.56,0,0,1,176.58,159.56Z" fill="#231f20"></path><path d="M249.05,220.13q-9,0-22-4.48a150,150,0,0,1-20.71-9.11c-2.09,1.08-16.25,8.18-26,7.51-4.2-.29-16.65-5.76-19.88-9.62A97.4,97.4,0,0,1,125.29,215a.49.49,0,0,1-.54-.45.5.5,0,0,1,.44-.55,96.43,96.43,0,0,0,35.23-10.61.5.5,0,0,1,.64.16c2.38,3.38,14.93,9.23,19.4,9.54,10,.7,25.51-7.43,25.67-7.52a.54.54,0,0,1,.48,0,149.13,149.13,0,0,0,20.8,9.17c10.37,3.59,24.48,6.82,32.88,1.79a.49.49,0,0,1,.69.17.5.5,0,0,1-.17.69A22.72,22.72,0,0,1,249.05,220.13Z" fill="#d1d3d4"></path><path d="M305.55,212.73a.5.5,0,0,1-.18-1L318,206.83a5.75,5.75,0,0,1,6.64.56l.48.3c10.84,6.58,21-1.83,24.9-5.75.38-.38.75-.77,1.1-1.17a.52.52,0,0,1,.49-.16.49.49,0,0,1,.37.36c.76,2.81,4.28,4,7.33,4.11.5,0,1,0,1.5,0a27.53,27.53,0,0,0,17-6.22.5.5,0,0,1,.64.76,28,28,0,0,1-17.62,6.46c-.52,0-1,0-1.56,0-3.11-.15-6.69-1.29-8-4l-.57.6c-8.55,8.65-18.08,10.8-26.14,5.9l-.49-.3a4.86,4.86,0,0,0-5.75-.48l-12.63,4.93A.39.39,0,0,1,305.55,212.73Z" fill="#d1d3d4"></path><path d="M253.31,233.63a46.91,46.91,0,0,1-10.1-1.09.5.5,0,1,1,.22-1A47.56,47.56,0,0,0,280,224.51a3.88,3.88,0,0,1,2.43-.93,3.74,3.74,0,0,1,2,1l.11.09c5,4,12.16,5.21,22,3.71a87.82,87.82,0,0,0,13.77-3.27.5.5,0,0,1,.63.32.5.5,0,0,1-.32.63,88.71,88.71,0,0,1-13.93,3.3c-10.14,1.56-17.59.27-22.78-3.91l-.12-.09a2.92,2.92,0,0,0-1.45-.81,3.1,3.1,0,0,0-1.78.75A48.63,48.63,0,0,1,253.31,233.63Z" fill="#d1d3d4"></path><path d="M172.3,235.19a56.72,56.72,0,0,1-9.82-.86c-6-1.06-10.16-3.08-12.78-6.16a46.38,46.38,0,0,1-29.64,5.52.49.49,0,0,1-.42-.57.5.5,0,0,1,.57-.42,45.32,45.32,0,0,0,29.36-5.61.5.5,0,0,1,.64.12c2.44,3.07,6.51,5.08,12.44,6.13a55.57,55.57,0,0,0,26.67-1.81.49.49,0,0,1,.63.32.5.5,0,0,1-.32.63A56.64,56.64,0,0,1,172.3,235.19Z" fill="#d1d3d4"></path><path d="M214.14,236.92a20.15,20.15,0,0,1-4-.4.51.51,0,0,1-.39-.6.5.5,0,0,1,.59-.38,20,20,0,0,0,17.58-5.21.48.48,0,0,1,.7,0,.5.5,0,0,1,0,.71A20.72,20.72,0,0,1,214.14,236.92Z" fill="#d1d3d4"></path><path d="M48.84,205.77a16.44,16.44,0,0,1-2-.12.5.5,0,0,1-.44-.56.49.49,0,0,1,.56-.43,16.57,16.57,0,0,0,13.07-4.29,2.74,2.74,0,0,1,1.57-.92,2.77,2.77,0,0,1,1.76.62,20.1,20.1,0,0,0,15.55,2.61.5.5,0,0,1,.61.36.51.51,0,0,1-.37.61,21.08,21.08,0,0,1-16.32-2.73,2.11,2.11,0,0,0-1.13-.48,2.13,2.13,0,0,0-1,.63A17.56,17.56,0,0,1,48.84,205.77Z" fill="#d1d3d4"></path><path d="M282.3,245.54a29.57,29.57,0,0,1-7-.82.51.51,0,0,1-.37-.61.49.49,0,0,1,.6-.36,29.64,29.64,0,0,0,22.77-3.89.5.5,0,0,1,.76.54.63.63,0,0,0,.11.58,3.34,3.34,0,0,0,2.26.91,75.69,75.69,0,0,0,19.07-1.14.49.49,0,0,1,.58.4.48.48,0,0,1-.39.58,76.77,76.77,0,0,1-19.32,1.16,4.25,4.25,0,0,1-3-1.32,2.46,2.46,0,0,1-.23-.42A30.69,30.69,0,0,1,282.3,245.54Z" fill="#d1d3d4"></path><path d="M66.11,249.24a.44.44,0,0,1-.22-.05L37,235.14a.49.49,0,0,1-.23-.67.48.48,0,0,1,.66-.23l28.91,14a.5.5,0,0,1,.23.67A.48.48,0,0,1,66.11,249.24Z" fill="#d1d3d4"></path><path d="M86.81,248.07c-.71,0-1.41,0-2.12,0a.5.5,0,0,1,0-1,58.28,58.28,0,0,0,26.39-5.3,6.12,6.12,0,0,1,2.44-.75,6.38,6.38,0,0,1,1.81.34,47.06,47.06,0,0,0,24.22.68.5.5,0,0,1,.61.37.51.51,0,0,1-.37.6,48,48,0,0,1-24.67-.67,5.75,5.75,0,0,0-1.58-.32,5.3,5.3,0,0,0-2,.62A59.22,59.22,0,0,1,86.81,248.07Z" fill="#d1d3d4"></path></g></svg>