<svg xmlns="http://www.w3.org/2000/svg" viewBox="0 0 400 300" width="406" height="306" class="illustration styles_illustrationTablet__1DWOa"><g id="_195_family_flatline" data-name="#195_family_flatline"><path d="M365.59,248H34.41a11.74,11.74,0,0,1-11.73-11.73V63.72A11.74,11.74,0,0,1,34.41,52H365.59a11.74,11.74,0,0,1,11.73,11.73V236.28A11.74,11.74,0,0,1,365.59,248ZM34.41,53A10.75,10.75,0,0,0,23.68,63.72V236.28A10.75,10.75,0,0,0,34.41,247H365.59a10.75,10.75,0,0,0,10.73-10.73V63.72A10.75,10.75,0,0,0,365.59,53Z" fill="#d1d3d4"></path><path d="M354.67,220.6s-.94,6.57,0,7.42,2.06-.94,2.06-.94-.37,4.41,2,3.94a4.87,4.87,0,0,0,3.75-4.79c-.09-2-2.91-7.79-2.91-7.79" fill="#fff"></path><path d="M358.37,231.51a1.67,1.67,0,0,1-1.13-.42,4.22,4.22,0,0,1-1-2.81,1.88,1.88,0,0,1-.88.41,1.26,1.26,0,0,1-1-.33c-1-.91-.44-5.78-.14-7.83a.45.45,0,1,1,.9.13c-.48,3.41-.55,6.63-.14,7a.33.33,0,0,0,.29.1c.4-.05.9-.66,1.08-.95a.46.46,0,0,1,.53-.18.45.45,0,0,1,.31.47c-.06.65-.05,2.65.66,3.29a.82.82,0,0,0,.77.16,4.38,4.38,0,0,0,3.38-4.31c-.07-1.54-2.09-6-2.86-7.62a.45.45,0,1,1,.82-.39c.12.24,2.86,5.92,3,8a5.3,5.3,0,0,1-4.13,5.26A2,2,0,0,1,358.37,231.51Z" fill="#231f20"></path><path d="M300,177s-4.29-9.93-5.85-10.31-4,6.87-4,6.87a75.15,75.15,0,0,1,5.93,6.87,12.77,12.77,0,0,1,.72,1.13C298.22,184.28,300,177,300,177Z" fill="#fff"></path><path d="M297.44,182.63c-.32,0-.74-.16-1.12-.84a10.33,10.33,0,0,0-.69-1.08,76.06,76.06,0,0,0-5.88-6.82.42.42,0,0,1-.11-.46c.78-2.31,2.82-7.62,4.57-7.18s5.14,8.2,6.16,10.58a.45.45,0,0,1,0,.28c-.38,1.6-1.42,5.32-2.83,5.51Zm-6.84-9.17a70.39,70.39,0,0,1,5.77,6.72,12.21,12.21,0,0,1,.75,1.17c.18.32.3.37.32.37.5-.07,1.44-2.23,2-4.67-2-4.63-4.66-9.7-5.48-9.91C293.45,167,291.9,169.72,290.6,173.46Z" fill="#231f20"></path><path d="M332,262.9s.18,5,.84,5.25,10.61,2.44,10.42,1.41-5.63-7.32-5.63-7.32Z" fill="#fff"></path><path d="M342.29,270.27c-2.87,0-9.6-1.67-9.67-1.7-.23-.1-.92-.39-1.11-5.66a.45.45,0,0,1,.4-.47l5.63-.65a.46.46,0,0,1,.4.15c1.29,1.5,5.53,6.47,5.73,7.54a.59.59,0,0,1-.22.58A2.14,2.14,0,0,1,342.29,270.27Zm-9.85-7a15.61,15.61,0,0,0,.62,4.48c.6.24,7.93,1.77,9.6,1.6a68.54,68.54,0,0,0-5.25-6.66Z" fill="#231f20"></path><path d="M328.86,262s.28,6,0,6.1-11.61,1.31-11.25.66S323.7,262,323.7,262" fill="#fff"></path><path d="M319.15,269.34c-1,0-1.72-.07-1.88-.27a.56.56,0,0,1-.06-.57c.37-.68,5.19-5.83,6.16-6.85a.45.45,0,0,1,.64,0,.46.46,0,0,1,0,.65c-1.83,2-4.62,5-5.64,6.19,2,.06,8.59-.58,10.11-.8.07-.79,0-3.37-.1-5.68a.47.47,0,0,1,.44-.48.46.46,0,0,1,.48.44c.29,6.35.06,6.43-.32,6.55C328.93,268.52,322.47,269.34,319.15,269.34Z" fill="#231f20"></path><polygon points="317.81 218.98 321.26 262.9 329.69 262.9 331.96 240.94 331.96 262.9 339.75 264.15 343.75 223.75 317.81 218.98" fill="#231f20"></polygon><path d="M339.75,264.65h-.08l-7.79-1.25a.49.49,0,0,1-.41-.49V250.55L330.18,263a.5.5,0,0,1-.5.44h-8.42a.5.5,0,0,1-.5-.45L317.31,219a.52.52,0,0,1,.16-.41.5.5,0,0,1,.42-.12l25.95,4.77a.49.49,0,0,1,.4.53l-4,40.41a.47.47,0,0,1-.19.34A.5.5,0,0,1,339.75,264.65Zm-7.29-2.18,6.84,1.1,3.91-39.42-24.86-4.56,3.37,42.81h7.52l2.23-21.52a.47.47,0,0,1,.52-.44.5.5,0,0,1,.47.5Z" fill="#231f20"></path><path d="M319.8,188.4s-8.06-2.8-11.05-5.45-8.17-8.12-8.17-8.12L295,180.94a69.21,69.21,0,0,0,8.82,12.39c5.06,5.44,15.9,9.71,15.9,9.71Z" fill="#68e1fd"></path><polygon points="96.15 223.54 90.71 262.59 82.93 262.59 81.92 221.24 96.15 223.54" fill="#fff"></polygon><path d="M90.71,263.09H82.93a.51.51,0,0,1-.5-.49l-1-41.34a.48.48,0,0,1,.17-.39.5.5,0,0,1,.41-.12l14.23,2.3a.49.49,0,0,1,.41.56l-5.44,39A.5.5,0,0,1,90.71,263.09Zm-7.29-1h6.85L95.59,224l-13.16-2.13Z" fill="#231f20"></path><path d="M82.93,262.59v4.13S101.41,269,101.26,268s-10.55-5.39-10.55-5.39Z" fill="#231f20"></path><path d="M99.41,268.69c-3.5,0-10.5-.74-16.54-1.48a.49.49,0,0,1-.43-.49v-4.13a.49.49,0,0,1,.49-.5h7.78a.43.43,0,0,1,.19,0c7.08,3,10.74,4.94,10.86,5.78a.69.69,0,0,1-.17.49A4.31,4.31,0,0,1,99.41,268.69Zm-16-2.42c6.95.84,14.53,1.56,16.87,1.46a87.55,87.55,0,0,0-9.7-4.65H83.43Z" fill="#231f20"></path><polygon points="64.67 223.54 70.12 262.59 77.89 262.59 79.27 221.24 64.67 223.54" fill="#fff"></polygon><path d="M77.89,263.09H70.12a.51.51,0,0,1-.5-.44l-5.44-39a.5.5,0,0,1,.42-.56l14.59-2.3a.5.5,0,0,1,.41.12.52.52,0,0,1,.17.39L78.39,262.6A.51.51,0,0,1,77.89,263.09Zm-7.34-1h6.86l1.34-40.26L65.24,224Z" fill="#231f20"></path><path d="M101.11,156.28a6.49,6.49,0,0,1-.61,2.85,11.88,11.88,0,0,1-11,6.91c-3.46-.1-6.45-3.17-8.43-5.79-4.54-6-5.26-15.35-.33-21.37,1.78-2.18,3.29-4.49,6.27-5a7.42,7.42,0,0,1,6.16,1.68c2,1.77,2.92,4.49,3.46,7.12s.83,5.37,2,7.79C99.74,152.66,101,154.23,101.11,156.28Z" fill="#fff"></path><path d="M89.87,166.55h-.33c-2.91-.09-5.88-2.1-8.82-6-5-6.63-5.15-16.09-.32-22,.21-.25.41-.5.61-.76,1.54-1.93,3.14-3.94,5.95-4.46a7.88,7.88,0,0,1,6.59,1.79c2.27,2,3.13,5,3.62,7.4.12.6.23,1.2.34,1.8a22.88,22.88,0,0,0,1.61,5.87c.3.63.62,1.2.92,1.75a9.6,9.6,0,0,1,1.57,4.31h0a6.85,6.85,0,0,1-.66,3.07A12.35,12.35,0,0,1,89.87,166.55Zm-1.52-32.34a6.78,6.78,0,0,0-1.2.11c-2.45.46-3.86,2.23-5.36,4.11l-.61.76c-4.48,5.48-4.33,14.6.34,20.76,2.75,3.63,5.45,5.51,8,5.59A11.26,11.26,0,0,0,100,158.93a5.91,5.91,0,0,0,.57-2.63h0a8.89,8.89,0,0,0-1.44-3.87c-.32-.56-.64-1.15-1-1.79a23.68,23.68,0,0,1-1.69-6.13c-.11-.59-.22-1.19-.34-1.78-.46-2.25-1.25-5.06-3.3-6.84A7,7,0,0,0,88.35,134.21Z" fill="#231f20"></path><path d="M90.52,164.23s7.84,13.7,9.71,14.83l10.19-11.82,4.41,4.22s-9.7,18.3-15.49,17.08-13.7-15-13.7-15" fill="#fff"></path><path d="M99.9,189.1a3.7,3.7,0,0,1-.66-.07c-5.94-1.25-13.71-14.69-14-15.26a.5.5,0,0,1,.86-.5c.08.14,7.87,13.62,13.37,14.78,4.37.93,12-11.29,14.77-16.49l-3.76-3.6-9.84,11.43a.5.5,0,0,1-.63.1c-1.94-1.16-9.09-13.6-9.89-15A.5.5,0,1,1,91,164c2.91,5.09,7.55,12.73,9.22,14.39L110,166.91a.51.51,0,0,1,.35-.17.44.44,0,0,1,.37.14l4.41,4.22a.5.5,0,0,1,.1.59C114.29,173.53,105.87,189.1,99.9,189.1Z" fill="#231f20"></path><path d="M291.89,123s4.33,40.65,4.67,41.2a9,9,0,0,1,1,6c-.5,3.35-2.81,6.65-3.55,7s-4.82.31-4.87-.53,1.87-1.35,3-1.9,3.23-3.11,2.76-4.54-2.62-2.39-3.14-2.12-2.25,4.12-3.44,3.32.66-3.49,1.33-5.55S281.25,125,281.25,125" fill="#fff"></path><path d="M292.11,177.86a6.89,6.89,0,0,1-3-.5.83.83,0,0,1-.43-.65c-.06-1,1.16-1.46,2.34-1.94.32-.13.63-.26.9-.39,1-.49,2.9-2.87,2.52-4a3.39,3.39,0,0,0-2.51-1.86c-.06.07-.36.52-.59.88-.69,1.06-1.55,2.39-2.47,2.57a1.11,1.11,0,0,1-.83-.16c-1.16-.79-.37-2.54.39-4.22.28-.63.57-1.28.76-1.86.42-1.59-4.77-25.16-8.37-40.62a.47.47,0,0,1,.34-.55.47.47,0,0,1,.55.35c.93,4,9,39,8.35,41.11a18.12,18.12,0,0,1-.8,1.94c-.55,1.22-1.23,2.73-.7,3.09a.15.15,0,0,0,.13,0c.54-.11,1.38-1.41,1.88-2.18s.7-1.06,1-1.2a1.84,1.84,0,0,1,1.39.13,4.19,4.19,0,0,1,2.39,2.26c.59,1.76-1.82,4.51-3,5.09-.28.14-.61.28-.95.42-.55.23-1.65.68-1.77,1a9.42,9.42,0,0,0,4.24.19c.47-.2,2.77-3.25,3.27-6.6a8.59,8.59,0,0,0-.92-5.71c-.35-.56-3.11-26.18-4.73-41.4a.46.46,0,0,1,.41-.5.47.47,0,0,1,.5.41c1.7,16,4.33,40.07,4.63,41.08a9.28,9.28,0,0,1,1,6.25c-.5,3.36-2.84,6.92-3.83,7.32A7.24,7.24,0,0,1,292.11,177.86Z" fill="#231f20"></path><path d="M222.57,121.53s-9.79,30.3-12.74,35.76-5,8.16-4.82,9.85,1,4.1,3.75,2.71,4.21-1.49,6.29-5.71C215.93,162.35,232,127,232,127" fill="#fff"></path><path d="M207.29,170.72a2.16,2.16,0,0,1-1.06-.26c-1.21-.65-1.57-2.33-1.67-3.27-.15-1.33.85-3.06,2.5-5.92.7-1.2,1.49-2.57,2.37-4.2,2.89-5.36,12.61-35.38,12.7-35.68a.47.47,0,0,1,.58-.3.46.46,0,0,1,.29.58c-.4,1.24-9.83,30.4-12.76,35.83-.89,1.65-1.69,3-2.39,4.23-1.51,2.61-2.5,4.33-2.39,5.36.07.62.33,2.1,1.21,2.57a2,2,0,0,0,1.89-.22c.43-.22.83-.41,1.21-.59,2-.93,3.19-1.5,4.87-4.91.87-1.76,16.73-36.8,16.89-37.16a.46.46,0,0,1,.83.38c-.65,1.44-16,35.41-16.9,37.18-1.82,3.7-3.28,4.39-5.3,5.34-.37.17-.76.36-1.19.58A3.74,3.74,0,0,1,207.29,170.72Z" fill="#231f20"></path><path d="M204,143.49s5.33,13.42,5.85,13.8a8.87,8.87,0,0,1,3.25,5.16c.85,3.28,0,7.22-.56,7.79s-4.32,2.16-4.69,1.41,1.19-2,2-2.91,1.77-4.13.77-5.26-3.34-1.19-3.71-.74-.47,4.68-1.88,4.4-.75-3.47-.94-5.63-7.88-13.7-7.88-13.7" fill="#fff"></path><path d="M208.32,172.3l-.26,0a.81.81,0,0,1-.64-.43c-.43-.86.49-1.79,1.39-2.7.24-.25.48-.49.68-.71.72-.84,1.55-3.77.77-4.66a3.37,3.37,0,0,0-3-.73c0,.08-.12.61-.2,1-.22,1.25-.5,2.8-1.27,3.33a1.06,1.06,0,0,1-.83.17c-1.37-.28-1.33-2.19-1.28-4,0-.69,0-1.4,0-2-.13-1.5-4.74-8.89-7.81-13.49a.46.46,0,0,1,.76-.51c.79,1.19,7.76,11.71,8,13.92a20.84,20.84,0,0,1,0,2.1c0,1.34-.07,3,.55,3.12a.15.15,0,0,0,.14,0c.45-.31.72-1.82.88-2.73a3.48,3.48,0,0,1,.42-1.48,1.82,1.82,0,0,1,1.32-.43,4.21,4.21,0,0,1,3.09,1.16c1.22,1.39.08,4.87-.77,5.85-.21.24-.46.5-.72.76-.42.42-1.25,1.27-1.24,1.59a9.08,9.08,0,0,0,4-1.47c.35-.36,1.28-4.07.44-7.35a8.56,8.56,0,0,0-3.07-4.9c-.53-.38-3.56-7.82-6-14a.46.46,0,1,1,.85-.34c2,5,5.27,13.05,5.75,13.64a9.26,9.26,0,0,1,3.37,5.37c.85,3.29.07,7.48-.68,8.23A10.08,10.08,0,0,1,208.32,172.3Z" fill="#231f20"></path><path d="M116,141s-3.85,18.16-4.36,18.56a9,9,0,0,0-3,5.34c-.66,3.33.41,7.21,1,7.74s4.43,1.91,4.76,1.14-1.31-1.9-2.17-2.79-2-4-1.07-5.2,3.27-1.38,3.67-.95.74,4.65,2.13,4.28.55-3.51.61-5.67,5.89-17.26,5.89-17.26" fill="#fff"></path><path d="M113.91,174.43a10.18,10.18,0,0,1-4.48-1.49c-.79-.7-1.8-4.84-1.15-8.17a9.44,9.44,0,0,1,3.06-5.56c.48-1,2.85-11.74,4.25-18.35a.45.45,0,0,1,.54-.35.46.46,0,0,1,.36.54c-3.89,18.32-4.37,18.7-4.52,18.83a8.51,8.51,0,0,0-2.79,5.07c-.66,3.32.48,7,.86,7.31a9.13,9.13,0,0,0,4,1.24c0-.32-.89-1.12-1.33-1.52-.27-.24-.54-.48-.76-.71-.9-.94-2.24-4.35-1.1-5.8a4.24,4.24,0,0,1,3-1.33,1.83,1.83,0,0,1,1.35.35,3.68,3.68,0,0,1,.49,1.45c.22.9.57,2.4,1,2.68a.17.17,0,0,0,.14,0c.61-.16.48-1.81.37-3.15,0-.71-.11-1.44-.09-2.09.06-2.22,5.67-16.8,5.91-17.42a.46.46,0,0,1,.59-.26.45.45,0,0,1,.26.59c-1.61,4.18-5.8,15.4-5.85,17.11a20,20,0,0,0,.09,2c.15,1.85.31,3.75-1,4.11a1.08,1.08,0,0,1-.84-.13c-.8-.48-1.16-2-1.45-3.25a7.36,7.36,0,0,0-.3-1.06,3.53,3.53,0,0,0-3,.94c-.73.93.28,3.81,1,4.6.21.22.46.44.72.68.94.85,1.92,1.73,1.54,2.61a.82.82,0,0,1-.62.47A2.34,2.34,0,0,1,113.91,174.43Z" fill="#231f20"></path><path d="M172.44,258.08s-1.87,5.79-1,6.45,17.18,4.63,18.4,4.54,4.69-.57,4.69-1.51-13.62-9.48-13.62-9.48" fill="#fff"></path><path d="M189.78,269.52c-1.78,0-17.8-4-18.65-4.63s0-4.17.88-6.95a.45.45,0,0,1,.57-.29.46.46,0,0,1,.3.58c-.91,2.8-1.45,5.53-1.17,6,.94.6,16.88,4.52,18.06,4.42,1.92-.15,3.9-.62,4.24-1-.81-1-7.38-5.37-13.37-9.13a.45.45,0,0,1-.14-.63.44.44,0,0,1,.62-.14C195,266.37,195,267.27,195,267.56c0,1.45-3.92,1.87-5.12,2Zm4.29-1.83Z" fill="#231f20"></path><path d="M157.89,258.08s3.38,5.79,2.11,6.49-18.16,5.2-19.15,5.06-6-.56-5.35-1.83,15.07-10.41,15.07-10.41Z" fill="#fff"></path><path d="M140.88,270.09h-.09l-.49-.06c-2.82-.33-4.79-.73-5.22-1.59a.89.89,0,0,1,0-.85c.73-1.31,12.81-9,15.22-10.57a.5.5,0,0,1,.29-.07l7.32.69a.45.45,0,0,1,.35.22c.48.82,2.83,5,2.4,6.5a.91.91,0,0,1-.46.62C159.11,265.59,142.73,270.09,140.88,270.09Zm9.8-12.23c-5.49,3.5-14.25,9.28-14.78,10.16.07.17.66.64,4.51,1.09l.51.07h0c1.26,0,17.66-4.35,18.84-5,.33-.32-.55-2.83-2.17-5.66Z" fill="#231f20"></path><polygon points="137.26 143.24 146.7 258.08 159.46 258.08 159.28 164.61 171.23 259.46 183.24 259.46 180.88 142.46 137.26 143.24" fill="#231f20"></polygon><path d="M183.24,260h-12a.51.51,0,0,1-.5-.44L159.8,172.67l.16,85.41a.49.49,0,0,1-.15.36.5.5,0,0,1-.35.14H146.7a.5.5,0,0,1-.5-.46l-9.44-114.84a.46.46,0,0,1,.13-.37.49.49,0,0,1,.36-.17l43.62-.78a.5.5,0,0,1,.51.49l2.35,117a.46.46,0,0,1-.14.36A.51.51,0,0,1,183.24,260Zm-11.57-1h11.06l-2.34-116-42.59.77,9.36,113.86H159l-.17-93a.49.49,0,0,1,.46-.5.49.49,0,0,1,.53.43Z" fill="#231f20"></path><path d="M149.8,76.26s-15.36,2-18.74,5.19S116.24,137.38,111,149.76l11.44,5.82,11.07-40.27,1.94,33.46h47.42l-1.29-33.46s8.06,24.07,14.81,38l12.38-7.6s-20.08-46.95-22.71-60S149.8,76.26,149.8,76.26Z" fill="#68e1fd"></path><path d="M93.42,159.61s-21.85-4-26.16-.26,1.12,34.72,1.12,34.72l26.75-3S101.47,169.83,93.42,159.61Z" fill="#68e1fd"></path><path d="M68.44,164.23s-9.95,11.31-11.5,11.68-7.85-13.12-7.85-13.12l-6.84,5s8.72,19.9,12.29,21.4S80.88,170.11,68.44,164.23Z" fill="#fff"></path><path d="M55,189.76a1.48,1.48,0,0,1-.61-.11C50.7,188.12,42.7,170,41.8,168a.5.5,0,0,1,.16-.61l6.84-5a.57.57,0,0,1,.42-.08.54.54,0,0,1,.33.28c2.77,6,6.37,12.56,7.35,12.84.83-.24,6.35-6,11.17-11.52a.49.49,0,0,1,.59-.12c4,1.9,5,5.46,2.86,10.28C68.36,181.14,58.51,189.76,55,189.76ZM42.87,168c2.54,5.74,9.15,19.64,11.86,20.78,1.72.73,12.34-7.16,15.88-15.08,1.86-4.16,1.17-7.12-2-8.8-2.14,2.42-10,11.17-11.51,11.55s-5.24-6.65-8.15-12.85Z" fill="#231f20"></path><path d="M87.58,157l.24,6.29s-.86,1.85-6,.4-5.14-3.85-5.14-3.85-.19-11.77-.19-11.78c0-.62.28-6.71.18-12.11,6.28-.1,11.9-.63,11.9-.63-.61.61,1.63.71,1.62.71a9.41,9.41,0,0,1,3,.45c.36,3.62,2.19,13.65,1.75,15.75C94.06,156.22,87.58,157,87.58,157Z" fill="#fff"></path><path d="M85.22,164.69a13.44,13.44,0,0,1-3.56-.58c-5.45-1.52-5.47-4.19-5.47-4.3C76,148.05,76,148.05,76,148c.09-2.11.27-7.36.18-12.1a.51.51,0,0,1,.13-.33.46.46,0,0,1,.32-.13c6.2-.1,11.81-.63,11.87-.63a.45.45,0,0,1,.46.26.42.42,0,0,1,0,.27,5,5,0,0,0,1.19.17,9.83,9.83,0,0,1,3.11.48.46.46,0,0,1,.3.39c.12,1.15.39,3,.68,5,.65,4.4,1.38,9.39,1.07,10.89-.77,3.71-5.78,4.82-7.29,5.07l.23,5.88a.54.54,0,0,1,0,.22C88.16,163.63,87.58,164.68,85.22,164.69ZM77.1,136.38C77.17,141,77,146,76.92,148c0,.1.18,11.81.18,11.81s.11,2.11,4.81,3.42c4,1.13,5.2.19,5.45-.09L87.12,157a.46.46,0,0,1,.4-.47c.06,0,6.17-.76,6.93-4.4.28-1.35-.48-6.47-1.08-10.58-.27-1.82-.52-3.55-.66-4.74a9.33,9.33,0,0,0-2.56-.33h0c-.47,0-1.75-.13-2.07-.62,0,0,0,0,0,0C86.56,135.93,82.06,136.28,77.1,136.38Z" fill="#231f20"></path><path d="M87.16,146.11c.68,1.2,1.35,2.62,1,3-.65.71-2.47.24-2.47.24" fill="#fff"></path><path d="M86.88,150a5.77,5.77,0,0,1-1.33-.17.5.5,0,0,1,.25-1c.62.16,1.67.24,2-.09h0a6.94,6.94,0,0,0-1-2.42.5.5,0,1,1,.87-.49c1.41,2.49,1.27,3.2.92,3.59A2.22,2.22,0,0,1,86.88,150Z" fill="#231f20"></path><path d="M80.08,160.14a6.46,6.46,0,0,1-2,2.44,13.55,13.55,0,0,1-5.56,2.49,12.72,12.72,0,0,1-7.63-.26c-2.23-.91-4.59-3.18-4.06-5.75a77.94,77.94,0,0,1,2.65-8.41c2.79-8.43,4.21-21.45,14.67-23.39,7.88-1.46,13,.44,16.23,4.53,3.91,5,2.5,11.7-4.89,8.48a7.34,7.34,0,0,1-4.12-4.87,12.91,12.91,0,0,1-4.13,5.52,7.61,7.61,0,0,0-1.77,1.57c-2.17,3.1-1.07,7.53-.25,10.89C79.89,156.11,80.92,158.11,80.08,160.14Z" fill="#fff"></path><path d="M68.82,166a10.82,10.82,0,0,1-4.11-.75c-2.59-1.05-4.93-3.56-4.36-6.31a47.41,47.41,0,0,1,1.88-6.18c.27-.77.54-1.54.79-2.28.49-1.5.94-3.12,1.41-4.84,2.22-8.08,4.74-17.24,13.64-18.89,7.53-1.39,13.16.19,16.71,4.71,2.36,3,2.93,6.66,1.35,8.7-.75,1-2.65,2.37-6.83.55a7.92,7.92,0,0,1-4-4,13.4,13.4,0,0,1-3.76,4.57l-.37.27a5.76,5.76,0,0,0-1.3,1.19c-2,2.87-1,7-.21,10.37l0,.12c.16.64.33,1.24.5,1.82.56,1.89,1,3.53.33,5.24h0A6.91,6.91,0,0,1,78.4,163a13.85,13.85,0,0,1-5.76,2.6A17.13,17.13,0,0,1,68.82,166Zm14.32-38.75a27.29,27.29,0,0,0-4.89.48c-8.28,1.54-10.71,10.38-12.86,18.18-.47,1.73-.92,3.36-1.43,4.88-.24.75-.52,1.52-.79,2.3a47.3,47.3,0,0,0-1.84,6c-.45,2.19,1.6,4.31,3.76,5.19a12.17,12.17,0,0,0,7.33.23,12.87,12.87,0,0,0,5.35-2.39A6.09,6.09,0,0,0,79.62,160c.57-1.39.16-2.8-.37-4.58-.17-.59-.35-1.21-.51-1.87l0-.12c-.81-3.35-1.92-7.93.36-11.17a6.57,6.57,0,0,1,1.52-1.42l.36-.27a12.25,12.25,0,0,0,4-5.3.5.5,0,0,1,.5-.32.49.49,0,0,1,.45.38,6.86,6.86,0,0,0,3.84,4.53c2.63,1.15,4.64,1.06,5.64-.24,1.28-1.66.7-4.87-1.34-7.47C91.45,128.87,87.88,127.27,83.14,127.27Zm-3.06,32.87h0Z" fill="#231f20"></path><path d="M86.79,152.88a5.6,5.6,0,0,1-4.09-2.12.5.5,0,0,1,0-.71.51.51,0,0,1,.71,0A4.49,4.49,0,0,0,87,151.87a5.34,5.34,0,0,0,3.46-2.12.51.51,0,0,1,.7-.11.5.5,0,0,1,.12.69,6.3,6.3,0,0,1-4.22,2.54Z" fill="#231f20"></path><path d="M87.58,157s-4.2,0-5.79-1.4c0,0,1.55,2,6,4.69Z" fill="#231f20"></path><path d="M87.82,160.77a.59.59,0,0,1-.25-.07c-4.52-2.66-6.11-4.73-6.18-4.82a.5.5,0,0,1,.73-.67c1.18,1.07,4.33,1.28,5.45,1.27h0a.49.49,0,0,1,.49.46l.25,3.29a.49.49,0,0,1-.23.46A.5.5,0,0,1,87.82,160.77Zm-3.71-3.65a30.46,30.46,0,0,0,3.14,2.22l-.14-1.87A17.09,17.09,0,0,1,84.11,157.12Z" fill="#231f20"></path><path d="M88.73,145a.48.48,0,0,1-.24-.06.5.5,0,0,1-.2-.68c.51-.95,1.12-1.44,1.81-1.48a2.25,2.25,0,0,1,1.77,1,.5.5,0,0,1-.83.56c-.11-.16-.49-.59-.87-.59h0c-.31,0-.66.36-1,1A.5.5,0,0,1,88.73,145Z" fill="#231f20"></path><path d="M82.08,145a.53.53,0,0,1-.24-.06.5.5,0,0,1-.2-.68c.51-.95,1.12-1.44,1.82-1.48a2.19,2.19,0,0,1,1.76,1,.49.49,0,0,1-.14.69.5.5,0,0,1-.69-.13,1.32,1.32,0,0,0-.86-.59h0c-.31,0-.66.36-1,1A.49.49,0,0,1,82.08,145Z" fill="#231f20"></path><path d="M50.15,166.89c1-2.9.28-7.24-.45-9.5A10.85,10.85,0,0,0,49,155.7a2.71,2.71,0,0,0-1.22-1.26.67.67,0,0,0-.73.08,1,1,0,0,0-.18.72,18.8,18.8,0,0,0,.59,3.64A10.82,10.82,0,0,1,46.7,156a26.3,26.3,0,0,0-1-3.36c-.16-.54-.38-1.39-1-1.62-1.29-.51-.83,2.41-.78,3a16.57,16.57,0,0,0,.94,4.11c-.38-1.06-.76-2.12-1.15-3.18a14.75,14.75,0,0,0-.92-2.64c-.15-.28-.37-.57-.68-.6a.71.71,0,0,0-.65.47,2,2,0,0,0-.06.85c.1.95.29,1.91.48,2.85a18.61,18.61,0,0,0,1,2.94c-.73-2-1.53-3.9-2.25-5.88a1.2,1.2,0,0,0-.4-.62.79.79,0,0,0-1.07.4,2.08,2.08,0,0,0-.08,1.26,30.53,30.53,0,0,0,1.41,5.2l-1.08-2.94c-.15-.4-.39-1.2-.89-1.28s-.91.41-1,.78a2.74,2.74,0,0,0,.07,1.36c.9,3.82,2.48,9.14,5.17,12" fill="#fff"></path><path d="M42.84,169.55a.47.47,0,0,1-.33-.14c-2.14-2.27-3.91-6.38-5.28-12.21a3,3,0,0,1-.07-1.59,1.56,1.56,0,0,1,1.53-1.1l.11,0c0-.16,0-.32-.08-.48a2.62,2.62,0,0,1,.13-1.54,1.4,1.4,0,0,1,.86-.7,1.09,1.09,0,0,1,.87.12,1.27,1.27,0,0,1,.43.5,1.17,1.17,0,0,1,.1-.41,1.12,1.12,0,0,1,1.1-.76,1.43,1.43,0,0,1,1,.82c.05.1.11.2.15.3a2.14,2.14,0,0,1,.53-1.68,1,1,0,0,1,1-.09c.76.3,1,1.23,1.21,1.85.12.41.24.76.36,1.12l.21.65,0,0A1.11,1.11,0,0,1,48,154a3.16,3.16,0,0,1,1.43,1.46,10.9,10.9,0,0,1,.71,1.77c.65,2,1.58,6.6.45,9.79a.46.46,0,1,1-.87-.31c1-2.74.27-7-.45-9.19a9.74,9.74,0,0,0-.64-1.62,2.29,2.29,0,0,0-1-1.07.25.25,0,0,0-.21,0s-.06.12,0,.38a18.73,18.73,0,0,0,.57,3.56.45.45,0,0,1-.86.28,11.68,11.68,0,0,1-.82-3,12.45,12.45,0,0,0-.6-2.2c-.12-.37-.25-.73-.35-1.09s-.34-1.19-.69-1.32a.27.27,0,0,0-.11,0c-.07,0-.29.39-.07,2.33l0,.21a16.06,16.06,0,0,0,.82,3.77l.09.23a.47.47,0,0,1-.28.59.46.46,0,0,1-.58-.27l-.09-.24-1.06-2.94c-.12-.34-.21-.67-.3-1a6.63,6.63,0,0,0-.59-1.59c-.18-.33-.29-.36-.32-.36s-.14.06-.18.18a1.45,1.45,0,0,0,0,.63c.09.89.27,1.81.44,2.69l0,.12c.05.24.11.48.18.71.28.71.56,1.43.83,2.15h0a.46.46,0,0,1-.27.59.44.44,0,0,1-.58-.27l-.33-.82c-.18-.44-.36-.88-.51-1.35-.06-.17-.13-.33-.19-.5-.42-1.07-.84-2.13-1.23-3.21a1,1,0,0,0-.22-.4.15.15,0,0,0-.13,0,.49.49,0,0,0-.28.23,1.74,1.74,0,0,0,0,1A30,30,0,0,0,41,159a.46.46,0,0,1-.28.58.45.45,0,0,1-.58-.28L39,156.28c-.2-.56-.36-.85-.49-.87s-.44.24-.51.46a2.28,2.28,0,0,0,.08,1.12c1.33,5.68,3,9.64,5.05,11.79a.46.46,0,0,1,0,.65A.47.47,0,0,1,42.84,169.55Z" fill="#231f20"></path><path d="M47.48,158.88s-2.93-.56-2.92,3.91" fill="#fff"></path><path d="M44.56,163.25a.46.46,0,0,1-.45-.46,4.64,4.64,0,0,1,1.3-3.76,2.75,2.75,0,0,1,2.15-.59.45.45,0,1,1-.16.89h0a1.88,1.88,0,0,0-1.42.41,3.94,3.94,0,0,0-1,3,.46.46,0,0,1-.45.46Z" fill="#231f20"></path><path d="M319.8,188.4s21.9-.06,25.7,3.23-1,32.48-1,32.48L316.84,222S314.12,202.71,319.8,188.4Z" fill="#68e1fd"></path><path d="M267.17,57.78a13.92,13.92,0,0,0-.83-1.42c-2.1-3.14-2.91-1.45-5.9-2.5-5.14-1.81-7.54-6.15-14-3.43-6.05,2.55-10,6.76-10.91,13.51-.62,4.68.55,9.62-1.08,14-1.9,5.16-7.16,8.41-9.49,13.39s-1.28,11.11,2,15.49a21.65,21.65,0,0,0,13.9,8,36.08,36.08,0,0,0,16.19-1.5c4.09-1.24,8.12-3,11.14-6,6.95-6.9,7.54-17.32,5.36-26.27L270.47,68.4C269.69,65.15,268.8,61,267.17,57.78Z" fill="#fff"></path><path d="M245.47,115.69a29,29,0,0,1-4.71-.37,22.1,22.1,0,0,1-14.21-8.15c-3.56-4.77-4.37-11-2.05-16a27.77,27.77,0,0,1,4.64-6.36c2-2.23,3.86-4.34,4.84-7s.91-5.38.87-8.32a37.94,37.94,0,0,1,.19-5.63c.87-6.54,4.54-11.09,11.21-13.9,4.71-2,7.43-.36,10.3,1.37a22.57,22.57,0,0,0,4.05,2,7.2,7.2,0,0,0,2.39.39c1.41,0,2.35.18,3.76,2.3a12.66,12.66,0,0,1,.86,1.47h0a44,44,0,0,1,3.07,9.57L274,80.92c2.65,10.89.64,20.64-5.49,26.74-2.68,2.66-6.29,4.61-11.35,6.15A40.69,40.69,0,0,1,245.47,115.69Zm4.82-65.63a9.28,9.28,0,0,0-3.65.83c-6.32,2.66-9.79,7-10.61,13.11a37.19,37.19,0,0,0-.18,5.49c0,2.89.09,5.88-.93,8.67s-3.07,5.11-5,7.31a26.59,26.59,0,0,0-4.48,6.12c-2.13,4.55-1.35,10.57,1.94,15a21.15,21.15,0,0,0,13.58,7.75,35.59,35.59,0,0,0,16-1.48c4.9-1.48,8.38-3.36,10.93-5.9,8.36-8.3,6.44-20.8,5.23-25.79l-3.35-13.81a43.42,43.42,0,0,0-3-9.35h0a12.21,12.21,0,0,0-.8-1.36c-1.2-1.8-1.83-1.82-3-1.86a8.19,8.19,0,0,1-2.69-.45A22.6,22.6,0,0,1,256,52.19C254.18,51.08,252.49,50.06,250.29,50.06Z" fill="#231f20"></path><path d="M253.16,252s1.69,11.69,1.27,12.25-4.23.7-4.23.7v-2.53s-1.54,2.81-4.08,3.38-15.77.84-15.63,0,3.66-1.3,12.67-6.63l1-11.39" fill="#231f20"></path><path d="M236.15,266.86c-3,0-5.51-.15-6-.58a.76.76,0,0,1-.19-.54c.11-.62.75-.9,2.46-1.63a85,85,0,0,0,10.23-5.21l1-11.14a.5.5,0,0,1,1,.09l-1,11.39a.47.47,0,0,1-.24.38,84.84,84.84,0,0,1-10.57,5.4c-.54.23-1.07.46-1.43.64,2.61.36,12.27.2,14.59-.32s3.74-3.11,3.76-3.13a.49.49,0,0,1,.56-.24.48.48,0,0,1,.37.48v2A13.52,13.52,0,0,0,254,264a113.35,113.35,0,0,0-1.32-11.89.49.49,0,0,1,1-.14c1.72,11.89,1.31,12.44,1.18,12.62-.47.62-2.77.83-4.61.9a.6.6,0,0,1-.36-.14.48.48,0,0,1-.15-.36v-1a6.67,6.67,0,0,1-3.48,2.3A77.32,77.32,0,0,1,236.15,266.86ZM254,264.08Z" fill="#231f20"></path><path d="M266.37,251.94s-.16,11.78.27,12.34,4.22.7,4.22.7v-2.53s1.55,2.81,4.08,3.38,15.77.84,15.63,0-3.66-1.3-12.67-6.63l-1.37-6.65" fill="#231f20"></path><path d="M284.91,266.86a77.45,77.45,0,0,1-10.08-.55,6.64,6.64,0,0,1-3.47-2.3v1a.51.51,0,0,1-.15.36.53.53,0,0,1-.37.14c-1.84-.07-4.13-.28-4.6-.9-.35-.47-.47-4.72-.37-12.65a.51.51,0,0,1,.5-.49h0a.5.5,0,0,1,.49.51c-.07,5.23,0,11.11.19,12a12.69,12.69,0,0,0,3.3.48v-2a.5.5,0,0,1,.94-.24s1.47,2.62,3.75,3.13,12,.68,14.61.32c-.36-.17-.9-.4-1.45-.64a84.23,84.23,0,0,1-10.56-5.4.51.51,0,0,1-.24-.32L276,252.65a.49.49,0,0,1,.39-.59.49.49,0,0,1,.58.39l1.33,6.43a84.92,84.92,0,0,0,10.27,5.23c1.71.73,2.35,1,2.45,1.64a.7.7,0,0,1-.18.53C290.42,266.71,287.87,266.86,284.91,266.86Zm-17.83-2.81Z" fill="#231f20"></path><path d="M253.14,201.77H237.23c2.32,21.37,5.48,43.33,6.26,50.68l9.67-.42S252.94,224.18,253.14,201.77Z" fill="#fff"></path><path d="M243.49,252.91a.46.46,0,0,1-.45-.41c-.3-2.79-.94-7.67-1.74-13.85-1.3-9.94-3.08-23.57-4.52-36.83a.41.41,0,0,1,.11-.35.45.45,0,0,1,.34-.15h15.91a.42.42,0,0,1,.32.13.45.45,0,0,1,.14.33c-.2,22.14,0,50,0,50.25a.46.46,0,0,1-.44.46l-9.67.42Zm-5.75-50.68c1.43,13.09,3.18,26.49,4.46,36.3.77,5.89,1.39,10.59,1.7,13.45l8.8-.39c0-3.62-.2-28.82,0-49.36Z" fill="#231f20"></path><path d="M262.56,201.77c1.71,22.31,3.81,50.17,3.81,50.17l10.16.61s1-27.46,1.74-50.78Z" fill="#fff"></path><path d="M276.53,253h0l-10.16-.6a.45.45,0,0,1-.42-.43s-2.11-27.85-3.81-50.16a.45.45,0,0,1,.45-.49h15.71a.46.46,0,0,1,.46.47c-.79,23.32-1.75,50.77-1.75,50.77a.46.46,0,0,1-.45.44Zm-9.73-1.49,9.29.55c.12-3.68,1-28.4,1.71-49.83H263.06C264.63,222.89,266.54,248.06,266.8,251.51Z" fill="#231f20"></path><path d="M279.72,130c.08-1.14,13.14-4.69,13.14-4.69-5.36-17.1-6.28-23.74-13.6-32.19-4.45-5.14-39-11.3-47.41,1.13-7.6,11.18-13.32,31.53-13.32,31.53l13.89,6,2.6-6.91A81.52,81.52,0,0,0,236.46,142c-2.85,29.93-5.64,78.86-6.11,89.41,0,0,8.36,3,30,3s32.47-3.09,32.47-3.09-9.18-59.41-10.13-68.8-5.84-21.6-5.84-21.6l2.37-17.82S276.35,119.14,279.72,130Z" fill="#68e1fd"></path><path d="M250,87l-.28,6.57s1.12,5,7.35,4.37c5.75-.59,6.77-4.1,6.77-4.1l.94-18.31c0-.46-.14-3.28-.22-6.92-3.83.26-9.41-2.58-12.36-8.65-1.88,3.23-4.05,5.4-9.53,7.52.14,6.19-.74,13-.38,14.76C243.37,87.34,250,87,250,87Z" fill="#fff"></path><path d="M256,98.46a6.61,6.61,0,0,1-6.74-4.78.49.49,0,0,1,0-.12l.27-6.09c-1.63,0-6.73-.57-7.68-5.13a30.77,30.77,0,0,1,.08-5.72c.16-2.67.35-6,.28-9.12a.47.47,0,0,1,.29-.44c5.45-2.1,7.53-4.28,9.3-7.32a.49.49,0,0,1,.41-.23.47.47,0,0,1,.4.26c2.81,5.79,8.28,8.64,11.92,8.4a.45.45,0,0,1,.34.11.53.53,0,0,1,.15.33c0,1.57.09,4,.21,6.82,0,0,0,.1,0,.11s0,0-.94,18.33a.43.43,0,0,1,0,.11c0,.15-1.18,3.81-7.16,4.42A10.9,10.9,0,0,1,256,98.46Zm-5.83-4.92c.14.54,1.36,4.51,6.84,3.95,5.06-.51,6.22-3.32,6.37-3.73.06-1.14.93-18.12.93-18.24-.11-2.58-.17-4.85-.21-6.43h-.05c-3.86,0-8.93-2.74-11.9-8.2-1.75,2.81-4,4.9-9,6.9.05,3.06-.14,6.27-.29,8.87a34.13,34.13,0,0,0-.1,5.49c1,4.64,7,4.4,7.24,4.39a.44.44,0,0,1,.34.14.48.48,0,0,1,.14.34Z" fill="#231f20"></path><path d="M252,71s-3.47,5.19-2.64,6.09,3.14.3,3.14.3" fill="#fff"></path><path d="M250.94,78.11a2.63,2.63,0,0,1-2-.66c-.95-1,1.22-4.65,2.59-6.71a.5.5,0,0,1,.69-.14.49.49,0,0,1,.14.69c-1.62,2.45-2.87,5-2.66,5.51.45.49,2,.3,2.62.13a.5.5,0,0,1,.61.36.5.5,0,0,1-.35.61A7.85,7.85,0,0,1,250.94,78.11Z" fill="#231f20"></path><ellipse cx="248.1" cy="70.58" rx="1.12" ry="0.6" transform="translate(168.29 315.86) rotate(-87.85)" fill="#231f20"></ellipse><ellipse cx="256.47" cy="71.01" rx="1.12" ry="0.6" transform="matrix(0.04, -1, 1, 0.04, 175.91, 324.64)" fill="#231f20"></ellipse><path d="M247.41,80.87s6,4.94,9.67-2.14" fill="#fff"></path><path d="M251.87,83.05a8.45,8.45,0,0,1-4.78-1.79.52.52,0,0,1-.07-.71.5.5,0,0,1,.7-.07s2.5,2,5.07,1.47c1.53-.32,2.83-1.48,3.85-3.45a.5.5,0,0,1,.88.46c-1.16,2.26-2.69,3.59-4.53,4A5.4,5.4,0,0,1,251.87,83.05Z" fill="#231f20"></path><path d="M250,87s5.68-.54,8-3.09a22.67,22.67,0,0,1-8.28,9Z" fill="#231f20"></path><path d="M249.76,93.44a.48.48,0,0,1-.26-.07.48.48,0,0,1-.24-.45l.25-5.93a.52.52,0,0,1,.45-.48c.06,0,5.52-.55,7.71-2.92a.5.5,0,0,1,.82.54A22.94,22.94,0,0,1,250,93.38.57.57,0,0,1,249.76,93.44Zm.73-6-.2,4.56a22.07,22.07,0,0,0,6.14-6.3A19.19,19.19,0,0,1,250.49,87.46Z" fill="#231f20"></path><path d="M261.74,71.86s2.62-3.77,4.71-2.18,2.68,4.83-3.64,8.44" fill="#fff"></path><path d="M262.81,78.62a.52.52,0,0,1-.44-.25.52.52,0,0,1,.19-.69c3.86-2.2,4.76-4,4.83-5.2a2.81,2.81,0,0,0-1.24-2.4,1.28,1.28,0,0,0-1.06-.27c-1.21.19-2.53,1.75-2.94,2.33a.5.5,0,1,1-.82-.57c.07-.1,1.72-2.45,3.6-2.75a2.29,2.29,0,0,1,1.82.46,3.76,3.76,0,0,1,1.64,3.27c-.09,1.4-1.09,3.58-5.33,6A.47.47,0,0,1,262.81,78.62Z" fill="#231f20"></path><path d="M149.2,111.59a.59.59,0,0,1-.25-.07l-6-3.47a.51.51,0,0,1-.24-.43V97a.49.49,0,0,1,.49-.5h10.61a.5.5,0,0,1,.5.5v10.61a.5.5,0,0,1-.2.39l-4.63,3.48A.54.54,0,0,1,149.2,111.59Zm-5.48-4.26,5.45,3.16,4.16-3.12V97.51h-9.61Zm10.11.29h0Z" fill="#231f20"></path><path d="M159.28,148.4a.48.48,0,0,1-.49-.48c-.67-22.12-2-64.19-2.06-65.15a.5.5,0,0,1,.44-.54.49.49,0,0,1,.55.41c.11.81,1.86,58.65,2.06,65.25a.5.5,0,0,1-.48.51Z" fill="#231f20"></path><path d="M279.72,130.43a.46.46,0,0,1-.45-.35c-6-26.3-5.7-26.73-5.55-26.93a.46.46,0,0,1,.64-.11.49.49,0,0,1,.17.49c0,1.25,3.35,16.39,5.63,26.34a.45.45,0,0,1-.34.55Z" fill="#231f20"></path><path d="M182.37,140.57a.45.45,0,0,1-.45-.45c0-1.68-1.26-41.22-1.26-42.34a.46.46,0,0,1,.91,0c0,1.11,1.25,41.91,1.26,42.32a.46.46,0,0,1-.44.47Z" fill="#231f20"></path><path d="M112,169.86a3.23,3.23,0,0,0,3.45,1.52,3,3,0,0,0,1.2-.72c2.43-2.29,1.45-7.56-2-8.26C110.38,161.56,110.38,167.41,112,169.86Z" fill="#fff"></path><path d="M114.72,171.94a4,4,0,0,1-3.15-1.84h0c-1.14-1.77-1.5-5.12-.26-6.94a3,3,0,0,1,3.37-1.2,4.69,4.69,0,0,1,3.48,3.5,5.52,5.52,0,0,1-1.23,5.53,3.42,3.42,0,0,1-1.39.83A2.91,2.91,0,0,1,114.72,171.94Zm-.91-9.16a2,2,0,0,0-1.74.89c-1,1.49-.68,4.47.27,5.94h0a2.83,2.83,0,0,0,2.94,1.34,2.7,2.7,0,0,0,1-.62,4.7,4.7,0,0,0,1-4.62,3.83,3.83,0,0,0-2.79-2.86A3.37,3.37,0,0,0,113.81,162.78Z" fill="#231f20"></path><path d="M68.38,194.07s-8.87,27.74-11.44,35.62c0,0,30.45,10.09,48.09.7l-9.9-39.32Z" fill="#68e1fd"></path><path d="M79.51,195.64a28,28,0,0,1-9.76-1.58.46.46,0,0,1,.35-.84c.11,0,10.75,4.31,23.61-1.72a.46.46,0,0,1,.61.22.47.47,0,0,1-.22.61A34.24,34.24,0,0,1,79.51,195.64Z" fill="#231f20"></path><path d="M261.78,144.84a135.26,135.26,0,0,1-23.07-2.37.46.46,0,0,1-.36-.54.46.46,0,0,1,.54-.36c.25.05,25.12,4.91,36.54.46a.46.46,0,0,1,.59.26.44.44,0,0,1-.26.59C272,144.34,267,144.84,261.78,144.84Z" fill="#231f20"></path><path d="M235.76,138.34a.45.45,0,0,1-.45-.38c-.16-.94-3.78-23.09.72-35.17a.46.46,0,0,1,.59-.27.44.44,0,0,1,.27.58c-4.42,11.86-.72,34.48-.68,34.71a.46.46,0,0,1-.38.53Z" fill="#231f20"></path><path d="M170.75,57.11c-.2-.4.47-9.92-.43-17-.77-6.09-7-9.45-12.55-9.87a23,23,0,0,0-12.94,2.94c-1.19.68-3.85,2.37-3.49,4.1A1.23,1.23,0,0,0,140,36.4a2.17,2.17,0,0,0-1.41,1A6.45,6.45,0,0,0,137.8,41c0,2,.63,3.52,1,5.46.34,1.76.67,3.51,1,5.27l.93,4.91a7,7,0,0,0,.39,2.06Z" fill="#fff"></path><path d="M141.13,59.17a.49.49,0,0,1-.41-.22,3.77,3.77,0,0,1-.43-1.73,3.54,3.54,0,0,0-.06-.54l-1.94-10.17c-.11-.63-.26-1.21-.41-1.77a14.82,14.82,0,0,1-.59-3.79,6.83,6.83,0,0,1,.83-3.81,2.6,2.6,0,0,1,1.76-1.25,1.9,1.9,0,0,1,1.08.18c.52-1.34,2.15-2.53,3.62-3.36a23.56,23.56,0,0,1,13.22-3c5.7.42,12.21,3.83,13,10.32a104.41,104.41,0,0,1,.43,14.39c0,1.2,0,2.34,0,2.54a.43.43,0,0,1,0,.45.49.49,0,0,1-.44.21l-29.62,1.54Zm-1-22.26H140a1.63,1.63,0,0,0-1.05.79,6.07,6.07,0,0,0-.66,3.26,13.64,13.64,0,0,0,.56,3.52c.15.59.31,1.19.43,1.84l1.94,10.17c0,.16.05.39.07.63a8.3,8.3,0,0,0,.14,1l28.74-1.5c0-.41,0-1.08,0-2.22a105.13,105.13,0,0,0-.42-14.24c-.75-5.92-6.79-9-12.08-9.42a22.53,22.53,0,0,0-12.64,2.87c-2.23,1.27-3.45,2.59-3.25,3.54h0a.52.52,0,0,1-1,.21h0A.7.7,0,0,0,140.14,36.91Z" fill="#231f20"></path><path d="M165.55,56.07c.62-4.55,8.11-5.86,7.88-.5a8,8,0,0,1-1.88,5.06,4.66,4.66,0,0,1-5,1.31" fill="#fff"></path><path d="M168,62.74a4.28,4.28,0,0,1-1.67-.32.52.52,0,1,1,.4-1,4.18,4.18,0,0,0,4.44-1.19,7.4,7.4,0,0,0,1.74-4.74c.08-1.73-.75-2.8-2.28-2.94a4.32,4.32,0,0,0-4.56,3.54.52.52,0,0,1-1-.14,5.34,5.34,0,0,1,5.69-4.42c1.63.14,3.33,1.27,3.21,4a8.38,8.38,0,0,1-2,5.39A5.42,5.42,0,0,1,168,62.74Z" fill="#231f20"></path><path d="M146.81,56.55c-.84-4.52-8.4-5.44-7.89-.11a7.86,7.86,0,0,0,2.13,5,4.68,4.68,0,0,0,5.08,1.06" fill="#fff"></path><path d="M144.46,63.34a5.49,5.49,0,0,1-3.77-1.57,8.39,8.39,0,0,1-2.28-5.28c-.26-2.73,1.38-3.94,3-4.17a5.33,5.33,0,0,1,5.9,4.13.51.51,0,0,1-.41.6.51.51,0,0,1-.6-.41,4.33,4.33,0,0,0-4.74-3.3c-1.52.21-2.29,1.32-2.13,3a7.4,7.4,0,0,0,2,4.64,4.17,4.17,0,0,0,4.5,1,.51.51,0,0,1,.68.25.5.5,0,0,1-.24.68A4.35,4.35,0,0,1,144.46,63.34Z" fill="#231f20"></path><path d="M148.6,77.14s2.48,6.4,7.59,6.27,8.05-5.1,8.05-5.1l-.51-20.23-15.63-.4Z" fill="#fff"></path><path d="M156,83.93c-5.29,0-7.81-6.33-7.92-6.6a.55.55,0,0,1,0-.17l-.49-19.46a.5.5,0,0,1,.15-.38.51.51,0,0,1,.38-.15l15.62.39a.51.51,0,0,1,.5.5l.51,20.24a.44.44,0,0,1-.07.27c-.12.22-3.16,5.22-8.48,5.36ZM149.11,77c.3.71,2.63,5.87,6.93,5.87h.13c4.33-.11,7.07-4,7.55-4.72l-.5-19.59-14.59-.37Z" fill="#231f20"></path><path d="M148.8,66.84c.15.85,2.39,7.51,15.35,8.12l-.23-9.42c-2.18.42-6,3.15-8.37,3a16.82,16.82,0,0,1-5.83-1.16A10.18,10.18,0,0,1,148.8,66.84Z" fill="#231f20"></path><path d="M164.15,75.45h0c-14.26-.66-15.81-8.44-15.82-8.52a.47.47,0,0,1,.21-.5.48.48,0,0,1,.54,0,9.09,9.09,0,0,0,.87.47A16.79,16.79,0,0,0,155.59,68c1.26.1,3.17-.8,4.85-1.6a16.53,16.53,0,0,1,3.38-1.35.51.51,0,0,1,.41.11.47.47,0,0,1,.18.37l.24,9.41a.48.48,0,0,1-.15.37A.5.5,0,0,1,164.15,75.45Zm-14.4-7.55c1.07,2,4.36,5.95,13.89,6.53l-.21-8.25a24,24,0,0,0-2.57,1.12c-1.88.89-3.83,1.82-5.35,1.69A18.08,18.08,0,0,1,149.75,67.9Z" fill="#231f20"></path><path d="M155.58,70.18l1.21,0A10.39,10.39,0,0,0,166.92,59.5l-.42-16.45a32,32,0,0,1-10.89,2.73,24.5,24.5,0,0,1-11.1-2.17l.42,16.45A10.38,10.38,0,0,0,155.58,70.18Z" fill="#fff"></path><path d="M166.5,43.05l.42,16.45a10.39,10.39,0,0,1-10.13,10.65l-1.21,0h-.27a10.4,10.4,0,0,1-10.38-10.13l-.42-16.45a24.76,24.76,0,0,0,9.92,2.21c.39,0,.78,0,1.18,0a32,32,0,0,0,10.89-2.73m0-1a1,1,0,0,0-.45.1,31.58,31.58,0,0,1-10.5,2.63c-.37,0-.74,0-1.12,0A23.9,23.9,0,0,1,145,42.68a1,1,0,0,0-.46-.1,1,1,0,0,0-1,1.05l.42,16.45a11.36,11.36,0,0,0,11.41,11.14h.3l1.21,0A11.44,11.44,0,0,0,168,59.47L167.53,43a1,1,0,0,0-.49-.85,1,1,0,0,0-.54-.15Z" fill="#231f20"></path><path d="M155.74,60.12a11.5,11.5,0,0,1-1.16,0,.91.91,0,0,1-.69-.43c-.84-1.32.9-6.5,1.45-8a.52.52,0,0,1,1,.34c-1.2,3.39-1.92,6.66-1.56,7.16a15.62,15.62,0,0,0,2.8-.12.51.51,0,0,1,.59.43.51.51,0,0,1-.43.59A14.58,14.58,0,0,1,155.74,60.12Z" fill="#231f20"></path><path d="M156.68,66.83a9.74,9.74,0,0,1-4.25-1.15.52.52,0,1,1,.45-.93c2.08,1,3.84,1.3,5.24.82A3.47,3.47,0,0,0,160.06,64a.51.51,0,1,1,.93.43,4.49,4.49,0,0,1-2.5,2.12A5.41,5.41,0,0,1,156.68,66.83Z" fill="#231f20"></path><ellipse cx="160.41" cy="50.65" rx="0.63" ry="1.44" transform="translate(-3.95 14.84) rotate(-5.23)" fill="#231f20"></ellipse><ellipse cx="151.16" cy="51.55" rx="0.63" ry="1.44" transform="translate(-4.07 14) rotate(-5.23)" fill="#231f20"></ellipse><path d="M77.89,262.59v4.13S59.42,269,59.56,268s10.56-5.39,10.56-5.39Z" fill="#231f20"></path><path d="M61.41,268.69a4.33,4.33,0,0,1-2.18-.29.62.62,0,0,1-.16-.49c.12-.84,3.77-2.78,10.85-5.78a.45.45,0,0,1,.2,0h7.77a.5.5,0,0,1,.5.5v4.13a.5.5,0,0,1-.44.49C71.91,268,64.91,268.69,61.41,268.69Zm-.88-1c2.36.1,9.91-.62,16.86-1.46v-3.19H70.22A86.29,86.29,0,0,0,60.53,267.73Z" fill="#231f20"></path><path d="M135,141.41a.44.44,0,0,1-.45-.43l-2.8-45.8a.46.46,0,0,1,.43-.48.47.47,0,0,1,.49.43l2.79,45.8a.45.45,0,0,1-.43.48Z" fill="#231f20"></path><path d="M288.24,174.58a2.55,2.55,0,0,0,2.07,2.22,3.09,3.09,0,0,0,2.43-1.15,7.54,7.54,0,0,0,2-4.28c.22-1.83-.91-5.12-3.23-3.7C289.75,168.77,287.93,172.53,288.24,174.58Z" fill="#fff"></path><path d="M290.51,177.27h-.24a3,3,0,0,1-2.48-2.61c-.34-2.23,1.54-6.16,3.52-7.37a2.08,2.08,0,0,1,2.37-.1c1.19.76,1.73,2.8,1.55,4.25a7.92,7.92,0,0,1-2.16,4.54A3.73,3.73,0,0,1,290.51,177.27Zm2.12-9.49a1.58,1.58,0,0,0-.84.28c-1.68,1-3.38,4.58-3.1,6.45h0a2.1,2.1,0,0,0,1.67,1.83,2.76,2.76,0,0,0,2.06-1,7.15,7.15,0,0,0,1.91-4c.14-1.16-.32-2.84-1.15-3.37A.94.94,0,0,0,292.63,167.78Z" fill="#231f20"></path><path d="M327.7,188l-.59,4.56s.85,2,5.39.75,4.82-4.12,4.82-4.12l.15-9c0-.55-.25-5.89-.16-10.64-5.52-.08-15.24-.85-16.09-.55-.32,3.18-.33,13,0,14.85C322,187.35,327.7,188,327.7,188Z" fill="#fff"></path><path d="M329.84,194.2c-2.51,0-3.12-1.37-3.15-1.44a.5.5,0,0,1,0-.24l.53-4.12c-1.43-.25-5.69-1.25-6.36-4.48-.4-1.9-.38-11.84-.07-15a.47.47,0,0,1,.3-.38c.52-.19,2.68-.09,7.84.17,2.83.15,6,.32,8.41.36a.45.45,0,0,1,.33.14.41.41,0,0,1,.12.32c-.07,4.1.09,8.72.16,10.52,0,.07,0,.07-.14,9.16,0,.17-.37,3.21-5.16,4.55A10.42,10.42,0,0,1,329.84,194.2Zm-2.26-1.72c.23.31,1.31,1.39,4.8.41,4.15-1.16,4.48-3.62,4.49-3.72s.14-8.86.14-9c-.07-1.81-.23-6.19-.17-10.19-2.33,0-5.32-.2-8-.34-2.92-.16-6.18-.33-7.21-.26-.28,3.42-.29,12.57.08,14.36.66,3.15,6,3.82,6,3.82a.48.48,0,0,1,.31.17.42.42,0,0,1,.09.34Z" fill="#231f20"></path><path d="M328.07,178.47c-.6,1.05-1.19,2.3-.87,2.64.57.63,2.17.21,2.17.21" fill="#fff"></path><path d="M328.31,182a2,2,0,0,1-1.48-.51c-.33-.36-.46-1,.8-3.22a.5.5,0,0,1,.87.49c-1,1.7-.89,2.12-.89,2.13a2.7,2.7,0,0,0,1.63,0,.5.5,0,0,1,.25,1A5.11,5.11,0,0,1,328.31,182Z" fill="#231f20"></path><path d="M328.39,184.48h-.23a5.63,5.63,0,0,1-3.75-2.25.5.5,0,1,1,.82-.58,4.65,4.65,0,0,0,3,1.83,3.89,3.89,0,0,0,3.07-1.55.5.5,0,0,1,.71,0,.51.51,0,0,1,0,.71A5,5,0,0,1,328.39,184.48Z" fill="#231f20"></path><path d="M327.7,188s3.69,0,5.09-1.23a13.74,13.74,0,0,1-5.23,4.84Z" fill="#231f20"></path><path d="M327.56,192.13a.48.48,0,0,1-.26-.07.49.49,0,0,1-.24-.44l.14-3.62a.5.5,0,0,1,.5-.48.26.26,0,0,1,.09,0c1,0,3.66-.19,4.66-1.1a.5.5,0,0,1,.64,0,.49.49,0,0,1,.14.62,14.19,14.19,0,0,1-5.42,5A.45.45,0,0,1,327.56,192.13Zm.62-3.62-.09,2.21a15.91,15.91,0,0,0,3.12-2.63A14.56,14.56,0,0,1,328.18,188.51Z" fill="#231f20"></path><ellipse cx="325.36" cy="176.1" rx="0.54" ry="1.28" fill="#231f20"></ellipse><ellipse cx="331.12" cy="176.1" rx="0.54" ry="1.28" fill="#231f20"></ellipse><path d="M337.85,177.38s-3-1.48-5.06-6.68c0,0-7.2,2.35-11.81,3.63,0,0-5.36-4.82-2.31-8.53s16-6.47,20.42-.87.41,14.35.41,14.35Z" fill="#fff"></path><path d="M339.5,179.73a.43.43,0,0,1-.34-.15l-1.6-1.84c-.51-.28-3.08-1.91-5-6.47-1.58.51-7.48,2.41-11.43,3.5a.46.46,0,0,1-.42-.1c-2-1.77-5-6-2.37-9.16,2-2.41,7.49-4.24,12.48-4.22,2.75,0,6.49.63,8.66,3.36,4.57,5.76.63,14.45.47,14.82a.47.47,0,0,1-.35.26Zm-6.71-9.48a.46.46,0,0,1,.42.28c2,4.95,4.82,6.43,4.85,6.44l.14.11,1.16,1.34c.8-2.11,2.9-8.76-.63-13.2-1.52-1.91-4.34-3-7.94-3-4.69,0-10,1.7-11.77,3.88-2.44,3,1.22,6.88,2.09,7.73,4.56-1.27,11.46-3.53,11.53-3.55A.39.39,0,0,1,332.79,170.25Z" fill="#231f20"></path><path d="M335.54,176.42s2.06-3.24,4.37-.85.09,5.71-3.13,6.36" fill="#fff"></path><path d="M336.78,182.38a.47.47,0,0,1-.45-.36.46.46,0,0,1,.36-.54,4.7,4.7,0,0,0,3.59-2.91,2.59,2.59,0,0,0-.7-2.69,2,2,0,0,0-1.6-.73c-1.13.12-2,1.5-2.05,1.51a.46.46,0,1,1-.77-.49,4.32,4.32,0,0,1,2.73-1.93,2.85,2.85,0,0,1,2.35,1,3.48,3.48,0,0,1,.91,3.59,5.62,5.62,0,0,1-4.28,3.53Z" fill="#231f20"></path><path d="M345.5,191.63S359.55,206.05,361,220l-7.07,3.63-14.18-21.74Z" fill="#68e1fd"></path><path d="M352.59,222.08a.46.46,0,0,1-.38-.2l-11.73-18a.45.45,0,0,1,.13-.63.47.47,0,0,1,.64.13l11.73,18a.47.47,0,0,1-.14.63A.43.43,0,0,1,352.59,222.08Z" fill="#231f20"></path></g></svg>