<svg id="_400_chicago_flatline" data-name="#400_chicago_flatline" xmlns="http://www.w3.org/2000/svg" viewBox="0 0 400 300" width="406" height="306" class="illustration styles_illustrationTablet__1DWOa"><rect x="39.4" y="45.82" width="321.2" height="208.36" fill="#68e1fd"></rect><path d="M203,120a15.42,15.42,0,0,1,19.71,2.77c2.16,2.57,4.1,6.24,7.46,6.18,2.86,0,5.25-3,8.07-2.49,3,.56,3.91,4.49,6.37,6.3,3.65,2.69,9.23-.15,13.19,2.05a383.61,383.61,0,0,1-59.87,4.86,16.48,16.48,0,0,1-6.92-1c-2.14-1-3.92-3.13-3.68-5.47a7.17,7.17,0,0,1,1.31-3.15,24.33,24.33,0,0,1,27-9.6" fill="#fff"></path><path d="M360.6,61.13v36.6c-2.63-.21-5.25-.38-7.87-.49-14.32-.62-28.66.39-43,1.4L255.3,102.5a40.63,40.63,0,0,0,20.09-8.8c1.82-1.5,3.55-3.19,5.72-4.09,4.72-2,10,.19,15.08.89a26.3,26.3,0,0,0,22.3-7.86c2.75-2.9,5.12-6.65,9-7.64,6.86-1.75,15.37,5.91,20.31.84,3.27-3.36,1.42-9.82,5-12.84C354.89,61.25,357.85,61.48,360.6,61.13Z" fill="#fff"></path><polygon points="187.96 73.61 219.76 73.61 228.26 252.12 179.45 252.12 187.96 73.61" fill="#231f20"></polygon><path d="M228.26,252.65H179.45a.55.55,0,0,1-.38-.16.52.52,0,0,1-.14-.39l8.5-178.51a.53.53,0,0,1,.53-.51h31.8a.53.53,0,0,1,.52.51l8.5,178.51a.52.52,0,0,1-.14.39A.55.55,0,0,1,228.26,252.65ZM180,251.59h47.7L219.25,74.14H188.46Z" fill="#231f20"></path><rect x="301.66" y="193.18" width="58.94" height="61" fill="#231f20"></rect><path d="M360.6,254.71H301.66a.53.53,0,0,1-.53-.53v-61a.53.53,0,0,1,.53-.53H360.6a.53.53,0,0,1,.53.53v61A.53.53,0,0,1,360.6,254.71Zm-58.42-1.06h57.89v-60H302.18Z" fill="#231f20"></path><rect x="279.69" y="144.75" width="26.65" height="109.43" fill="#231f20"></rect><path d="M306.34,254.71H279.69a.53.53,0,0,1-.53-.53V144.75a.52.52,0,0,1,.53-.52h26.65a.52.52,0,0,1,.53.52V254.18A.53.53,0,0,1,306.34,254.71Zm-26.12-1.06h25.6V145.28h-25.6Z" fill="#231f20"></path><rect x="295.74" y="117.32" width="9.01" height="4.43" fill="#fff"></rect><path d="M304.75,122.26h-9a.5.5,0,0,1-.5-.5v-4.44a.5.5,0,0,1,.5-.5h9a.5.5,0,0,1,.5.5v4.44A.5.5,0,0,1,304.75,122.26Zm-8.51-1h8v-3.44h-8Z" fill="#231f20"></path><rect x="288.14" y="114.58" width="7.6" height="7.6" fill="#fff"></rect><path d="M295.74,122.68h-7.6a.5.5,0,0,1-.5-.5v-7.6a.5.5,0,0,1,.5-.5h7.6a.5.5,0,0,1,.5.5v7.6A.5.5,0,0,1,295.74,122.68Zm-7.1-1h6.6v-6.6h-6.6Z" fill="#231f20"></path><polygon points="291.94 108.1 288.14 114.58 295.74 114.58 291.94 108.1" fill="#fff"></polygon><path d="M295.74,115.08h-7.6a.52.52,0,0,1-.44-.25.5.5,0,0,1,0-.5l3.8-6.48a.51.51,0,0,1,.86,0l3.8,6.48a.5.5,0,0,1,0,.5A.5.5,0,0,1,295.74,115.08Zm-6.73-1h5.86l-2.93-5Z" fill="#231f20"></path><rect x="304.75" y="114.58" width="7.6" height="7.6" fill="#fff"></rect><path d="M312.35,122.68h-7.6a.5.5,0,0,1-.5-.5v-7.6a.5.5,0,0,1,.5-.5h7.6a.5.5,0,0,1,.5.5v7.6A.5.5,0,0,1,312.35,122.68Zm-7.1-1h6.6v-6.6h-6.6Z" fill="#231f20"></path><rect x="264.49" y="142.88" width="6.76" height="45.33" fill="#231f20"></rect><path d="M271.24,188.73h-6.75a.52.52,0,0,1-.53-.52V142.88a.52.52,0,0,1,.53-.53h6.75a.53.53,0,0,1,.53.53v45.33A.52.52,0,0,1,271.24,188.73Zm-6.23-1h5.71V143.4H265Z" fill="#231f20"></path><rect x="260.54" y="182.01" width="21.4" height="72.17" fill="#fff"></rect><path d="M281.94,254.68h-21.4a.5.5,0,0,1-.5-.5V182a.51.51,0,0,1,.5-.5h21.4a.5.5,0,0,1,.5.5v72.17A.5.5,0,0,1,281.94,254.68Zm-20.9-1h20.4V182.51H261Z" fill="#231f20"></path><path d="M260.54,203.41h0a7.6,7.6,0,0,1,7.6,7.6v43.17a0,0,0,0,1,0,0h-15.2a0,0,0,0,1,0,0V211A7.6,7.6,0,0,1,260.54,203.41Z" fill="#fff"></path><path d="M268.15,254.68H252.94a.5.5,0,0,1-.5-.5V211a8.11,8.11,0,0,1,16.21,0v43.17A.5.5,0,0,1,268.15,254.68Zm-14.71-1h14.21V211a7.11,7.11,0,0,0-14.21,0Z" fill="#231f20"></path><polygon points="244.31 182.29 244.31 177.88 239.52 177.88 239.52 176.29 233.61 176.29 233.61 165.39 234.63 165.39 234.63 162.3 231.54 162.3 231.54 165.39 232.11 165.39 232.11 176.29 227.69 176.29 227.69 177.88 222.16 177.88 222.16 182.29 219.62 182.29 219.62 219.09 246.84 219.09 246.84 182.29 244.31 182.29" fill="#fff"></polygon><path d="M246.84,219.58H219.62a.5.5,0,0,1-.5-.5V182.29a.51.51,0,0,1,.5-.5h2v-3.91a.5.5,0,0,1,.5-.5h5v-1.09a.5.5,0,0,1,.5-.5h3.91v-9.9h-.07a.5.5,0,0,1-.5-.5V162.3a.51.51,0,0,1,.5-.5h3.09a.5.5,0,0,1,.5.5v3.09a.5.5,0,0,1-.5.5h-.52v9.9h5.41a.5.5,0,0,1,.5.5v1.09h4.29a.51.51,0,0,1,.5.5v3.91h2a.5.5,0,0,1,.5.5v36.79A.5.5,0,0,1,246.84,219.58Zm-26.72-1h26.22V182.79h-2a.5.5,0,0,1-.5-.5v-3.91h-4.29a.5.5,0,0,1-.5-.5v-1.09h-5.41a.5.5,0,0,1-.5-.5v-10.9a.5.5,0,0,1,.5-.5h.52V162.8H232v2.09h.07a.51.51,0,0,1,.5.5v10.9a.51.51,0,0,1-.5.5H228.2v1.09a.5.5,0,0,1-.5.5h-5v3.91a.5.5,0,0,1-.5.5h-2Z" fill="#231f20"></path><rect x="216.24" y="215.99" width="33.97" height="16.07" fill="#fff"></rect><path d="M250.22,232.56h-34a.5.5,0,0,1-.5-.5V216a.5.5,0,0,1,.5-.5h34a.5.5,0,0,1,.5.5v16.07A.5.5,0,0,1,250.22,232.56Zm-33.47-1h33V216.49h-33Z" fill="#231f20"></path><rect x="209.11" y="225.56" width="45.42" height="19.8" fill="#fff"></rect><path d="M254.54,245.86H209.11a.5.5,0,0,1-.5-.5v-19.8a.5.5,0,0,1,.5-.5h45.43a.5.5,0,0,1,.5.5v19.8A.5.5,0,0,1,254.54,245.86Zm-44.93-1H254v-18.8H209.61Z" fill="#231f20"></path><polygon points="203.1 254.18 203.1 238.23 222.25 238.23 222.25 233.73 244.59 233.73 244.59 238.42 263.36 238.42 263.36 254.18 203.1 254.18" fill="#fff"></polygon><path d="M263.36,254.68H203.11a.5.5,0,0,1-.5-.5v-16a.5.5,0,0,1,.5-.5h18.64v-4a.5.5,0,0,1,.5-.5h22.34a.5.5,0,0,1,.5.5v4.19h18.27a.5.5,0,0,1,.5.5v15.76A.5.5,0,0,1,263.36,254.68Zm-59.75-1h59.25V238.92H244.59a.5.5,0,0,1-.5-.5v-4.19H222.75v4a.5.5,0,0,1-.5.5H203.61Z" fill="#231f20"></path><rect x="140.32" y="125.7" width="41.95" height="128.48" fill="#fff"></rect><path d="M182.27,254.68h-42a.5.5,0,0,1-.5-.5V125.7a.5.5,0,0,1,.5-.5h42a.5.5,0,0,1,.5.5V254.18A.5.5,0,0,1,182.27,254.68Zm-41.45-1h41V126.2h-41Z" fill="#231f20"></path><path d="M177.2,192.55H144.54a.5.5,0,0,1-.5-.5.5.5,0,0,1,.5-.5H177.2a.5.5,0,0,1,.5.5A.5.5,0,0,1,177.2,192.55Z" fill="#d1d3d4"></path><path d="M177.2,197.34H144.54a.5.5,0,0,1-.5-.5.5.5,0,0,1,.5-.5H177.2a.5.5,0,0,1,.5.5A.5.5,0,0,1,177.2,197.34Z" fill="#d1d3d4"></path><path d="M177.2,202.13H144.54a.5.5,0,0,1-.5-.5.5.5,0,0,1,.5-.5H177.2a.5.5,0,0,1,.5.5A.5.5,0,0,1,177.2,202.13Z" fill="#d1d3d4"></path><path d="M177.2,206.91H144.54a.5.5,0,0,1-.5-.5.5.5,0,0,1,.5-.5H177.2a.5.5,0,0,1,.5.5A.5.5,0,0,1,177.2,206.91Z" fill="#d1d3d4"></path><path d="M177.2,211.7H144.54a.5.5,0,0,1,0-1H177.2a.5.5,0,0,1,0,1Z" fill="#d1d3d4"></path><path d="M177.2,216.49H144.54a.5.5,0,0,1-.5-.5.5.5,0,0,1,.5-.5H177.2a.5.5,0,0,1,.5.5A.5.5,0,0,1,177.2,216.49Z" fill="#d1d3d4"></path><path d="M177.2,221.27H144.54a.5.5,0,0,1-.5-.5.5.5,0,0,1,.5-.5H177.2a.5.5,0,0,1,.5.5A.5.5,0,0,1,177.2,221.27Z" fill="#d1d3d4"></path><path d="M177.2,226.06H144.54a.5.5,0,0,1,0-1H177.2a.5.5,0,0,1,0,1Z" fill="#d1d3d4"></path><path d="M177.2,230.85H144.54a.5.5,0,0,1-.5-.5.5.5,0,0,1,.5-.5H177.2a.5.5,0,0,1,.5.5A.5.5,0,0,1,177.2,230.85Z" fill="#d1d3d4"></path><path d="M177.2,235.63H144.54a.5.5,0,0,1-.5-.5.5.5,0,0,1,.5-.5H177.2a.5.5,0,0,1,.5.5A.5.5,0,0,1,177.2,235.63Z" fill="#d1d3d4"></path><path d="M177.2,240.42H144.54a.5.5,0,0,1,0-1H177.2a.5.5,0,0,1,0,1Z" fill="#d1d3d4"></path><rect x="135.16" y="236.54" width="33.6" height="17.64" fill="#fff"></rect><path d="M168.75,254.68H135.16a.5.5,0,0,1-.5-.5V236.54a.5.5,0,0,1,.5-.5h33.59a.5.5,0,0,1,.5.5v17.64A.5.5,0,0,1,168.75,254.68Zm-33.09-1h32.59V237H135.66Z" fill="#231f20"></path><rect x="181.14" y="208.2" width="14.92" height="45.98" fill="#fff"></rect><path d="M196.07,254.68H181.14a.5.5,0,0,1-.5-.5v-46a.5.5,0,0,1,.5-.5h14.93a.5.5,0,0,1,.5.5v46A.5.5,0,0,1,196.07,254.68Zm-14.43-1h13.93v-45H181.64Z" fill="#231f20"></path><rect x="114.13" y="163.15" width="19.67" height="49.74" fill="#fff"></rect><path d="M133.8,213.39H114.13a.5.5,0,0,1-.5-.5V163.15a.5.5,0,0,1,.5-.5H133.8a.5.5,0,0,1,.5.5v49.74A.5.5,0,0,1,133.8,213.39Zm-19.17-1H133.3V163.65H114.63Z" fill="#231f20"></path><path d="M123.24,163.65a.5.5,0,0,1-.5-.5v-4.51a.5.5,0,0,1,.5-.5.51.51,0,0,1,.5.5v4.51A.51.51,0,0,1,123.24,163.65Z" fill="#231f20"></path><path d="M117.32,215.17a.5.5,0,0,1-.5-.5V166.9a.51.51,0,0,1,.5-.5.5.5,0,0,1,.5.5v47.77A.5.5,0,0,1,117.32,215.17Z" fill="#d1d3d4"></path><path d="M120.51,215.17a.5.5,0,0,1-.5-.5V166.9a.51.51,0,0,1,.5-.5.5.5,0,0,1,.5.5v47.77A.5.5,0,0,1,120.51,215.17Z" fill="#d1d3d4"></path><path d="M123.71,215.17a.5.5,0,0,1-.5-.5V166.9a.5.5,0,0,1,.5-.5.51.51,0,0,1,.5.5v47.77A.5.5,0,0,1,123.71,215.17Z" fill="#d1d3d4"></path><path d="M126.9,215.17a.5.5,0,0,1-.5-.5V166.9a.5.5,0,0,1,.5-.5.51.51,0,0,1,.5.5v47.77A.5.5,0,0,1,126.9,215.17Z" fill="#d1d3d4"></path><path d="M130.09,215.17a.5.5,0,0,1-.5-.5V166.9a.5.5,0,0,1,.5-.5.51.51,0,0,1,.5.5v47.77A.5.5,0,0,1,130.09,215.17Z" fill="#d1d3d4"></path><rect x="94" y="211.2" width="26.51" height="25.34" fill="#231f20"></rect><path d="M120.51,237.07H94a.53.53,0,0,1-.53-.53V211.2a.53.53,0,0,1,.53-.53h26.51a.53.53,0,0,1,.53.53v25.34A.53.53,0,0,1,120.51,237.07Zm-26-1.06H120V211.73H94.53Z" fill="#231f20"></path><polygon points="81.05 196.94 72.09 196.94 72.09 200.5 68.8 200.5 68.8 233.91 82.41 232.9 81.05 196.94" fill="#231f20"></polygon><path d="M68.8,234.44a.54.54,0,0,1-.36-.14.56.56,0,0,1-.17-.39V200.5a.53.53,0,0,1,.53-.53h2.76v-3a.52.52,0,0,1,.53-.53h9a.53.53,0,0,1,.53.51l1.36,36a.54.54,0,0,1-.49.55l-13.61,1ZM69.33,201v32.32l12.53-.94-1.32-34.95H72.61v3a.52.52,0,0,1-.52.53Z" fill="#231f20"></path><rect x="79.03" y="186.8" width="16.33" height="56.17" fill="#231f20"></rect><path d="M95.36,243.5H79a.53.53,0,0,1-.53-.53V186.8a.53.53,0,0,1,.53-.53H95.36a.53.53,0,0,1,.53.53V243A.53.53,0,0,1,95.36,243.5Zm-15.8-1.06H94.83V187.33H79.56Z" fill="#231f20"></path><rect x="49" y="205.57" width="16.42" height="44.67" fill="#231f20"></rect><path d="M65.42,250.77H49a.53.53,0,0,1-.53-.53V205.57A.53.53,0,0,1,49,205H65.42a.53.53,0,0,1,.53.53v44.67A.53.53,0,0,1,65.42,250.77Zm-15.89-1.05H64.9V206.1H49.53Z" fill="#231f20"></path><rect x="58.38" y="216.36" width="15.63" height="33.07" fill="#231f20"></rect><path d="M74,250H58.38a.52.52,0,0,1-.52-.52V216.36a.52.52,0,0,1,.52-.52H74a.52.52,0,0,1,.53.52v33.08A.52.52,0,0,1,74,250Zm-15.1-1.05H73.48v-32H58.91Z" fill="#231f20"></path><rect x="68.8" y="227.34" width="43.45" height="24.14" fill="#fff"></rect><path d="M112.26,252H68.8a.5.5,0,0,1-.5-.5V227.34a.51.51,0,0,1,.5-.5h43.46a.51.51,0,0,1,.5.5v24.14A.5.5,0,0,1,112.26,252Zm-43-1h42.46V227.84H69.3Z" fill="#231f20"></path><polygon points="55.38 241.8 49 241.8 49 203.13 44.12 203.13 44.12 194.68 39.4 194.68 39.4 254.18 53.5 254.18 55.38 241.8" fill="#fff"></polygon><path d="M53.5,254.68H39.4a.5.5,0,0,1-.5-.5v-59.5a.5.5,0,0,1,.5-.5h4.72a.51.51,0,0,1,.5.5v7.95H49a.5.5,0,0,1,.5.5V241.3h5.88a.49.49,0,0,1,.38.17.53.53,0,0,1,.12.4L54,254.25A.51.51,0,0,1,53.5,254.68Zm-13.6-1H53.07L54.8,242.3H49a.5.5,0,0,1-.5-.5V203.63H44.12a.5.5,0,0,1-.5-.5v-7.95H39.9Z" fill="#231f20"></path><rect x="102.45" y="222.28" width="32.71" height="31.9" fill="#fff"></rect><path d="M135.16,254.68H102.45a.5.5,0,0,1-.5-.5v-31.9a.5.5,0,0,1,.5-.5h32.71a.5.5,0,0,1,.5.5v31.9A.5.5,0,0,1,135.16,254.68Zm-32.21-1h31.71v-30.9H103Z" fill="#231f20"></path><rect x="112.26" y="207.07" width="22.9" height="15.2" fill="#fff"></rect><path d="M135.16,222.78h-22.9a.5.5,0,0,1-.5-.5V207.07a.5.5,0,0,1,.5-.5h22.9a.5.5,0,0,1,.5.5v15.21A.51.51,0,0,1,135.16,222.78Zm-22.4-1h21.9V207.57h-21.9Z" fill="#231f20"></path><rect x="51.42" y="238.23" width="52.77" height="15.95" fill="#fff"></rect><path d="M104.18,254.68H51.42a.5.5,0,0,1-.5-.5v-16a.5.5,0,0,1,.5-.5h52.76a.5.5,0,0,1,.5.5v16A.5.5,0,0,1,104.18,254.68Zm-52.26-1h51.76v-15H51.92Z" fill="#231f20"></path><path d="M42.86,239.81a.5.5,0,0,1-.5-.5V207.07a.5.5,0,0,1,.5-.5.5.5,0,0,1,.5.5v32.24A.5.5,0,0,1,42.86,239.81Z" fill="#d1d3d4"></path><path d="M45.54,239.81a.5.5,0,0,1-.5-.5V207.07a.5.5,0,0,1,.5-.5.5.5,0,0,1,.5.5v32.24A.5.5,0,0,1,45.54,239.81Z" fill="#d1d3d4"></path><path d="M49,242.3H39.4a.5.5,0,0,1-.5-.5.5.5,0,0,1,.5-.5H49a.5.5,0,0,1,.5.5A.51.51,0,0,1,49,242.3Z" fill="#231f20"></path><path d="M44.12,203.63H39.4a.5.5,0,0,1,0-1h4.72a.5.5,0,1,1,0,1Z" fill="#231f20"></path><path d="M177.2,133.8H144.54a.5.5,0,0,1-.5-.5.5.5,0,0,1,.5-.5H177.2a.5.5,0,0,1,.5.5A.5.5,0,0,1,177.2,133.8Z" fill="#d1d3d4"></path><path d="M177.2,138.59H144.54a.5.5,0,0,1,0-1H177.2a.5.5,0,0,1,0,1Z" fill="#d1d3d4"></path><path d="M177.2,143.38H144.54a.5.5,0,0,1-.5-.5.5.5,0,0,1,.5-.5H177.2a.5.5,0,0,1,.5.5A.5.5,0,0,1,177.2,143.38Z" fill="#d1d3d4"></path><path d="M177.2,148.16H144.54a.5.5,0,0,1-.5-.5.5.5,0,0,1,.5-.5H177.2a.5.5,0,0,1,.5.5A.5.5,0,0,1,177.2,148.16Z" fill="#d1d3d4"></path><path d="M177.2,153H144.54a.5.5,0,0,1,0-1H177.2a.5.5,0,0,1,0,1Z" fill="#d1d3d4"></path><path d="M177.2,157.74H144.54a.5.5,0,0,1-.5-.5.5.5,0,0,1,.5-.5H177.2a.5.5,0,0,1,.5.5A.5.5,0,0,1,177.2,157.74Z" fill="#d1d3d4"></path><path d="M177.2,162.52H144.54a.5.5,0,0,1-.5-.5.5.5,0,0,1,.5-.5H177.2a.5.5,0,0,1,.5.5A.5.5,0,0,1,177.2,162.52Z" fill="#d1d3d4"></path><path d="M177.2,167.31H144.54a.5.5,0,0,1-.5-.5.5.5,0,0,1,.5-.5H177.2a.5.5,0,0,1,.5.5A.5.5,0,0,1,177.2,167.31Z" fill="#d1d3d4"></path><path d="M177.2,172.09H144.54a.5.5,0,0,1-.5-.5.5.5,0,0,1,.5-.5H177.2a.5.5,0,0,1,.5.5A.5.5,0,0,1,177.2,172.09Z" fill="#d1d3d4"></path><path d="M177.2,176.88H144.54a.5.5,0,0,1-.5-.5.5.5,0,0,1,.5-.5H177.2a.5.5,0,0,1,.5.5A.5.5,0,0,1,177.2,176.88Z" fill="#d1d3d4"></path><path d="M177.2,181.67H144.54a.5.5,0,0,1-.5-.5.5.5,0,0,1,.5-.5H177.2a.5.5,0,0,1,.5.5A.5.5,0,0,1,177.2,181.67Z" fill="#d1d3d4"></path><path d="M185.37,249.94a.5.5,0,0,1-.5-.5V214.67a.5.5,0,0,1,.5-.5.51.51,0,0,1,.5.5v34.77A.51.51,0,0,1,185.37,249.94Z" fill="#d1d3d4"></path><path d="M188.61,249.94a.5.5,0,0,1-.5-.5V214.67a.5.5,0,0,1,.5-.5.51.51,0,0,1,.5.5v34.77A.51.51,0,0,1,188.61,249.94Z" fill="#d1d3d4"></path><path d="M191.84,249.94a.51.51,0,0,1-.5-.5V214.67a.51.51,0,0,1,.5-.5.5.5,0,0,1,.5.5v34.77A.5.5,0,0,1,191.84,249.94Z" fill="#d1d3d4"></path><path d="M131.19,227.09H107.26a.5.5,0,0,1-.5-.5.5.5,0,0,1,.5-.5h23.93a.5.5,0,0,1,.5.5A.5.5,0,0,1,131.19,227.09Z" fill="#d1d3d4"></path><path d="M131.19,230.85H107.26a.5.5,0,0,1-.5-.5.5.5,0,0,1,.5-.5h23.93a.5.5,0,0,1,.5.5A.5.5,0,0,1,131.19,230.85Z" fill="#d1d3d4"></path><path d="M131.19,234.6H107.26a.5.5,0,0,1-.5-.5.5.5,0,0,1,.5-.5h23.93a.5.5,0,0,1,.5.5A.5.5,0,0,1,131.19,234.6Z" fill="#d1d3d4"></path><path d="M131.19,238.36H107.26a.5.5,0,0,1-.5-.5.5.5,0,0,1,.5-.5h23.93a.5.5,0,0,1,.5.5A.5.5,0,0,1,131.19,238.36Z" fill="#d1d3d4"></path><path d="M131.19,242.11H107.26a.5.5,0,1,1,0-1h23.93a.5.5,0,0,1,0,1Z" fill="#d1d3d4"></path><path d="M131.19,245.86H107.26a.5.5,0,0,1-.5-.5.5.5,0,0,1,.5-.5h23.93a.5.5,0,0,1,.5.5A.5.5,0,0,1,131.19,245.86Z" fill="#d1d3d4"></path><path d="M131.19,249.62H107.26a.5.5,0,0,1-.5-.5.5.5,0,0,1,.5-.5h23.93a.5.5,0,0,1,.5.5A.5.5,0,0,1,131.19,249.62Z" fill="#d1d3d4"></path><path d="M55.38,252a.5.5,0,0,1-.5-.5V241.8a.5.5,0,0,1,1,0v9.68A.5.5,0,0,1,55.38,252Z" fill="#d1d3d4"></path><path d="M59.37,252a.5.5,0,0,1-.5-.5V241.8a.5.5,0,0,1,1,0v9.68A.5.5,0,0,1,59.37,252Z" fill="#d1d3d4"></path><path d="M63.36,252a.5.5,0,0,1-.5-.5V241.8a.5.5,0,0,1,.5-.5.5.5,0,0,1,.5.5v9.68A.5.5,0,0,1,63.36,252Z" fill="#d1d3d4"></path><path d="M67.35,252a.5.5,0,0,1-.5-.5V241.8a.5.5,0,0,1,.5-.5.5.5,0,0,1,.5.5v9.68A.5.5,0,0,1,67.35,252Z" fill="#d1d3d4"></path><path d="M71.34,252a.5.5,0,0,1-.5-.5V241.8a.5.5,0,0,1,.5-.5.5.5,0,0,1,.5.5v9.68A.5.5,0,0,1,71.34,252Z" fill="#d1d3d4"></path><path d="M75.32,252a.5.5,0,0,1-.5-.5V241.8a.5.5,0,0,1,.5-.5.5.5,0,0,1,.5.5v9.68A.5.5,0,0,1,75.32,252Z" fill="#d1d3d4"></path><path d="M79.31,252a.5.5,0,0,1-.5-.5V241.8a.5.5,0,0,1,.5-.5.5.5,0,0,1,.5.5v9.68A.5.5,0,0,1,79.31,252Z" fill="#d1d3d4"></path><path d="M83.3,252a.5.5,0,0,1-.5-.5V241.8a.5.5,0,0,1,.5-.5.5.5,0,0,1,.5.5v9.68A.5.5,0,0,1,83.3,252Z" fill="#d1d3d4"></path><path d="M87.29,252a.5.5,0,0,1-.5-.5V241.8a.5.5,0,0,1,1,0v9.68A.5.5,0,0,1,87.29,252Z" fill="#d1d3d4"></path><path d="M91.28,252a.5.5,0,0,1-.5-.5V241.8a.5.5,0,0,1,1,0v9.68A.5.5,0,0,1,91.28,252Z" fill="#d1d3d4"></path><path d="M95.27,252a.5.5,0,0,1-.5-.5V241.8a.5.5,0,0,1,.5-.5.5.5,0,0,1,.5.5v9.68A.5.5,0,0,1,95.27,252Z" fill="#d1d3d4"></path><path d="M99.26,252a.5.5,0,0,1-.5-.5V241.8a.5.5,0,0,1,.5-.5.5.5,0,0,1,.5.5v9.68A.5.5,0,0,1,99.26,252Z" fill="#d1d3d4"></path><path d="M222.25,252.62a.5.5,0,0,1-.5-.5v-12.2a.5.5,0,0,1,.5-.5.5.5,0,0,1,.5.5v12.2A.5.5,0,0,1,222.25,252.62Z" fill="#d1d3d4"></path><path d="M243.65,252.62a.5.5,0,0,1-.5-.5v-12.2a.5.5,0,0,1,1,0v12.2A.5.5,0,0,1,243.65,252.62Z" fill="#d1d3d4"></path><path d="M225.63,213.39a.5.5,0,0,1-.5-.5v-30a.5.5,0,0,1,1,0v30A.5.5,0,0,1,225.63,213.39Z" fill="#d1d3d4"></path><path d="M233.23,213.39a.5.5,0,0,1-.5-.5v-30a.5.5,0,0,1,.5-.5.5.5,0,0,1,.5.5v30A.5.5,0,0,1,233.23,213.39Z" fill="#d1d3d4"></path><path d="M240.83,213.39a.5.5,0,0,1-.5-.5v-30a.5.5,0,0,1,.5-.5.5.5,0,0,1,.5.5v30A.5.5,0,0,1,240.83,213.39Z" fill="#d1d3d4"></path><path d="M246.84,219.58H219.62a.5.5,0,0,1-.5-.5.51.51,0,0,1,.5-.5h27.22a.5.5,0,0,1,.5.5A.5.5,0,0,1,246.84,219.58Z" fill="#231f20"></path><path d="M267.86,145.28a.52.52,0,0,1-.52-.53V124.48a.53.53,0,1,1,1.05,0v20.27A.53.53,0,0,1,267.86,145.28Z" fill="#231f20"></path><rect x="297.43" y="218.1" width="21.68" height="36.08" fill="#fff"></rect><path d="M319.11,254.68H297.43a.5.5,0,0,1-.5-.5V218.1a.5.5,0,0,1,.5-.5h21.68a.5.5,0,0,1,.5.5v36.08A.5.5,0,0,1,319.11,254.68Zm-21.18-1h20.68V218.6H297.93Z" fill="#231f20"></path><rect x="288.14" y="121.76" width="24.21" height="132.42" fill="#fff"></rect><path d="M312.35,254.68H288.14a.5.5,0,0,1-.5-.5V121.76a.5.5,0,0,1,.5-.5h24.21a.5.5,0,0,1,.5.5V254.18A.5.5,0,0,1,312.35,254.68Zm-23.71-1h23.21V122.26H288.64Z" fill="#231f20"></path><path d="M291.94,108.6a.5.5,0,0,1-.5-.5v-3.45a.5.5,0,0,1,.5-.5.51.51,0,0,1,.5.5v3.45A.5.5,0,0,1,291.94,108.6Z" fill="#231f20"></path><polygon points="308.55 108.1 304.75 114.58 312.35 114.58 308.55 108.1" fill="#fff"></polygon><path d="M312.35,115.08h-7.6a.5.5,0,0,1-.43-.75l3.8-6.48a.51.51,0,0,1,.86,0l3.8,6.48a.5.5,0,0,1-.43.75Zm-6.73-1h5.86l-2.93-5Z" fill="#231f20"></path><path d="M308.55,108.6a.5.5,0,0,1-.5-.5v-3.45a.5.5,0,0,1,1,0v3.45A.5.5,0,0,1,308.55,108.6Z" fill="#231f20"></path><rect x="322.11" y="182.01" width="34.54" height="72.17" fill="#fff"></rect><path d="M356.65,254.68H322.11a.5.5,0,0,1-.5-.5V182a.5.5,0,0,1,.5-.5h34.54a.5.5,0,0,1,.5.5v72.17A.5.5,0,0,1,356.65,254.68Zm-34-1h33.54V182.51H322.61Z" fill="#231f20"></path><rect x="328.87" y="173.47" width="24.4" height="8.54" fill="#fff"></rect><path d="M353.27,182.51h-24.4a.5.5,0,0,1-.5-.5v-8.54a.5.5,0,0,1,.5-.5h24.4a.5.5,0,0,1,.5.5V182A.5.5,0,0,1,353.27,182.51Zm-23.9-1h23.4V174h-23.4Z" fill="#231f20"></path><rect x="192.24" y="69.67" width="23.23" height="3.94" fill="#231f20"></rect><path d="M215.47,74.14H192.24a.53.53,0,0,1-.53-.53V69.67a.53.53,0,0,1,.53-.53h23.23a.53.53,0,0,1,.53.53v3.94A.53.53,0,0,1,215.47,74.14Zm-22.7-1.06h22.17V70.2H192.77Z" fill="#231f20"></path><rect x="193.58" y="54.33" width="3.8" height="15.35" fill="#231f20"></rect><path d="M197.38,70.2h-3.8a.53.53,0,0,1-.53-.53V54.33a.53.53,0,0,1,.53-.53h3.8a.53.53,0,0,1,.53.53V69.67A.53.53,0,0,1,197.38,70.2Zm-3.27-1.06h2.74V54.85h-2.74Z" fill="#231f20"></path><rect x="210.33" y="54.33" width="3.8" height="15.35" fill="#231f20"></rect><path d="M214.13,70.2h-3.8a.53.53,0,0,1-.53-.53V54.33a.53.53,0,0,1,.53-.53h3.8a.53.53,0,0,1,.53.53V69.67A.53.53,0,0,1,214.13,70.2Zm-3.27-1.06h2.75V54.85h-2.75Z" fill="#231f20"></path><path d="M309,130.42H291.52a.5.5,0,0,1-.5-.5.5.5,0,0,1,.5-.5H309a.5.5,0,0,1,.5.5A.5.5,0,0,1,309,130.42Z" fill="#d1d3d4"></path><path d="M309,135.12H291.52a.5.5,0,0,1-.5-.5.5.5,0,0,1,.5-.5H309a.5.5,0,0,1,.5.5A.5.5,0,0,1,309,135.12Z" fill="#d1d3d4"></path><path d="M309,139.81H291.52a.5.5,0,0,1,0-1H309a.5.5,0,0,1,0,1Z" fill="#d1d3d4"></path><path d="M309,144.5H291.52a.5.5,0,0,1-.5-.5.5.5,0,0,1,.5-.5H309a.5.5,0,0,1,.5.5A.5.5,0,0,1,309,144.5Z" fill="#d1d3d4"></path><path d="M309,149.19H291.52a.5.5,0,0,1-.5-.5.5.5,0,0,1,.5-.5H309a.5.5,0,0,1,.5.5A.5.5,0,0,1,309,149.19Z" fill="#d1d3d4"></path><path d="M309,153.89H291.52a.5.5,0,0,1-.5-.5.5.5,0,0,1,.5-.5H309a.5.5,0,0,1,.5.5A.5.5,0,0,1,309,153.89Z" fill="#d1d3d4"></path><path d="M309,158.58H291.52a.5.5,0,0,1,0-1H309a.5.5,0,0,1,0,1Z" fill="#d1d3d4"></path><path d="M309,163.27H291.52a.5.5,0,0,1-.5-.5.5.5,0,0,1,.5-.5H309a.5.5,0,0,1,.5.5A.5.5,0,0,1,309,163.27Z" fill="#d1d3d4"></path><path d="M309,168H291.52a.5.5,0,0,1-.5-.5.5.5,0,0,1,.5-.5H309a.5.5,0,0,1,.5.5A.5.5,0,0,1,309,168Z" fill="#d1d3d4"></path><path d="M309,172.66H291.52a.5.5,0,0,1-.5-.5.5.5,0,0,1,.5-.5H309a.5.5,0,0,1,.5.5A.5.5,0,0,1,309,172.66Z" fill="#d1d3d4"></path><path d="M309,177.35H291.52a.5.5,0,0,1,0-1H309a.5.5,0,0,1,0,1Z" fill="#d1d3d4"></path><path d="M309,182H291.52a.5.5,0,0,1-.5-.5.5.5,0,0,1,.5-.5H309a.5.5,0,0,1,.5.5A.5.5,0,0,1,309,182Z" fill="#d1d3d4"></path><path d="M309,186.74H291.52a.5.5,0,0,1-.5-.5.5.5,0,0,1,.5-.5H309a.5.5,0,0,1,.5.5A.5.5,0,0,1,309,186.74Z" fill="#d1d3d4"></path><path d="M309,191.43H291.52a.5.5,0,0,1,0-1H309a.5.5,0,0,1,0,1Z" fill="#d1d3d4"></path><path d="M309,196.12H291.52a.5.5,0,0,1,0-1H309a.5.5,0,0,1,0,1Z" fill="#d1d3d4"></path><path d="M309,200.81H291.52a.5.5,0,0,1-.5-.5.5.5,0,0,1,.5-.5H309a.5.5,0,0,1,.5.5A.5.5,0,0,1,309,200.81Z" fill="#d1d3d4"></path><path d="M309,205.51H291.52a.5.5,0,0,1-.5-.5.5.5,0,0,1,.5-.5H309a.5.5,0,0,1,.5.5A.5.5,0,0,1,309,205.51Z" fill="#d1d3d4"></path><path d="M309,210.2H291.52a.5.5,0,0,1,0-1H309a.5.5,0,0,1,0,1Z" fill="#d1d3d4"></path><path d="M309,214.89H291.52a.5.5,0,0,1-.5-.5.5.5,0,0,1,.5-.5H309a.5.5,0,0,1,.5.5A.5.5,0,0,1,309,214.89Z" fill="#d1d3d4"></path><path d="M309,219.58H291.52a.5.5,0,0,1-.5-.5.5.5,0,0,1,.5-.5H309a.5.5,0,0,1,.5.5A.5.5,0,0,1,309,219.58Z" fill="#d1d3d4"></path><path d="M309,224.28H291.52a.5.5,0,0,1-.5-.5.5.5,0,0,1,.5-.5H309a.5.5,0,0,1,.5.5A.5.5,0,0,1,309,224.28Z" fill="#d1d3d4"></path><path d="M309,229H291.52a.5.5,0,0,1,0-1H309a.5.5,0,0,1,0,1Z" fill="#d1d3d4"></path><path d="M309,233.66H291.52a.5.5,0,0,1-.5-.5.5.5,0,0,1,.5-.5H309a.5.5,0,0,1,.5.5A.5.5,0,0,1,309,233.66Z" fill="#d1d3d4"></path><path d="M309,238.36H291.52a.5.5,0,0,1-.5-.5.5.5,0,0,1,.5-.5H309a.5.5,0,0,1,.5.5A.5.5,0,0,1,309,238.36Z" fill="#d1d3d4"></path><path d="M309,243.05H291.52a.5.5,0,0,1-.5-.5.5.5,0,0,1,.5-.5H309a.5.5,0,0,1,.5.5A.5.5,0,0,1,309,243.05Z" fill="#d1d3d4"></path><path d="M331.13,249.37a.5.5,0,0,1-.5-.5V187.33a.5.5,0,0,1,.5-.5.5.5,0,0,1,.5.5v61.54A.51.51,0,0,1,331.13,249.37Z" fill="#d1d3d4"></path><path d="M339.38,249.37a.5.5,0,0,1-.5-.5V187.33a.5.5,0,0,1,1,0v61.54A.5.5,0,0,1,339.38,249.37Z" fill="#d1d3d4"></path><path d="M347.63,249.37a.51.51,0,0,1-.5-.5V187.33a.5.5,0,0,1,.5-.5.5.5,0,0,1,.5.5v61.54A.5.5,0,0,1,347.63,249.37Z" fill="#d1d3d4"></path><path d="M164.87,110.59a155,155,0,0,1-57.18,2.61c-3.84-.55-7.86-1.22-11.49.15-2.66,1-4.8,3-7.17,4.56a25.1,25.1,0,0,1-16.82,3.91c-10.89-1.38-21.54,3.06-32.81,5.1V69.55a26.88,26.88,0,0,1,10,1.22c4.1,1.5,7.73,5.14,7.84,9.5S54.71,90.8,58.81,92.48a98.84,98.84,0,0,1,29.91-8.72c6.2-.78,13-.84,18.15,2.66s7.44,11.75,2.95,16.1c13.86,5.44,28.79,11,43.29,7.6C157.1,109.19,161.87,107.78,164.87,110.59Z" fill="#fff"></path><path d="M360.6,254.68H39.4a.5.5,0,0,1-.5-.5V45.82a.5.5,0,0,1,.5-.5H360.6a.5.5,0,0,1,.5.5V254.18A.5.5,0,0,1,360.6,254.68Zm-320.7-1H360.1V46.32H39.9Z" fill="#231f20"></path></svg>