<svg xmlns="http://www.w3.org/2000/svg" xmlns:xlink="http://www.w3.org/1999/xlink" version="1.1" width="1000" height="1000" viewBox="0 0 1000 1000" xml:space="preserve">
<desc>Created with Fabric.js 3.5.0</desc>
<defs>
</defs>
<rect x="0" y="0" width="100%" height="100%" fill="rgba(255,255,255,0)"/>
<g transform="matrix(2.2391 0 0 2.2391 499.9918 499.9939)" id="263343">
<g style="" vector-effect="non-scaling-stroke">
		<g transform="matrix(1.015 0 0 1.015 73.0851 -74.4615)" id="_336_ecology_flatline">
<path style="stroke: none; stroke-width: 1; stroke-dasharray: none; stroke-linecap: butt; stroke-dashoffset: 0; stroke-linejoin: miter; stroke-miterlimit: 4; is-custom-font: none; font-file-url: none; fill: rgb(104,225,253); fill-rule: nonzero; opacity: 1;" transform=" translate(-272.005, -75.9)" d="M 301.74 83.15 c 0 20.85 -13.31 30.5 -29.73 30.5 s -29.74 -9.65 -29.74 -30.5 s 13.31 -45 29.74 -45 S 301.74 62.29 301.74 83.15 Z" stroke-linecap="round"/>
</g>
		<g transform="matrix(1.015 0 0 1.015 73.0749 -74.4717)" id="_336_ecology_flatline">
<path style="stroke: none; stroke-width: 1; stroke-dasharray: none; stroke-linecap: butt; stroke-dashoffset: 0; stroke-linejoin: miter; stroke-miterlimit: 4; is-custom-font: none; font-file-url: none; fill: rgb(35,31,32); fill-rule: nonzero; opacity: 1;" transform=" translate(-271.995, -75.89)" d="M 272 114.1 c -8.66 0 -16 -2.61 -21.34 -7.55 c -5.79 -5.4 -8.86 -13.5 -8.86 -23.4 a 60.38 60.38 0 0 1 8.78 -30.57 c 6 -9.61 13.59 -14.9 21.42 -14.9 s 15.43 5.29 21.41 14.9 a 60.28 60.28 0 0 1 8.78 30.57 c 0 9.9 -3.07 18 -8.86 23.4 C 288 111.49 280.67 114.1 272 114.1 Z m 0 -75.51 c -16.22 0 -29.28 24.38 -29.28 44.56 c 0 14.52 7.69 30 29.28 30 s 29.27 -15.52 29.27 -30 C 301.28 63 288.22 38.59 272 38.59 Z" stroke-linecap="round"/>
</g>
		<g transform="matrix(1.015 0 0 1.015 73.0902 -52.1365)" id="_336_ecology_flatline">
<polygon style="stroke: none; stroke-width: 1; stroke-dasharray: none; stroke-linecap: butt; stroke-dashoffset: 0; stroke-linejoin: miter; stroke-miterlimit: 4; is-custom-font: none; font-file-url: none; fill: rgb(255,255,255); fill-rule: nonzero; opacity: 1;" points="1.03,-40.885 4.15,40.885 -4.15,40.885 1.03,-40.885 "/>
</g>
		<g transform="matrix(1.015 0 0 1.015 73.08 -52.1265)" id="_336_ecology_flatline">
<path style="stroke: none; stroke-width: 1; stroke-dasharray: none; stroke-linecap: butt; stroke-dashoffset: 0; stroke-linejoin: miter; stroke-miterlimit: 4; is-custom-font: none; font-file-url: none; fill: rgb(35,31,32); fill-rule: nonzero; opacity: 1;" transform=" translate(-272, -97.905)" d="M 276.16 139.24 h -8.31 a 0.47 0.47 0 0 1 -0.33 -0.14 a 0.5 0.5 0 0 1 -0.12 -0.35 L 272.59 57 a 0.45 0.45 0 0 1 0.45 -0.43 h 0 a 0.46 0.46 0 0 1 0.45 0.44 l 3.11 81.78 a 0.45 0.45 0 0 1 -0.12 0.33 A 0.47 0.47 0 0 1 276.16 139.24 Z m -7.82 -0.91 h 7.34 L 272.93 66 Z" stroke-linecap="round"/>
</g>
		<g transform="matrix(1.015 0 0 1.015 16.5421 -73.4637)" id="_336_ecology_flatline">
<path style="stroke: none; stroke-width: 1; stroke-dasharray: none; stroke-linecap: butt; stroke-dashoffset: 0; stroke-linejoin: miter; stroke-miterlimit: 4; is-custom-font: none; font-file-url: none; fill: rgb(104,225,253); fill-rule: nonzero; opacity: 1;" transform=" translate(-216.2976, -76.883)" d="M 246.45 82.39 a 21.63 21.63 0 0 1 -0.52 5.94 a 22 22 0 0 1 -4.29 9.79 c -2.33 2.79 -4.86 3.46 -8.12 4.47 c -3 0.91 -5.81 2.36 -8.89 3.12 a 47.24 47.24 0 0 1 -21.06 0.26 c -6.12 -1.34 -12 -4.76 -15.19 -10.15 s -3.14 -12.85 1 -17.56 c 1.78 -2 4.45 -5.43 7.28 -5.47 c -0.27 -1.85 -1 -3.68 -0.68 -5.62 a 4.81 4.81 0 0 1 3.21 -4.07 c 0.7 -0.18 1.63 -0.29 1.78 -1 a 1.86 1.86 0 0 0 -0.11 -0.84 c -0.82 -3 1.08 -6 3.06 -8.46 a 17.14 17.14 0 0 1 4.3 -4 c 4.49 -2.68 13 -2.9 17.17 0.21 a 12.28 12.28 0 0 1 4.89 8.92 c -0.12 -1.75 7.19 2.44 7.82 3.83 a 16.79 16.79 0 0 1 0.16 11.85 c 3.22 -0.26 6.19 2.21 7.39 5.21 A 12.12 12.12 0 0 1 246.45 82.39 Z" stroke-linecap="round"/>
</g>
		<g transform="matrix(1.015 0 0 1.015 16.5583 -73.4874)" id="_336_ecology_flatline">
<path style="stroke: none; stroke-width: 1; stroke-dasharray: none; stroke-linecap: butt; stroke-dashoffset: 0; stroke-linejoin: miter; stroke-miterlimit: 4; is-custom-font: none; font-file-url: none; fill: rgb(35,31,32); fill-rule: nonzero; opacity: 1;" transform=" translate(-216.3136, -76.8597)" d="M 213.57 107.48 a 47.26 47.26 0 0 1 -10.1 -1.07 c -6.82 -1.48 -12.46 -5.26 -15.48 -10.36 c -3.46 -5.85 -3 -13.46 1 -18.09 l 0.51 -0.58 c 1.71 -2 4 -4.64 6.59 -5 c -0.07 -0.39 -0.16 -0.78 -0.24 -1.17 a 11.65 11.65 0 0 1 -0.37 -4.1 a 5.28 5.28 0 0 1 3.56 -4.44 l 0.29 -0.07 c 0.63 -0.15 1.09 -0.28 1.15 -0.59 a 1.29 1.29 0 0 0 -0.07 -0.52 l 0 -0.1 c -0.92 -3.39 1.36 -6.69 3.15 -8.87 A 17.82 17.82 0 0 1 208 48.37 c 4.44 -2.64 13.13 -3.12 17.68 0.24 a 12.76 12.76 0 0 1 5 8.42 c 1.78 -0.06 7.26 3.18 7.86 4.51 a 17.24 17.24 0 0 1 0.4 11.57 c 3.3 0.09 6.06 2.75 7.16 5.51 a 12.63 12.63 0 0 1 0.83 3.74 a 21.92 21.92 0 0 1 -0.52 6.06 a 22.33 22.33 0 0 1 -4.39 10 c -2.3 2.74 -4.74 3.5 -7.84 4.45 l -0.5 0.15 c -1.23 0.38 -2.48 0.87 -3.69 1.35 a 41.1 41.1 0 0 1 -5.22 1.78 A 46.53 46.53 0 0 1 213.57 107.48 Z M 217 47.17 a 17.52 17.52 0 0 0 -8.53 2 a 17 17 0 0 0 -4.19 3.93 c -1.66 2 -3.78 5.07 -3 8 a 2.25 2.25 0 0 1 0.12 1 c -0.19 0.9 -1.15 1.13 -1.84 1.29 l -0.28 0.07 a 4.33 4.33 0 0 0 -2.87 3.68 a 10.61 10.61 0 0 0 0.35 3.78 c 0.12 0.57 0.25 1.14 0.33 1.71 a 0.46 0.46 0 0 1 -0.11 0.37 a 0.48 0.48 0 0 1 -0.34 0.16 c -2.37 0 -4.72 2.75 -6.43 4.73 l -0.51 0.58 c -3.81 4.34 -4.21 11.5 -0.94 17 c 2.88 4.89 8.31 8.51 14.89 9.94 a 47 47 0 0 0 20.85 -0.25 a 42.58 42.58 0 0 0 5.1 -1.75 c 1.23 -0.48 2.49 -1 3.76 -1.37 l 0.5 -0.15 c 3 -0.91 5.29 -1.63 7.41 -4.17 a 21.43 21.43 0 0 0 4.2 -9.59 a 21.33 21.33 0 0 0 0.5 -5.81 h 0 a 11.45 11.45 0 0 0 -0.77 -3.47 c -1.05 -2.64 -3.77 -5.18 -6.93 -4.93 a 0.46 0.46 0 0 1 -0.4 -0.18 a 0.47 0.47 0 0 1 -0.06 -0.43 a 16.29 16.29 0 0 0 -0.15 -11.5 c -0.5 -1.11 -5.9 -4.2 -7 -4 a 0.46 0.46 0 0 1 -0.91 0 a 11.76 11.76 0 0 0 -4.7 -8.58 A 14 14 0 0 0 217 47.17 Z" stroke-linecap="round"/>
</g>
		<g transform="matrix(1.015 0 0 1.015 17.9655 -57.3334)" id="_336_ecology_flatline">
<polygon style="stroke: none; stroke-width: 1; stroke-dasharray: none; stroke-linecap: butt; stroke-dashoffset: 0; stroke-linejoin: miter; stroke-miterlimit: 4; is-custom-font: none; font-file-url: none; fill: rgb(255,255,255); fill-rule: nonzero; opacity: 1;" points="15.68,-20.115 1.94,-11.015 1.24,-33.895 -0.09,-28.905 -0.39,-3.665 -15.5,-17.035 -15.68,-15.585 -0.54,-0.955 -2.41,33.895 3.32,33.895 2.07,-6.865 14.41,-17.035 15.68,-20.115 "/>
</g>
		<g transform="matrix(1.015 0 0 1.015 17.9571 -57.3352)" id="_336_ecology_flatline">
<path style="stroke: none; stroke-width: 1; stroke-dasharray: none; stroke-linecap: butt; stroke-dashoffset: 0; stroke-linejoin: miter; stroke-miterlimit: 4; is-custom-font: none; font-file-url: none; fill: rgb(35,31,32); fill-rule: nonzero; opacity: 1;" transform=" translate(-217.6917, -92.7732)" d="M 221 127.13 h -5.73 A 0.44 0.44 0 0 1 215 127 a 0.48 0.48 0 0 1 -0.13 -0.34 L 216.7 92 l -15 -14.48 a 0.47 0.47 0 0 1 -0.13 -0.39 l 0.18 -1.45 a 0.45 0.45 0 0 1 0.29 -0.37 a 0.45 0.45 0 0 1 0.47 0.09 l 14.35 12.7 l 0.29 -24.24 a 0.36 0.36 0 0 1 0 -0.11 l 1.32 -5 a 0.46 0.46 0 0 1 0.5 -0.33 a 0.44 0.44 0 0 1 0.4 0.44 l 0.68 22.06 l 13.06 -8.65 a 0.47 0.47 0 0 1 0.54 0 a 0.45 0.45 0 0 1 0.13 0.53 l -1.27 3.08 a 0.38 0.38 0 0 1 -0.13 0.18 l -12.17 10 l 1.25 40.54 a 0.46 0.46 0 0 1 -0.13 0.33 A 0.47 0.47 0 0 1 221 127.13 Z m -5.25 -0.91 h 4.78 l -1.24 -40.29 a 0.48 0.48 0 0 1 0.17 -0.37 l 12.25 -10.1 l 0.66 -1.6 l -12.5 8.28 a 0.47 0.47 0 0 1 -0.46 0 a 0.48 0.48 0 0 1 -0.25 -0.4 L 218.58 62 l -0.51 1.92 l -0.3 25.18 a 0.49 0.49 0 0 1 -0.28 0.42 a 0.45 0.45 0 0 1 -0.48 -0.08 l -14.46 -12.8 l -0.05 0.37 l 15 14.47 a 0.43 0.43 0 0 1 0.14 0.35 Z" stroke-linecap="round"/>
</g>
		<g transform="matrix(1.015 0 0 1.015 49.7401 19.944)" id="_336_ecology_flatline">
<path style="stroke: none; stroke-width: 1; stroke-dasharray: none; stroke-linecap: butt; stroke-dashoffset: 0; stroke-linejoin: miter; stroke-miterlimit: 4; is-custom-font: none; font-file-url: none; fill: rgb(35,31,32); fill-rule: nonzero; opacity: 1;" transform=" translate(-249.005, -168.9103)" d="M 169.84 148.14 s 2 -14.89 42.33 -22.73 s 83.08 9.41 98 23.52 s 18 27.43 18 27.43 s -57.61 45.85 -84.26 36.84 S 169.84 148.14 169.84 148.14 Z" stroke-linecap="round"/>
</g>
		<g transform="matrix(1.015 0 0 1.015 49.7393 19.9509)" id="_336_ecology_flatline">
<path style="stroke: none; stroke-width: 1; stroke-dasharray: none; stroke-linecap: butt; stroke-dashoffset: 0; stroke-linejoin: miter; stroke-miterlimit: 4; is-custom-font: none; font-file-url: none; fill: rgb(35,31,32); fill-rule: nonzero; opacity: 1;" transform=" translate(-249.0042, -168.9171)" d="M 251.82 214.82 a 24.84 24.84 0 0 1 -8 -1.21 C 217.31 204.67 170 149 169.51 148.43 a 0.43 0.43 0 0 1 -0.1 -0.34 c 0.08 -0.63 2.46 -15.3 42.67 -23.11 c 39.76 -7.72 82.67 8.76 98.36 23.63 c 14.82 14 18.12 27.51 18.15 27.65 a 0.43 0.43 0 0 1 -0.15 0.44 C 326.3 178.41 280.19 214.82 251.82 214.82 Z M 170.32 148 c 2.86 3.36 48.21 56.13 73.73 64.76 c 25.28 8.55 79.64 -33.48 83.62 -36.59 c -0.55 -1.95 -4.37 -14.19 -17.83 -26.94 c -15.56 -14.74 -58.12 -31.07 -97.59 -23.4 C 175.18 133.05 170.74 146.32 170.32 148 Z" stroke-linecap="round"/>
</g>
		<g transform="matrix(1.015 0 0 1.015 4.5801 48.7713)" id="_336_ecology_flatline">
<path style="stroke: none; stroke-width: 1; stroke-dasharray: none; stroke-linecap: butt; stroke-dashoffset: 0; stroke-linejoin: miter; stroke-miterlimit: 4; is-custom-font: none; font-file-url: none; fill: rgb(255,255,255); fill-rule: nonzero; opacity: 1;" transform=" translate(-204.5124, -197.3116)" d="M 123.21 253.56 S 155 214.37 159.26 213.2 S 202 235.93 249 227.7 s 97.58 -39.58 97.19 -47.81 s -8 -14.9 -15.1 -14.9 S 258 186.94 258 186.94 s -49.65 -47.16 -107.77 -45.85 c -34.88 0.78 -86.61 78.38 -87.39 79.16 S 123.21 253.56 123.21 253.56 Z" stroke-linecap="round"/>
</g>
		<g transform="matrix(1.015 0 0 1.015 4.6327 48.7875)" id="_336_ecology_flatline">
<path style="stroke: none; stroke-width: 1; stroke-dasharray: none; stroke-linecap: butt; stroke-dashoffset: 0; stroke-linejoin: miter; stroke-miterlimit: 4; is-custom-font: none; font-file-url: none; fill: rgb(35,31,32); fill-rule: nonzero; opacity: 1;" transform=" translate(-204.5643, -197.3275)" d="M 123.21 254 A 0.46 0.46 0 0 1 123 254 c -27.54 -14.65 -60.41 -32.38 -60.59 -33.62 a 0.49 0.49 0 0 1 0.14 -0.41 l 1 -1.39 c 16.31 -23.2 57.42 -77.25 86.72 -77.91 c 55.79 -1.27 104.36 42.53 107.89 45.79 c 5.14 -1.71 66.07 -21.89 73 -21.89 s 15.14 6.56 15.56 15.34 c 0.43 9 -51.39 40.2 -97.57 48.28 c -35.54 6.21 -66.21 -5.87 -81 -11.68 c -4.37 -1.72 -7.83 -3.08 -8.75 -2.83 c -3.42 0.93 -27 29.34 -35.82 40.21 A 0.46 0.46 0 0 1 123.21 254 Z M 63.45 220.23 c 3.17 2.43 36.85 20.62 59.64 32.75 c 3.15 -3.87 31.8 -39.06 36 -40.22 c 1.16 -0.32 3.7 0.65 9.33 2.86 c 14.66 5.78 45.16 17.8 80.46 11.63 c 47.17 -8.26 97.17 -39.8 96.81 -47.34 c -0.4 -8.28 -8.06 -14.46 -14.65 -14.46 c -6.9 0 -72.27 21.7 -72.93 21.92 a 0.44 0.44 0 0 1 -0.46 -0.1 c -0.49 -0.47 -50.18 -47 -107.44 -45.72 c -28.88 0.65 -69.76 54.43 -86 77.52 Z" stroke-linecap="round"/>
</g>
		<g transform="matrix(1.015 0 0 1.015 25.6993 31.5127)" id="_336_ecology_flatline">
<path style="stroke: none; stroke-width: 1; stroke-dasharray: none; stroke-linecap: butt; stroke-dashoffset: 0; stroke-linejoin: miter; stroke-miterlimit: 4; is-custom-font: none; font-file-url: none; fill: rgb(255,255,255); fill-rule: nonzero; opacity: 1;" transform=" translate(-225.3195, -180.3081)" d="M 179.25 159.51 s 19.59 9.8 33.31 10.19 s 44.67 0.39 53.69 4.31 s 13.71 17.24 9.4 21.55 s -69.75 8.23 -102.28 3.14" stroke-linecap="round"/>
</g>
		<g transform="matrix(1.015 0 0 1.015 25.6971 31.5009)" id="_336_ecology_flatline">
<path style="stroke: none; stroke-width: 1; stroke-dasharray: none; stroke-linecap: butt; stroke-dashoffset: 0; stroke-linejoin: miter; stroke-miterlimit: 4; is-custom-font: none; font-file-url: none; fill: rgb(35,31,32); fill-rule: nonzero; opacity: 1;" transform=" translate(-225.3173, -180.2965)" d="M 214 201.58 c -14.9 0 -29.66 -0.7 -40.69 -2.43 a 0.45 0.45 0 0 1 -0.38 -0.52 a 0.45 0.45 0 0 1 0.52 -0.38 c 33.55 5.25 98.07 0.81 101.89 -3 c 1.36 -1.36 1.81 -3.9 1.23 -7 c -0.92 -4.88 -4.6 -11.3 -10.49 -13.86 c -7.62 -3.31 -31 -3.8 -46.54 -4.12 c -2.61 -0.05 -5 -0.1 -7 -0.16 c -13.66 -0.39 -33.31 -10.14 -33.51 -10.23 a 0.47 0.47 0 0 1 -0.2 -0.62 a 0.46 0.46 0 0 1 0.61 -0.2 c 0.2 0.1 19.67 9.76 33.12 10.14 c 2 0.06 4.37 0.11 7 0.16 c 15.57 0.32 39.1 0.81 46.88 4.19 c 6.2 2.69 10.06 9.42 11 14.53 c 0.65 3.4 0.12 6.16 -1.48 7.76 C 273 198.87 243.23 201.58 214 201.58 Z" stroke-linecap="round"/>
</g>
		<g transform="matrix(1.015 0 0 1.015 48.8215 -46.549)" id="_336_ecology_flatline">
<path style="stroke: none; stroke-width: 1; stroke-dasharray: none; stroke-linecap: butt; stroke-dashoffset: 0; stroke-linejoin: miter; stroke-miterlimit: 4; is-custom-font: none; font-file-url: none; fill: rgb(104,225,253); fill-rule: nonzero; opacity: 1;" transform=" translate(-248.1, -103.4)" d="M 272.79 109.8 c 0 18.4 -11.05 26.91 -24.69 26.91 s -24.69 -8.51 -24.69 -26.91 s 11.06 -39.71 24.69 -39.71 S 272.79 91.41 272.79 109.8 Z" stroke-linecap="round"/>
</g>
		<g transform="matrix(1.015 0 0 1.015 48.8723 -46.5591)" id="_336_ecology_flatline">
<path style="stroke: none; stroke-width: 1; stroke-dasharray: none; stroke-linecap: butt; stroke-dashoffset: 0; stroke-linejoin: miter; stroke-miterlimit: 4; is-custom-font: none; font-file-url: none; fill: rgb(35,31,32); fill-rule: nonzero; opacity: 1;" transform=" translate(-248.15, -103.39)" d="M 248.1 137.17 C 229.56 137.17 223 123 223 109.8 a 55.69 55.69 0 0 1 7.29 -27 c 5 -8.5 11.32 -13.19 17.85 -13.19 S 261 74.32 266 82.82 a 55.7 55.7 0 0 1 7.3 27 C 273.25 123 266.64 137.17 248.1 137.17 Z m 0 -66.62 c -13.42 0 -24.23 21.47 -24.23 39.25 c 0 16.32 9.28 26.45 24.23 26.45 s 24.23 -10.13 24.23 -26.45 C 272.33 92 261.52 70.55 248.1 70.55 Z" stroke-linecap="round"/>
</g>
		<g transform="matrix(1.015 0 0 1.015 -3.0805 -46.4728)" id="_336_ecology_flatline">
<polygon style="stroke: none; stroke-width: 1; stroke-dasharray: none; stroke-linecap: butt; stroke-dashoffset: 0; stroke-linejoin: miter; stroke-miterlimit: 4; is-custom-font: none; font-file-url: none; fill: rgb(104,225,253); fill-rule: nonzero; opacity: 1;" points="-8.375,12.485 -20.995,26.525 20.995,26.525 8.385,12.485 17.265,12.485 6.665,-2.355 13.705,-2.355 0.005,-26.525 -13.695,-2.355 -6.655,-2.355 -17.265,12.485 -8.375,12.485 "/>
</g>
		<g transform="matrix(1.015 0 0 1.015 -3.079 -46.465)" id="_336_ecology_flatline">
<path style="stroke: none; stroke-width: 1; stroke-dasharray: none; stroke-linecap: butt; stroke-dashoffset: 0; stroke-linejoin: miter; stroke-miterlimit: 4; is-custom-font: none; font-file-url: none; fill: rgb(35,31,32); fill-rule: nonzero; opacity: 1;" transform=" translate(-196.9665, -103.4827)" d="M 218 130.45 H 176 a 0.43 0.43 0 0 1 -0.41 -0.27 a 0.44 0.44 0 0 1 0.07 -0.49 l 11.94 -13.27 H 179.7 a 0.46 0.46 0 0 1 -0.4 -0.25 a 0.46 0.46 0 0 1 0 -0.48 l 10.09 -14.12 h -6.15 a 0.45 0.45 0 0 1 -0.4 -0.22 a 0.47 0.47 0 0 1 0 -0.46 l 13.7 -24.16 a 0.48 0.48 0 0 1 0.8 0 l 13.7 24.16 a 0.46 0.46 0 0 1 -0.4 0.68 h -6.15 l 10.09 14.12 a 0.47 0.47 0 0 1 -0.38 0.73 h -7.86 l 11.93 13.27 a 0.46 0.46 0 0 1 0.08 0.49 A 0.45 0.45 0 0 1 218 130.45 Z m -41 -0.91 h 39.94 L 205 116.27 a 0.48 0.48 0 0 1 -0.08 -0.5 a 0.46 0.46 0 0 1 0.42 -0.27 h 8 l -10.09 -14.12 a 0.45 0.45 0 0 1 0 -0.47 a 0.47 0.47 0 0 1 0.41 -0.25 h 6.26 L 197 77.88 l -12.92 22.78 h 6.26 a 0.45 0.45 0 0 1 0.37 0.72 L 180.59 115.5 h 8 a 0.46 0.46 0 0 1 0.34 0.77 Z" stroke-linecap="round"/>
</g>
		<g transform="matrix(1.015 0 0 1.015 -3.791 -34.3284)" id="_336_ecology_flatline">
<polygon style="stroke: none; stroke-width: 1; stroke-dasharray: none; stroke-linecap: butt; stroke-dashoffset: 0; stroke-linejoin: miter; stroke-miterlimit: 4; is-custom-font: none; font-file-url: none; fill: rgb(255,255,255); fill-rule: nonzero; opacity: 1;" points="1.965,29.23 -1.965,29.23 0.705,-29.23 1.965,29.23 "/>
</g>
		<g transform="matrix(1.015 0 0 1.015 -3.7605 -34.3171)" id="_336_ecology_flatline">
<path style="stroke: none; stroke-width: 1; stroke-dasharray: none; stroke-linecap: butt; stroke-dashoffset: 0; stroke-linejoin: miter; stroke-miterlimit: 4; is-custom-font: none; font-file-url: none; fill: rgb(35,31,32); fill-rule: nonzero; opacity: 1;" transform=" translate(-196.295, -115.4512)" d="M 198.23 145.12 H 194.3 A 0.44 0.44 0 0 1 194 145 a 0.46 0.46 0 0 1 -0.13 -0.33 l 2.67 -58.46 a 0.46 0.46 0 0 1 0.46 -0.43 h 0 a 0.46 0.46 0 0 1 0.46 0.44 l 1.26 58.46 a 0.46 0.46 0 0 1 -0.13 0.33 A 0.49 0.49 0 0 1 198.23 145.12 Z m -3.45 -0.91 h 3 l -1 -44.42 Z" stroke-linecap="round"/>
</g>
		<g transform="matrix(1.015 0 0 1.015 93.8013 -36.3201)" id="_336_ecology_flatline">
<path style="stroke: none; stroke-width: 1; stroke-dasharray: none; stroke-linecap: butt; stroke-dashoffset: 0; stroke-linejoin: miter; stroke-miterlimit: 4; is-custom-font: none; font-file-url: none; fill: rgb(104,225,253); fill-rule: nonzero; opacity: 1;" transform=" translate(-292.415, -113.4777)" d="M 318.48 117.2 a 10.09 10.09 0 0 1 0.13 8.15 c -2.09 4.81 -7.5 8.68 -11.46 11.87 c -7.79 6.26 -19 6.54 -27.67 1.89 a 38.29 38.29 0 0 1 -9 -7.13 a 20 20 0 0 1 -4 -5.19 a 11.7 11.7 0 0 1 1.76 -12.47 c 0.53 -0.6 2.08 -1.32 2.39 -1.95 c 0.6 -1.2 -0.18 -1 -0.23 -2.29 c -0.09 -2.21 -0.43 -3.79 0.5 -6 a 8.46 8.46 0 0 1 3 -4 c 1.36 -0.84 3.88 0.2 4.67 -0.38 c 0.95 -0.69 0.83 -4.17 2.14 -5.45 a 6.35 6.35 0 0 1 5.82 -1.58 c -1.4 -3.37 1.7 -7.34 5.3 -7.91 s 7.18 1.34 9.89 3.79 c 3.11 2.82 5.6 7.11 4.29 11.1 c 0.47 -1.43 7.32 3.52 7.83 4.11 c 2.71 3.12 2.21 6.26 0.81 10 A 6.48 6.48 0 0 1 318.48 117.2 Z" stroke-linecap="round"/>
</g>
		<g transform="matrix(1.015 0 0 1.015 93.8 -36.296)" id="_336_ecology_flatline">
<path style="stroke: none; stroke-width: 1; stroke-dasharray: none; stroke-linecap: butt; stroke-dashoffset: 0; stroke-linejoin: miter; stroke-miterlimit: 4; is-custom-font: none; font-file-url: none; fill: rgb(35,31,32); fill-rule: nonzero; opacity: 1;" transform=" translate(-292.4137, -113.5015)" d="M 292.15 142.76 a 27.31 27.31 0 0 1 -12.89 -3.25 a 39.67 39.67 0 0 1 -9.08 -7.21 a 20.8 20.8 0 0 1 -4.1 -5.31 a 12.17 12.17 0 0 1 1.83 -13 a 6.87 6.87 0 0 1 1.15 -0.89 a 4.28 4.28 0 0 0 1.17 -1 c 0.25 -0.5 0.2 -0.59 0.06 -0.86 a 2.66 2.66 0 0 1 -0.34 -1.21 c 0 -0.4 0 -0.78 -0.06 -1.14 a 9.87 9.87 0 0 1 0.6 -5 a 8.64 8.64 0 0 1 3.23 -4.2 a 5 5 0 0 1 3.1 -0.34 a 3.41 3.41 0 0 0 1.54 0 a 4.82 4.82 0 0 0 0.71 -2 a 5.69 5.69 0 0 1 6.86 -5.22 a 5.57 5.57 0 0 1 0.66 -4.05 a 7.53 7.53 0 0 1 5.23 -3.73 c 4.41 -0.7 8.32 2.14 10.26 3.9 c 2.87 2.6 5.48 6.7 4.65 10.75 c 2.14 0.28 7.19 4.13 7.51 4.5 c 2.7 3.1 2.42 6.26 1.06 10 a 7 7 0 0 1 3.59 3.52 h 0 a 10.63 10.63 0 0 1 0.14 8.53 c -1.9 4.37 -6.5 8 -10.19 10.93 l -1.41 1.12 A 24.32 24.32 0 0 1 292.15 142.76 Z m -16.63 -42.54 a 2.6 2.6 0 0 0 -1.32 0.28 a 7.9 7.9 0 0 0 -2.87 3.78 a 9.06 9.06 0 0 0 -0.53 4.62 c 0 0.37 0.05 0.76 0.07 1.16 a 1.68 1.68 0 0 0 0.23 0.83 a 1.53 1.53 0 0 1 -0.05 1.69 a 4.42 4.42 0 0 1 -1.48 1.3 a 6.17 6.17 0 0 0 -1 0.74 a 11.2 11.2 0 0 0 -1.69 12 a 20.15 20.15 0 0 0 3.93 5.07 a 38.67 38.67 0 0 0 8.87 7.05 c 8.93 4.78 19.85 4 27.16 -1.85 l 1.41 -1.12 c 3.81 -3 8.11 -6.42 9.92 -10.57 a 9.68 9.68 0 0 0 -0.12 -7.77 a 5.94 5.94 0 0 0 -3.5 -3.21 a 0.46 0.46 0 0 1 -0.27 -0.24 a 0.5 0.5 0 0 1 0 -0.36 c 1.42 -3.72 1.79 -6.61 -0.73 -9.5 c -1.57 -1.8 -6.75 -4.31 -7.1 -4.2 a 0.41 0.41 0 0 1 -0.55 0.26 a 0.48 0.48 0 0 1 -0.26 -0.61 h 0 c 1.27 -3.89 -1.32 -8 -4.17 -10.62 c -1.82 -1.65 -5.47 -4.31 -9.51 -3.68 a 6.69 6.69 0 0 0 -4.58 3.28 a 4.55 4.55 0 0 0 -0.37 4 a 0.47 0.47 0 0 1 -0.07 0.48 a 0.48 0.48 0 0 1 -0.46 0.14 a 5.9 5.9 0 0 0 -5.39 1.47 A 6.5 6.5 0 0 0 280 97.54 c -0.26 1.15 -0.48 2.14 -1.06 2.56 a 3.31 3.31 0 0 1 -2.17 0.2 A 12.09 12.09 0 0 0 275.52 100.22 Z" stroke-linecap="round"/>
</g>
		<g transform="matrix(1.015 0 0 1.015 92.1112 -18.8903)" id="_336_ecology_flatline">
<polygon style="stroke: none; stroke-width: 1; stroke-dasharray: none; stroke-linecap: butt; stroke-dashoffset: 0; stroke-linejoin: miter; stroke-miterlimit: 4; is-custom-font: none; font-file-url: none; fill: rgb(255,255,255); fill-rule: nonzero; opacity: 1;" points="14.51,-18.62 1.79,-10.2 1.14,-31.37 -0.08,-26.76 -0.36,-3.4 -14.34,-15.77 -14.51,-14.43 -0.5,-0.89 -2.23,31.37 3.07,31.37 1.91,-6.35 13.34,-15.77 14.51,-18.62 "/>
</g>
		<g transform="matrix(1.015 0 0 1.015 92.0883 -18.8687)" id="_336_ecology_flatline">
<path style="stroke: none; stroke-width: 1; stroke-dasharray: none; stroke-linecap: butt; stroke-dashoffset: 0; stroke-linejoin: miter; stroke-miterlimit: 4; is-custom-font: none; font-file-url: none; fill: rgb(35,31,32); fill-rule: nonzero; opacity: 1;" transform=" translate(-290.7274, -130.6712)" d="M 293.82 162.47 h -5.3 a 0.44 0.44 0 0 1 -0.33 -0.14 a 0.43 0.43 0 0 1 -0.13 -0.34 l 1.73 -32 l -13.87 -13.4 a 0.45 0.45 0 0 1 -0.13 -0.38 l 0.17 -1.35 a 0.45 0.45 0 0 1 0.75 -0.28 l 13.23 11.71 l 0.27 -22.36 a 0.36 0.36 0 0 1 0 -0.11 l 1.22 -4.62 a 0.46 0.46 0 0 1 0.9 0.11 l 0.63 20.35 l 12 -8 a 0.45 0.45 0 0 1 0.54 0 a 0.43 0.43 0 0 1 0.13 0.52 l -1.17 2.85 a 0.46 0.46 0 0 1 -0.13 0.18 l -11.25 9.28 L 294.28 162 a 0.43 0.43 0 0 1 -0.13 0.33 A 0.45 0.45 0 0 1 293.82 162.47 Z m -4.82 -0.91 h 4.35 l -1.14 -37.25 a 0.44 0.44 0 0 1 0.16 -0.37 l 11.34 -9.34 l 0.56 -1.37 l -11.47 7.6 a 0.44 0.44 0 0 1 -0.47 0 a 0.46 0.46 0 0 1 -0.24 -0.39 l -0.56 -18.06 l -0.41 1.55 l -0.27 23.3 a 0.46 0.46 0 0 1 -0.28 0.41 a 0.45 0.45 0 0 1 -0.48 -0.08 L 276.75 115.8 l 0 0.25 l 13.85 13.38 a 0.46 0.46 0 0 1 0.14 0.36 Z" stroke-linecap="round"/>
</g>
		<g transform="matrix(1.015 0 0 1.015 48.8266 -32.7907)" id="_336_ecology_flatline">
<polygon style="stroke: none; stroke-width: 1; stroke-dasharray: none; stroke-linecap: butt; stroke-dashoffset: 0; stroke-linejoin: miter; stroke-miterlimit: 4; is-custom-font: none; font-file-url: none; fill: rgb(255,255,255); fill-rule: nonzero; opacity: 1;" points="0.495,-35.415 2.015,35.415 -2.015,35.415 0.495,-35.415 "/>
</g>
		<g transform="matrix(1.015 0 0 1.015 48.8366 -32.7905)" id="_336_ecology_flatline">
<path style="stroke: none; stroke-width: 1; stroke-dasharray: none; stroke-linecap: butt; stroke-dashoffset: 0; stroke-linejoin: miter; stroke-miterlimit: 4; is-custom-font: none; font-file-url: none; fill: rgb(35,31,32); fill-rule: nonzero; opacity: 1;" transform=" translate(-248.1149, -116.9552)" d="M 250.11 152.83 h -4 a 0.45 0.45 0 0 1 -0.33 -0.14 a 0.47 0.47 0 0 1 -0.13 -0.34 l 2.52 -70.83 a 0.46 0.46 0 0 1 0.45 -0.44 h 0 a 0.45 0.45 0 0 1 0.45 0.45 l 1.51 70.83 a 0.46 0.46 0 0 1 -0.13 0.33 A 0.44 0.44 0 0 1 250.11 152.83 Z m -3.55 -0.92 h 3.09 l -1.16 -54.29 Z" stroke-linecap="round"/>
</g>
		<g transform="matrix(1.015 0 0 1.015 -100.6322 75.4693)" id="_336_ecology_flatline">
<polygon style="stroke: none; stroke-width: 1; stroke-dasharray: none; stroke-linecap: butt; stroke-dashoffset: 0; stroke-linejoin: miter; stroke-miterlimit: 4; is-custom-font: none; font-file-url: none; fill: rgb(35,31,32); fill-rule: nonzero; opacity: 1;" points="47.055,8.555 -15.845,-38.245 -47.055,0.505 17.865,38.245 47.055,8.555 "/>
</g>
		<g transform="matrix(1.015 0 0 1.015 -100.6293 75.4703)" id="_336_ecology_flatline">
<path style="stroke: none; stroke-width: 1; stroke-dasharray: none; stroke-linecap: butt; stroke-dashoffset: 0; stroke-linejoin: miter; stroke-miterlimit: 4; is-custom-font: none; font-file-url: none; fill: rgb(35,31,32); fill-rule: nonzero; opacity: 1;" transform=" translate(-100.8578, -223.6161)" d="M 118.72 262.3 a 0.44 0.44 0 0 1 -0.22 -0.05 L 53.58 224.5 a 0.44 0.44 0 0 1 -0.21 -0.3 a 0.47 0.47 0 0 1 0.09 -0.36 l 31.2 -38.74 a 0.44 0.44 0 0 1 0.61 -0.08 l 62.9 46.8 a 0.44 0.44 0 0 1 0.06 0.66 L 119 262.17 A 0.44 0.44 0 0 1 118.72 262.3 Z M 54.47 224 l 64.18 37.31 l 28.59 -29.09 L 85.08 186 Z" stroke-linecap="round"/>
</g>
		<g transform="matrix(1.015 0 0 1.015 -72.7856 -64.3318)" id="_336_ecology_flatline">
<circle style="stroke: none; stroke-width: 1; stroke-dasharray: none; stroke-linecap: butt; stroke-dashoffset: 0; stroke-linejoin: miter; stroke-miterlimit: 4; is-custom-font: none; font-file-url: none; fill: rgb(209,211,212); fill-rule: nonzero; opacity: 1;" cx="0" cy="0" r="27.18"/>
</g>
		<g transform="matrix(1.015 0 0 1.015 -72.7552 -64.3318)" id="_336_ecology_flatline">
<path style="stroke: none; stroke-width: 1; stroke-dasharray: none; stroke-linecap: butt; stroke-dashoffset: 0; stroke-linejoin: miter; stroke-miterlimit: 4; is-custom-font: none; font-file-url: none; fill: rgb(230,231,232); fill-rule: nonzero; opacity: 1;" transform=" translate(-128.32, -85.88)" d="M 128.29 113.56 A 27.68 27.68 0 1 1 156 85.88 A 27.71 27.71 0 0 1 128.29 113.56 Z m 0 -54.35 A 26.68 26.68 0 1 0 155 85.88 A 26.7 26.7 0 0 0 128.29 59.21 Z" stroke-linecap="round"/>
</g>
</g>
</g>
<g transform="matrix(0.1079 0 0 0.1079 391.62 310.6138)" id="374513">
<g style="" vector-effect="non-scaling-stroke">
		<g transform="matrix(2.6374 0 0 2.6374 -99.866 241.1691)" id="Capa_1">
<path style="stroke: none; stroke-width: 1; stroke-dasharray: none; stroke-linecap: butt; stroke-dashoffset: 0; stroke-linejoin: miter; stroke-miterlimit: 4; is-custom-font: none; font-file-url: none; fill: rgb(0,0,0); fill-rule: nonzero; opacity: 1;" transform=" translate(-113.7992, -243.1052)" d="M 172.631 211.084 c -17.389 -3.674 -34.588 -0.419 -48.851 7.808 c -9.732 -13.297 -24.135 -23.235 -41.523 -26.908 c -37.423 -7.912 -74.2 16.02 -82.111 53.458 c -0.031 0.144 -0.06 0.289 -0.09 0.433 c -0.259 1.244 0.397 2.503 1.563 3.015 c 1.165 0.514 2.528 0.146 3.274 -0.885 c 14.909 -20.499 41.285 -25.346 69.611 -19.359 c 17.388 3.674 31.8 13.616 41.524 26.908 c 14.263 -8.221 31.472 -11.48 48.859 -7.809 c 28.326 5.982 50.472 21.086 55.826 45.858 c 0.269 1.245 1.363 2.13 2.638 2.135 c 1.274 0.006 2.368 -0.88 2.646 -2.119 c 0.031 -0.145 0.06 -0.283 0.09 -0.423 C 234.001 255.753 210.054 218.99 172.631 211.084 z" stroke-linecap="round"/>
</g>
		<g transform="matrix(2.6374 0 0 2.6374 159.441 31.551)" id="Capa_1">
<path style="stroke: none; stroke-width: 1; stroke-dasharray: none; stroke-linecap: butt; stroke-dashoffset: 0; stroke-linejoin: miter; stroke-miterlimit: 4; is-custom-font: none; font-file-url: none; fill: rgb(0,0,0); fill-rule: nonzero; opacity: 1;" transform=" translate(-212.1175, -163.6267)" d="M 269.374 142.83 c -13.557 -6.32 -28.276 -6.917 -41.544 -2.886 c -5.453 -12.75 -15.368 -23.639 -28.924 -29.959 c -29.191 -13.605 -63.897 -0.97 -77.504 28.222 c 0 0 -0.009 0.009 -0.009 0.02 c -0.469 1 -0.169 2.195 0.717 2.861 c 0.875 0.667 2.109 0.632 2.945 -0.085 c 16.103 -13.755 38.538 -12.675 60.523 -2.429 c 13.557 6.321 23.479 17.209 28.924 29.96 c 13.258 -4.033 27.988 -3.435 41.545 2.881 c 22.424 10.455 37.841 27.391 37.024 49.188 c -0.029 0.971 0.616 1.831 1.553 2.075 c 0.945 0.238 1.921 -0.214 2.349 -1.08 c 0.209 -0.423 0.418 -0.847 0.616 -1.273 C 311.196 191.132 298.556 156.431 269.374 142.83 z" stroke-linecap="round"/>
</g>
		<g transform="matrix(2.6374 0 0 2.6374 -1.5407 -312.9941)" id="Capa_1">
<path style="stroke: none; stroke-width: 1; stroke-dasharray: none; stroke-linecap: butt; stroke-dashoffset: 0; stroke-linejoin: miter; stroke-miterlimit: 4; is-custom-font: none; font-file-url: none; fill: rgb(0,0,0); fill-rule: nonzero; opacity: 1;" transform=" translate(-151.0797, -32.9892)" d="M 94.51 37.677 c 0.606 0.254 1.313 0.05 1.702 -0.492 c 7.256 -10.366 20.402 -13.103 34.655 -10.466 c 8.789 1.622 16.164 6.439 21.22 13.003 c 7.066 -4.324 15.686 -6.186 24.484 -4.559 c 14.253 2.633 25.539 9.888 28.625 22.165 c 0.159 0.643 0.747 1.086 1.403 1.06 c 0.657 -0.019 1.215 -0.497 1.334 -1.149 c 3.503 -18.931 -9.008 -37.12 -27.939 -40.618 c -8.798 -1.623 -17.407 0.233 -24.475 4.558 c -5.056 -6.564 -12.441 -11.381 -21.229 -13.003 c -18.941 -3.499 -37.125 9.012 -40.629 27.948 C 93.544 36.776 93.892 37.424 94.51 37.677 z" stroke-linecap="round"/>
</g>
		<g transform="matrix(2.6374 0 0 2.6374 304.5561 -262.0586)" id="Capa_1">
<path style="stroke: none; stroke-width: 1; stroke-dasharray: none; stroke-linecap: butt; stroke-dashoffset: 0; stroke-linejoin: miter; stroke-miterlimit: 4; is-custom-font: none; font-file-url: none; fill: rgb(0,0,0); fill-rule: nonzero; opacity: 1;" transform=" translate(-267.1389, -52.3019)" d="M 258.933 35.328 c 5.025 4.519 7.872 10.541 8.54 16.771 c 6.259 0.005 12.559 2.215 17.596 6.739 c 8.48 7.628 12.909 17.223 9.296 26.728 c -0.139 0.354 0 0.752 0.309 0.956 c 0.319 0.204 0.737 0.159 1.006 -0.11 c 0.298 -0.302 0.597 -0.616 0.886 -0.939 c 9.733 -10.825 8.858 -27.496 -1.971 -37.24 c -5.027 -4.523 -11.316 -6.728 -17.577 -6.733 c -0.666 -6.225 -3.533 -12.251 -8.55 -16.776 c -10.828 -9.744 -27.5 -8.863 -37.244 1.961 c -0.338 0.383 -0.367 0.936 -0.069 1.343 c 0.288 0.403 0.825 0.547 1.284 0.349 C 241.216 24.564 250.782 27.998 258.933 35.328 z" stroke-linecap="round"/>
</g>
</g>
</g>
</svg>