<svg xmlns="http://www.w3.org/2000/svg" viewBox="0 0 400 300" width="406" height="306" class="illustration styles_illustrationTablet__1DWOa"><g id="_345_sailor_flatline" data-name="#345_sailor_flatline"><rect x="155.22" y="238.31" width="98.37" height="38.32" fill="#231f20"></rect><path d="M253.59,277.13H155.22a.51.51,0,0,1-.5-.5V238.31a.5.5,0,0,1,.5-.5h98.37a.5.5,0,0,1,.5.5v38.32A.5.5,0,0,1,253.59,277.13Zm-97.87-1h97.37V238.81H155.72Z" fill="#231f20"></path><path d="M298.09,175.19c-.45,1.11-8.2,41.13-20,44.3S243,187.55,243,187.55l16-72Z" fill="#68e1fd"></path><path d="M112.54,169.46c.45,1.11,9,41.07,20.77,44.23s20.08-21.24,20.08-21.24l-11.78-69.31Z" fill="#68e1fd"></path><path d="M118.61,176.68a10.79,10.79,0,0,0,7.09,2,7.07,7.07,0,0,0,5.84-4.16,4.82,4.82,0,0,0,.35-2,5.33,5.33,0,0,0-1.14-2.89c-2.68-3.59-11.88-8.65-16.13-5.81C108.91,167.67,114.87,174.12,118.61,176.68Z" fill="#fff"></path><path d="M124.81,179.28a11.62,11.62,0,0,1-6.49-2.17h0c-2.46-1.68-6.6-5.55-6.58-9.36a5.16,5.16,0,0,1,2.59-4.34c4.53-3,13.94,2.06,16.83,5.93a6,6,0,0,1,1.25,3.18,5.21,5.21,0,0,1-.39,2.23,7.91,7.91,0,0,1-7.21,4.53Zm-5.91-3a10.23,10.23,0,0,0,6.75,2,6.58,6.58,0,0,0,5.41-3.83,4.39,4.39,0,0,0,.32-1.81,4.91,4.91,0,0,0-1-2.61c-2.55-3.42-11.49-8.32-15.42-5.69a4.19,4.19,0,0,0-2.14,3.49C112.75,170.7,115.94,174.23,118.9,176.26Z" fill="#231f20"></path><path d="M125.53,141.87a13.06,13.06,0,0,1,4.48,1.24c1.44.75,3.51,1.94,4.24,3.44a2.86,2.86,0,0,1,0,2.64,3,3,0,0,1-2.29,1.34,8,8,0,0,1-2.71-.29c-2.17-.51-14.23-3.09-10-7.47C120.81,141.2,123.58,141.64,125.53,141.87Z" fill="#fff"></path><path d="M131.42,151.07a10.12,10.12,0,0,1-2.28-.33l-.26-.06c-6.73-1.55-10.3-3.32-10.92-5.42a2.85,2.85,0,0,1,1-2.85c1.62-1.67,4.36-1.33,6.37-1.09l.31,0a13.19,13.19,0,0,1,4.65,1.29c1.67.87,3.69,2.07,4.47,3.68a3.37,3.37,0,0,1,0,3.12A3.52,3.52,0,0,1,132,151,6.08,6.08,0,0,1,131.42,151.07Zm-8.72-8.92a4.11,4.11,0,0,0-3,1A1.88,1.88,0,0,0,119,145c.34,1.16,2.38,2.92,10.16,4.71l.26.06a7.6,7.6,0,0,0,2.54.27,2.47,2.47,0,0,0,1.9-1.08,2.33,2.33,0,0,0,0-2.15c-.65-1.35-2.6-2.48-4-3.21a12.19,12.19,0,0,0-4.3-1.18h0l-.32,0A19.43,19.43,0,0,0,122.7,142.15Z" fill="#231f20"></path><path d="M187.05,91.71S164.77,94,166.33,98.62s10.32,9,10.32,9-32.3,11.05-35.39,15.11,8.49,121.83,8.49,121.83H248.6s12.35-127.48,10-129.38S223.9,104.8,223.9,104.8s5.83-9.26,3.49-11.39S187.05,91.71,187.05,91.71Z" fill="#68e1fd"></path><path d="M201.59,228.87h-.07a.52.52,0,0,1-.44-.59l15.19-100.05L186.12,109a.51.51,0,0,1-.15-.71.52.52,0,0,1,.71-.16l30.43,19.44a.52.52,0,0,1,.23.52L202.1,228.43A.52.52,0,0,1,201.59,228.87Z" fill="#231f20"></path><path d="M254.06,177.48h0a.52.52,0,0,1-.49-.55c0-.41,2.18-41,3.23-49.53a.52.52,0,0,1,.57-.45.5.5,0,0,1,.45.57c-1.05,8.54-3.2,49.06-3.22,49.47A.53.53,0,0,1,254.06,177.48Z" fill="#231f20"></path><path d="M234.66,47.88C234.66,58.54,218.7,62,199,62s-35.65-3.43-35.65-14.09,16-24.51,35.65-24.51S234.66,37.22,234.66,47.88Z" fill="#fff"></path><path d="M199,62.49c-24,0-36.16-4.91-36.16-14.61,0-11.26,16.68-25,36.16-25a42.94,42.94,0,0,1,25.51,8.37c6.67,5,10.65,11.18,10.65,16.66C235.18,57.58,223,62.49,199,62.49Zm0-38.6c-20.38,0-35.13,14.33-35.13,24,0,11.22,19.1,13.58,35.13,13.58s35.13-2.36,35.13-13.58C234.15,38.22,219.4,23.89,199,23.89Z" fill="#231f20"></path><path d="M213.92,71.49c1.06-7.48,13.41-9.55,13-.75a13,13,0,0,1-3.15,8.32c-2.08,2.2-5.48,3.29-8.27,2.1" fill="#fff"></path><path d="M217.92,82.16a6.85,6.85,0,0,1-2.66-.52A.53.53,0,0,1,215,81a.51.51,0,0,1,.67-.27,7.12,7.12,0,0,0,7.7-2,12.49,12.49,0,0,0,3-8c.22-4.34-2.73-5.09-4-5.21-3.3-.32-7.36,2.09-7.92,6a.51.51,0,0,1-1-.14c.64-4.54,5.26-7.31,9-6.94,2.53.24,5.16,2,4.94,6.29a13.53,13.53,0,0,1-3.28,8.65A8.67,8.67,0,0,1,217.92,82.16Z" fill="#231f20"></path><path d="M184.62,71.27c-1.33-7.44-13.75-9-13-.26a13,13,0,0,0,3.45,8.19c2.16,2.12,5.6,3.08,8.34,1.79" fill="#fff"></path><path d="M180.74,82.09a8.68,8.68,0,0,1-6-2.52,13.56,13.56,0,0,1-3.61-8.52c-.38-4.25,2.19-6.13,4.71-6.47,3.74-.5,8.48,2.09,9.29,6.6a.51.51,0,1,1-1,.18c-.71-3.94-4.86-6.19-8.15-5.75-1.27.17-4.19,1-3.81,5.35a12.52,12.52,0,0,0,3.3,7.88,7.11,7.11,0,0,0,7.76,1.69.51.51,0,1,1,.44.93A6.76,6.76,0,0,1,180.74,82.09Z" fill="#231f20"></path><path d="M186.4,108.53S197.31,113,200.08,113c7.14,0,13.19-5,13.19-5l-.51-5.21-1.19-12.1L210.46,79.4,186.4,78.34l1.17,10.76-.17,3Z" fill="#fff"></path><path d="M200.08,113.52c-2.84,0-13.42-4.32-13.87-4.51a.5.5,0,0,1-.32-.51l1.16-19.43-1.16-10.68A.47.47,0,0,1,186,78a.53.53,0,0,1,.39-.17l24.06,1.07a.5.5,0,0,1,.49.46L213.79,108a.55.55,0,0,1-.19.45C213.35,108.64,207.32,113.52,200.08,113.52Zm-13.14-5.32c3.84,1.56,11.09,4.29,13.14,4.29,6.14,0,11.53-3.84,12.65-4.69L210,79.9l-23-1L188.08,89l-.16,3.1Z" fill="#231f20"></path><path d="M187.4,92.11a20,20,0,0,0,7.45,6.29c4.85,2.57,12.1,5.42,17.91,4.42l-1.19-12.1a54.87,54.87,0,0,1-12.86.32c-3.77-.26-7.66-.56-11.14-1.94Z" fill="#231f20"></path><path d="M210.23,103.53c-5.8,0-12.1-2.83-15.61-4.69A20.11,20.11,0,0,1,187,92.38a.52.52,0,0,1-.08-.3l.17-3a.5.5,0,0,1,.23-.39.48.48,0,0,1,.45,0c3.51,1.39,7.49,1.67,11,1.9a53.3,53.3,0,0,0,12.76-.32.52.52,0,0,1,.38.1.48.48,0,0,1,.19.35l1.18,12.11a.48.48,0,0,1-.41.53A15.07,15.07,0,0,1,210.23,103.53ZM187.91,92a19.22,19.22,0,0,0,7.18,6c3.84,2,11.09,5.26,17.13,4.44l-1.09-11.11a55.67,55.67,0,0,1-12.46.25A39.35,39.35,0,0,1,188,89.8Z" fill="#231f20"></path><path d="M181,51,181.49,77a17.11,17.11,0,0,0,17.42,16.78l2,0a17.1,17.1,0,0,0,16.78-17.42L217.21,51Z" fill="#fff"></path><path d="M198.59,94.33A17.64,17.64,0,0,1,181,77L180.49,51a.51.51,0,0,1,.52-.52h36.2a.51.51,0,0,1,.52.5l.47,25.38a17.64,17.64,0,0,1-17.28,18l-2,0ZM181.53,51.49,182,77A16.6,16.6,0,0,0,198.9,93.29l2,0a16.61,16.61,0,0,0,16.27-16.9l-.46-24.87Z" fill="#231f20"></path><ellipse cx="190.14" cy="68.12" rx="1.18" ry="2.83" transform="translate(-1.24 3.55) rotate(-1.07)" fill="#231f20"></ellipse><ellipse cx="207.73" cy="68.12" rx="1.18" ry="2.83" transform="translate(-1.23 3.88) rotate(-1.07)" fill="#231f20"></ellipse><path d="M215.6,51c.26,4.17.82,15.11-.12,22C214.16,82.57,212,83.55,212,83.55s-1.51-4.15-12.24-4.18c-12.44,0-15.11,4.23-15.11,4.23-3.08-6.66-2.44-26.67-2.17-32.63h-4.38c-.18,6.77-1.28,29.28.89,36.45,2.51,8.3,7,13.09,22.75,13.19,11.24.07,14.77-5.54,16.78-16.34A123.12,123.12,0,0,0,219.85,51Z" fill="#d1d3d4"></path><path d="M201.92,101.11h-.21c-16-.11-20.66-5-23.23-13.55-1.92-6.36-1.31-24.64-1-33.43,0-1.26.08-2.33.1-3.17a.5.5,0,0,1,.5-.48h4.38a.48.48,0,0,1,.36.15A.55.55,0,0,1,183,51c-.26,5.74-.86,24.5,1.83,31.68,1.31-1.25,5.18-3.81,14.8-3.81h.15c8.58,0,11.48,2.67,12.36,3.9.62-.76,2-3.14,2.9-9.91s.39-17.54.11-21.86a.48.48,0,0,1,.14-.37.48.48,0,0,1,.36-.15h4.25a.5.5,0,0,1,.49.44A122.73,122.73,0,0,1,219,84.37C217,95,213.57,101.11,201.92,101.11ZM178.55,51.47c0,.76-.05,1.67-.09,2.7-.29,8.73-.9,26.9,1,33.1,3.24,10.7,10.33,12.76,22.29,12.84h.21c11,0,14.15-5.61,16.07-15.93a121.72,121.72,0,0,0,1.4-32.71h-3.27c.28,4.65.75,14.93-.15,21.52-1.33,9.65-3.55,10.9-3.8,11a.51.51,0,0,1-.4,0,.46.46,0,0,1-.27-.29s-1.63-3.82-11.78-3.85h-.15c-11.8,0-14.51,4-14.54,4a.48.48,0,0,1-.45.22.5.5,0,0,1-.42-.28c-3-6.58-2.52-25.78-2.24-32.34Z" fill="#231f20"></path><path d="M199.84,69.22s3.93,12.36,1.46,12.71-5.64-3.64-5.64-3.64" fill="#fff"></path><path d="M201,82.47c-2.65,0-5.6-3.7-5.73-3.86a.51.51,0,0,1,.08-.72.52.52,0,0,1,.73.08c.82,1,3.35,3.71,5.15,3.45,0,0,.08,0,.15-.12.86-1.36-.79-8-2-11.93a.52.52,0,0,1,.33-.65.53.53,0,0,1,.65.34c.56,1.76,3.27,10.62,1.91,12.79a1.2,1.2,0,0,1-.87.59Z" fill="#231f20"></path><path d="M199.67,91a22.64,22.64,0,0,1-10-2.49.52.52,0,0,1,.51-.9c.1,0,9.49,5.28,17.61,0a.51.51,0,1,1,.56.86A15.79,15.79,0,0,1,199.67,91Z" fill="#231f20"></path><path d="M173.79,42.29s7.06-3.87,26.29-3.87,24.17,3.87,24.17,3.87L220.41,56H177.63Z" fill="#68e1fd"></path><path d="M220.41,56.49H177.63a.5.5,0,0,1-.48-.36l-3.84-13.71a.5.5,0,0,1,.24-.57c.29-.16,7.39-3.92,26.53-3.92s24.27,3.8,24.47,4a.52.52,0,0,1,.18.53l-3.84,13.71A.5.5,0,0,1,220.41,56.49Zm-42.4-1h42l3.64-13c-1.26-.74-7.21-3.59-23.59-3.59s-24.05,2.9-25.7,3.63Z" fill="#231f20"></path><path d="M177.63,56s10.56,7.92,22.45,7.34A38.53,38.53,0,0,0,220.41,56Z" fill="#231f20"></path><path d="M198.84,63.86c-11.42,0-21.41-7.39-21.51-7.47a.5.5,0,0,1-.17-.56.51.51,0,0,1,.47-.34h42.78a.51.51,0,0,1,.47.34.5.5,0,0,1-.16.55,39.39,39.39,0,0,1-20.62,7.45Q199.47,63.86,198.84,63.86Zm-19.59-7.37c3.18,2,11.63,6.78,20.81,6.34a38.56,38.56,0,0,0,18.79-6.34Z" fill="#231f20"></path><path d="M204.3,47.21a5,5,0,0,1-2.65-5.36h-6A5,5,0,0,1,193,47.21s.72,6.46,5.65,6.46S204.3,47.21,204.3,47.21Z" fill="#f7f7f7"></path><path d="M199.35,36.8a.5.5,0,0,1-.5-.5V26.07a.5.5,0,1,1,1,0V36.3A.5.5,0,0,1,199.35,36.8Z" fill="#d1d3d4"></path><path d="M224.25,54.17a.5.5,0,0,1-.48-.37.49.49,0,0,1,.34-.61,18.33,18.33,0,0,0,6.78-4,.5.5,0,0,1,.71,0,.5.5,0,0,1,0,.71,19,19,0,0,1-7.19,4.26Z" fill="#d1d3d4"></path><path d="M173.67,54.17l-.14,0a19.09,19.09,0,0,1-7.19-4.26.5.5,0,0,1,.69-.73,18.42,18.42,0,0,0,6.77,4,.5.5,0,0,1-.13,1Z" fill="#d1d3d4"></path><path d="M186.4,108.53,201.18,118l12.09-10S199.05,115.13,186.4,108.53Z" fill="#231f20"></path><path d="M201.18,118.48a.56.56,0,0,1-.27-.08L186.13,109a.5.5,0,0,1,.5-.86c12.27,6.4,26.28-.43,26.42-.5a.49.49,0,0,1,.64.17.51.51,0,0,1-.1.66l-12.09,9.94A.49.49,0,0,1,201.18,118.48ZM191,110.85l10.19,6.51,9.34-7.67C206.39,111.1,198.72,113,191,110.85Z" fill="#231f20"></path><path d="M153.39,224.06a.52.52,0,0,1-.52-.48c-2.77-35.59-3.47-88.31-3.47-88.84a.51.51,0,0,1,.5-.52h0a.53.53,0,0,1,.52.51c0,.53.7,53.21,3.47,88.77a.51.51,0,0,1-.47.55Z" fill="#231f20"></path><path d="M183.35,145c0,5.86,1.45,15.48,4.12,26.13A148.59,148.59,0,0,0,194,191.4l7.62-1.91a148.2,148.2,0,0,0-3.84-21c-2.67-10.66-5.93-19.82-8.68-25Z" fill="#fff"></path><path d="M194,191.92a.51.51,0,0,1-.47-.32A148.61,148.61,0,0,1,187,171.22c-2.58-10.31-4.13-20.13-4.14-26.26a.51.51,0,0,1,.39-.5l5.72-1.44a.52.52,0,0,1,.58.26c2.88,5.41,6.15,14.8,8.73,25.11a150.68,150.68,0,0,1,3.86,21.06.53.53,0,0,1-.39.55l-7.62,1.9Zm-10.1-46.56c.07,6.08,1.59,15.6,4.1,25.6a149.68,149.68,0,0,0,6.31,19.83L201,189.1a152,152,0,0,0-3.79-20.46c-2.51-10-5.65-19.13-8.45-24.52Z" fill="#231f20"></path><path d="M185.55,129.42c-.76-3.34-1-31.81-10.43-29.45s3.78,27.59,4.69,30.89Z" fill="#fff"></path><path d="M179.81,131.38a.51.51,0,0,1-.5-.38c-.16-.57-.75-1.94-1.49-3.66-3-7-8.58-19.93-5.86-25.45a4.47,4.47,0,0,1,3-2.42,4.41,4.41,0,0,1,3.81.71c5,3.58,6.2,17.64,6.83,25.2.16,1.87.29,3.35.42,3.93a.51.51,0,0,1-.38.61l-5.74,1.44Zm-3.61-31a4.07,4.07,0,0,0-1,.12,3.4,3.4,0,0,0-2.35,1.88c-2.52,5.09,3.15,18.25,5.88,24.58.63,1.45,1.11,2.59,1.38,3.31L185,129c-.11-.76-.21-2-.34-3.57-.58-6.87-1.79-21.15-6.41-24.45A3.34,3.34,0,0,0,176.2,100.35Z" fill="#231f20"></path><rect x="176.81" y="127.66" width="11.18" height="5.1" rx="1.49" transform="translate(-26.18 48.23) rotate(-14.06)" fill="#fff"></rect><path d="M178.68,134.25a2,2,0,0,1-2-1.52l-.51-2.06a2,2,0,0,1,1.45-2.44l8-2a2,2,0,0,1,2.43,1.46l.51,2.06a2,2,0,0,1-1.45,2.43l-8,2A2,2,0,0,1,178.68,134.25Zm7.43-7-.23,0-8,2a.94.94,0,0,0-.59.44.9.9,0,0,0-.11.73l.51,2.07a1,1,0,0,0,1.18.7l8-2h0a.94.94,0,0,0,.59-.44.92.92,0,0,0,.11-.74l-.51-2.06A1,1,0,0,0,186.11,127.21Z" fill="#231f20"></path><path d="M211.16,256c-2.76-5.18-6-14.34-8.69-25a148.31,148.31,0,0,1-3.84-21l7.62-1.91a149.05,149.05,0,0,1,6.5,20.31c2.67,10.66,4.12,20.27,4.12,26.14Z" fill="#fff"></path><path d="M211.16,256.48a.53.53,0,0,1-.46-.28c-2.88-5.41-6.15-14.79-8.73-25.11A149.21,149.21,0,0,1,198.12,210a.51.51,0,0,1,.38-.55l7.62-1.91a.52.52,0,0,1,.6.3,148.34,148.34,0,0,1,6.53,20.39c2.59,10.31,4.13,20.13,4.14,26.26a.52.52,0,0,1-.39.5l-5.72,1.43Zm-12-46.1A149.71,149.71,0,0,0,203,230.84c2.51,10,5.65,19.13,8.45,24.52l4.94-1.24c-.08-6.07-1.6-15.59-4.11-25.6a149.68,149.68,0,0,0-6.31-19.83Z" fill="#231f20"></path><path d="M223.74,276.63c-1.59-3.88-3-7-3.32-8l-5.74,1.44c.19.86.35,3.36.64,6.57Z" fill="#fff"></path><path d="M223.74,277.15h-8.42a.52.52,0,0,1-.51-.47c-.08-.92-.15-1.77-.22-2.55-.16-1.89-.29-3.38-.42-4a.52.52,0,0,1,.38-.61l5.74-1.44a.53.53,0,0,1,.63.37c.15.57.74,1.94,1.49,3.67.53,1.24,1.16,2.69,1.81,4.27a.57.57,0,0,1-.05.49A.54.54,0,0,1,223.74,277.15Zm-7.94-1H223c-.54-1.3-1.06-2.5-1.51-3.54-.63-1.46-1.12-2.6-1.38-3.33l-4.81,1.2c.11.77.21,2,.35,3.61C215.67,274.69,215.73,275.38,215.8,276.11Z" fill="#231f20"></path><rect x="211.68" y="266.86" width="11.18" height="5.1" rx="1.49" transform="translate(-58.96 60.87) rotate(-14.06)" fill="#fff"></rect><path d="M213.55,273.44a2,2,0,0,1-2-1.51l-.51-2.07a2,2,0,0,1,1.45-2.43l8-2a2,2,0,0,1,2.43,1.46l.52,2.06a2,2,0,0,1-1.46,2.43l-8,2A2,2,0,0,1,213.55,273.44Zm7.44-7-.24,0h0l-8,2a1,1,0,0,0-.59.45.9.9,0,0,0-.11.73l.51,2.07a1,1,0,0,0,1.18.7l8-2a1,1,0,0,0,.6-.44,1,1,0,0,0,.11-.74l-.52-2.06A1,1,0,0,0,221,266.41Zm-.37-.47h0Z" fill="#231f20"></path><path d="M227,149.37c-4.14,4.15-9.91,12-15.56,21.39a148.72,148.72,0,0,0-9.76,19l6.73,4a147.28,147.28,0,0,0,12.12-17.55c5.65-9.42,9.82-18.2,11.53-23.81Z" fill="#fff"></path><path d="M208.37,194.28a.59.59,0,0,1-.26-.07l-6.74-4a.51.51,0,0,1-.21-.64,148.13,148.13,0,0,1,9.8-19c5.46-9.12,11.31-17.15,15.64-21.49a.51.51,0,0,1,.63-.08l5.06,3a.51.51,0,0,1,.22.59c-1.78,5.86-6.11,14.81-11.58,23.93a148.36,148.36,0,0,1-12.16,17.61A.53.53,0,0,1,208.37,194.28Zm-6.09-4.77,6,3.58A151.24,151.24,0,0,0,220.05,176c5.3-8.86,9.53-17.52,11.36-23.32L227.05,150c-4.25,4.35-9.9,12.16-15.21,21A150.77,150.77,0,0,0,202.28,189.51Z" fill="#231f20"></path><path d="M239.5,139.94c1.83-2.9,21.78-23.21,13.45-28.2s-16.83,22.18-18.52,25.16Z" fill="#fff"></path><path d="M239.5,140.46a.5.5,0,0,1-.26-.08l-5.08-3a.51.51,0,0,1-.18-.7c.29-.51.84-1.89,1.53-3.64,2.81-7,8-20.16,13.86-22.13a4.65,4.65,0,0,1,6,3.62c1,6.08-8.09,16.86-13,22.65-1.21,1.44-2.17,2.58-2.48,3.07A.52.52,0,0,1,239.5,140.46Zm-4.4-3.76,4.26,2.55c.46-.62,1.25-1.56,2.28-2.77,4.44-5.26,13.69-16.22,12.76-21.82a3.42,3.42,0,0,0-1.71-2.48,3.38,3.38,0,0,0-3-.33c-5.38,1.82-10.68,15.13-13.23,21.53C235.89,134.86,235.43,136,235.1,136.7Z" fill="#231f20"></path><rect x="231.13" y="135.72" width="11.18" height="5.1" rx="1.49" transform="translate(104.76 -102.02) rotate(30.94)" fill="#fff"></rect><path d="M239.68,143.29a2,2,0,0,1-1-.28l-7-4.22a2,2,0,0,1-.91-1.23,2,2,0,0,1,.22-1.52l1.1-1.82a2,2,0,0,1,2.75-.69l7,4.22a2,2,0,0,1,.69,2.75l-1.09,1.82A2,2,0,0,1,239.68,143.29Zm-5.93-9a1,1,0,0,0-.84.47l-1.09,1.82a1,1,0,0,0-.11.74,1,1,0,0,0,.44.6l7,4.21h0a1,1,0,0,0,1.33-.33l1.09-1.82a1,1,0,0,0-.33-1.34l-7-4.21A.93.93,0,0,0,233.75,134.28Z" fill="#231f20"></path><path d="M168.14,247.52c1.71-5.61,5.88-14.39,11.53-23.81a148.53,148.53,0,0,1,12.11-17.55l6.74,4a148.72,148.72,0,0,1-9.76,19c-5.65,9.42-11.43,17.24-15.57,21.39Z" fill="#fff"></path><path d="M173.19,251.07a.59.59,0,0,1-.26-.07l-5.06-3a.51.51,0,0,1-.23-.59c1.79-5.86,6.12-14.8,11.58-23.92a149.72,149.72,0,0,1,12.17-17.62.51.51,0,0,1,.66-.11l6.74,4a.5.5,0,0,1,.21.63,148.13,148.13,0,0,1-9.8,19c-5.47,9.12-11.31,17.16-15.64,21.5A.51.51,0,0,1,173.19,251.07Zm-4.44-3.78,4.36,2.61c4.24-4.34,9.9-12.15,15.2-21a150.24,150.24,0,0,0,9.57-18.48l-6-3.58A149.26,149.26,0,0,0,180.11,224C174.8,232.83,170.58,241.5,168.75,247.29Z" fill="#231f20"></path><path d="M159.93,276.63c2.89-6,5-12.26,5.8-13.6l-5.07-3c-1.08,1.72-8.5,9.53-12.66,16.65Z" fill="#fff"></path><path d="M159.93,277.15H148a.51.51,0,0,1-.45-.26.53.53,0,0,1,0-.52,105.33,105.33,0,0,1,10.18-13.59c1.22-1.44,2.17-2.57,2.49-3.07a.52.52,0,0,1,.7-.17l5.08,3a.52.52,0,0,1,.18.7c-.29.51-.84,1.89-1.54,3.64-1.06,2.68-2.52,6.34-4.25,9.93A.53.53,0,0,1,159.93,277.15Zm-11-1H159.6c1.65-3.46,3.05-7,4.08-9.57.59-1.47,1-2.62,1.37-3.32l-4.25-2.55c-.46.62-1.26,1.57-2.28,2.78A109.29,109.29,0,0,0,148.91,276.11Z" fill="#231f20"></path><rect x="157.36" y="258.8" width="11.18" height="5.1" rx="1.49" transform="translate(157.54 -46.59) rotate(30.94)" fill="#fff"></rect><path d="M165.91,266.38a1.91,1.91,0,0,1-1-.29l-7-4.21a2,2,0,0,1-.91-1.23,2,2,0,0,1,.22-1.52l1.1-1.82a2,2,0,0,1,2.74-.69l7,4.21h0a2,2,0,0,1,.91,1.23,2,2,0,0,1-.22,1.52l-1.1,1.83A2,2,0,0,1,165.91,266.38Zm-5.93-9-.24,0a1,1,0,0,0-.6.45l-1.09,1.82a1,1,0,0,0-.11.74.94.94,0,0,0,.44.59l7,4.22a1,1,0,0,0,1.33-.33l1.09-1.83a1,1,0,0,0,.11-.74.94.94,0,0,0-.44-.59l-7-4.22A1,1,0,0,0,160,257.36Z" fill="#231f20"></path><path d="M254.69,183.33c-5.87,0-15.48,1.45-26.14,4.12A147.55,147.55,0,0,0,208.24,194l1.91,7.62a150.22,150.22,0,0,0,21-3.85c10.65-2.67,19.81-5.92,25-8.68Z" fill="#fff"></path><path d="M210.15,202.09a.51.51,0,0,1-.5-.39l-1.91-7.62a.52.52,0,0,1,.3-.6A149.72,149.72,0,0,1,228.43,187c10.31-2.58,20.13-4.13,26.25-4.14h0a.53.53,0,0,1,.5.4l1.43,5.71a.51.51,0,0,1-.26.58c-5.41,2.89-14.79,6.15-25.11,8.73a149.37,149.37,0,0,1-21.05,3.86Zm-1.3-7.83,1.69,6.76A149.87,149.87,0,0,0,231,197.23c10-2.51,19.13-5.65,24.52-8.45l-1.24-4.93c-6.07.07-15.59,1.6-25.6,4.1A151.17,151.17,0,0,0,208.85,194.26Z" fill="#231f20"></path><path d="M270.22,185.53c3.34-.76,31.81-1,29.45-10.43s-27.58,3.78-30.89,4.69Z" fill="#fff"></path><path d="M270.22,186a.51.51,0,0,1-.5-.39l-1.44-5.74a.51.51,0,0,1,.37-.62c.56-.16,1.93-.74,3.66-1.49,7-3,19.92-8.58,25.44-5.85a4.65,4.65,0,0,1,1.71,6.84c-3.58,5-17.64,6.19-25.2,6.83-1.87.16-3.35.28-3.93.41Zm-.82-5.91,1.2,4.81c.77-.11,2-.22,3.57-.35,6.87-.58,21.15-1.78,24.45-6.4a3.62,3.62,0,0,0-1.33-5.32c-5.09-2.52-18.25,3.15-24.58,5.88C271.26,179.38,270.12,179.87,269.4,180.13Z" fill="#231f20"></path><rect x="263.84" y="179.83" width="11.18" height="5.1" rx="1.49" transform="translate(380.87 -123.3) rotate(75.94)" fill="#fff"></rect><path d="M269.39,188.62a2,2,0,0,1-1.94-1.52h0l-2-7.95a2,2,0,0,1,1.46-2.44l2.06-.51a2,2,0,0,1,2.43,1.45l2,8a2,2,0,0,1-1.46,2.43l-2.06.52A2,2,0,0,1,269.39,188.62Zm-.94-1.77a1,1,0,0,0,1.18.71l2.06-.52a1,1,0,0,0,.71-1.18l-2-8a1,1,0,0,0-.45-.59.94.94,0,0,0-.73-.11l-2.06.51a1,1,0,0,0-.71,1.18Z" fill="#231f20"></path><path d="M143.68,211.14c5.18-2.76,14.34-6,25-8.69a148.56,148.56,0,0,1,21-3.84l1.91,7.62a147.22,147.22,0,0,1-20.31,6.5c-10.66,2.67-20.27,4.12-26.13,4.13Z" fill="#fff"></path><path d="M145.12,217.37a.51.51,0,0,1-.5-.39l-1.44-5.72a.52.52,0,0,1,.26-.58c5.41-2.88,14.8-6.14,25.11-8.73a149.21,149.21,0,0,1,21-3.85.49.49,0,0,1,.55.39l1.91,7.62a.52.52,0,0,1-.3.6,149.81,149.81,0,0,1-20.39,6.52c-10.31,2.59-20.12,4.13-26.25,4.14Zm-.84-6,1.24,4.93c6.07-.08,15.59-1.6,25.6-4.11a149.77,149.77,0,0,0,19.83-6.3l-1.69-6.76A150,150,0,0,0,168.8,203C158.79,205.46,149.67,208.61,144.28,211.41Z" fill="#231f20"></path><path d="M131,220.4c-3.3.9-28.53,14.1-30.89,4.69s26.11-9.67,29.45-10.43Z" fill="#fff"></path><path d="M105.84,229a8.61,8.61,0,0,1-3.79-.73,4.66,4.66,0,0,1-1.71-6.84c3.58-5,17.64-6.19,25.2-6.83,1.87-.16,3.35-.28,3.93-.41a.49.49,0,0,1,.61.37l1.44,5.74a.52.52,0,0,1-.36.63c-.57.15-1.94.74-3.66,1.48C121.83,224.82,112.21,229,105.84,229Zm23.36-13.72c-.76.11-2,.21-3.57.35-6.87.58-21.15,1.78-24.45,6.4a3.43,3.43,0,0,0-.55,3,3.38,3.38,0,0,0,1.88,2.35c5.09,2.52,18.25-3.15,24.58-5.87,1.45-.63,2.59-1.12,3.31-1.38Z" fill="#231f20"></path><rect x="124.64" y="214.7" width="11.18" height="5.1" rx="1.49" transform="translate(309.32 38.13) rotate(75.94)" fill="#fff"></rect><path d="M130.19,223.49a2,2,0,0,1-1-.29,2,2,0,0,1-.92-1.23l-2-7.95a2,2,0,0,1,1.46-2.44l2.06-.51a2,2,0,0,1,2.43,1.45l2,8h0a2,2,0,0,1-1.45,2.43l-2.07.52A2,2,0,0,1,130.19,223.49Zm.08-11.45-.24,0-2.06.52a1,1,0,0,0-.71,1.18l2,7.95a1,1,0,0,0,.45.6,1,1,0,0,0,.73.11l2.07-.52a1,1,0,0,0,.7-1.18l-2-7.95A1,1,0,0,0,130.27,212Z" fill="#231f20"></path><path d="M250.27,227c-4.15-4.15-12-9.92-21.39-15.57a148.72,148.72,0,0,0-19-9.76l-4,6.73a148.11,148.11,0,0,0,17.55,12.12c9.42,5.65,18.2,9.82,23.81,11.53Z" fill="#fff"></path><path d="M247.24,232.52l-.15,0c-5.86-1.79-14.8-6.12-23.92-11.58a148.88,148.88,0,0,1-17.62-12.17.51.51,0,0,1-.11-.66l4-6.74a.5.5,0,0,1,.63-.21,148.84,148.84,0,0,1,19,9.8c9.11,5.47,17.15,11.31,21.49,15.64a.52.52,0,0,1,.08.63l-3,5.06A.53.53,0,0,1,247.24,232.52Zm-40.69-24.28A150.54,150.54,0,0,0,223.7,220c8.85,5.31,17.52,9.53,23.31,11.36l2.61-4.36c-4.34-4.24-12.15-9.9-21-15.2a150.24,150.24,0,0,0-18.48-9.57Z" fill="#231f20"></path><path d="M259.7,239.48c2.9,1.83,23.22,21.78,28.2,13.46s-22.18-16.83-25.15-18.53Z" fill="#fff"></path><path d="M284.17,255.47c-6.2,0-16.18-8.42-21.67-13.06-1.44-1.22-2.57-2.18-3.07-2.49a.52.52,0,0,1-.17-.7l3-5.08a.52.52,0,0,1,.7-.18c.51.29,1.89.84,3.64,1.54,7.05,2.8,20.16,8,22.13,13.85a4.65,4.65,0,0,1-3.62,6.05A6.28,6.28,0,0,1,284.17,255.47Zm-23.78-16.13c.62.46,1.57,1.26,2.78,2.28,5.26,4.44,16.22,13.67,21.81,12.76a3.64,3.64,0,0,0,2.82-4.7C286,244.3,272.66,239,266.26,236.46c-1.47-.59-2.62-1.05-3.32-1.37Z" fill="#231f20"></path><rect x="255.78" y="234.15" width="11.18" height="5.1" rx="1.49" transform="translate(598.77 134.19) rotate(120.94)" fill="#fff"></rect><path d="M260.17,242.77a2,2,0,0,1-1-.29l-1.83-1.09a2,2,0,0,1-.69-2.75l4.22-7a2,2,0,0,1,2.75-.68l1.82,1.09a2,2,0,0,1,.69,2.75l-4.21,7a2,2,0,0,1-1.24.92A2,2,0,0,1,260.17,242.77Zm2.4-11.11a1,1,0,0,0-.24,0,.94.94,0,0,0-.59.44l-4.22,7h0a1,1,0,0,0-.11.73.93.93,0,0,0,.44.6l1.83,1.1a1,1,0,0,0,1.33-.34l4.22-7a1,1,0,0,0-.34-1.34l-1.82-1.09A1,1,0,0,0,262.57,231.66Zm-5.49,7.24h0Z" fill="#231f20"></path><path d="M152.12,168.12c5.61,1.71,14.39,5.88,23.81,11.53a147.28,147.28,0,0,1,17.55,12.12l-4,6.73a148.11,148.11,0,0,1-19-9.76c-9.42-5.65-17.24-11.42-21.39-15.56Z" fill="#fff"></path><path d="M189.45,199a.45.45,0,0,1-.2,0,148.78,148.78,0,0,1-19-9.8c-9.12-5.46-17.15-11.31-21.49-15.64a.52.52,0,0,1-.08-.63l3-5.06a.51.51,0,0,1,.59-.22c5.86,1.78,14.81,6.11,23.93,11.58a148.36,148.36,0,0,1,17.61,12.16.51.51,0,0,1,.12.66l-4,6.74A.52.52,0,0,1,189.45,199Zm-39.71-25.93c4.35,4.25,12.16,9.9,21,15.21a150.77,150.77,0,0,0,18.48,9.56l3.58-6a151.24,151.24,0,0,0-17.14-11.79c-8.86-5.3-17.53-9.53-23.32-11.36Z" fill="#231f20"></path><path d="M136.62,165.71c-3-1.69-30.15-10.2-25.16-18.53s25.3,11.63,28.2,13.46Z" fill="#fff"></path><path d="M136.62,166.23a.48.48,0,0,1-.26-.07c-.51-.29-1.89-.84-3.64-1.54-7-2.8-20.16-8-22.13-13.85a4.65,4.65,0,0,1,3.62-6c6-1,16.86,8.09,22.65,13,1.44,1.22,2.58,2.18,3.07,2.49a.51.51,0,0,1,.17.7l-3,5.08A.52.52,0,0,1,136.62,166.23Zm-21.4-20.55a5.73,5.73,0,0,0-.84.06,3.42,3.42,0,0,0-2.48,1.71,3.38,3.38,0,0,0-.33,3c1.82,5.38,15.13,10.68,21.53,13.23,1.48.58,2.62,1,3.32,1.37l2.55-4.26c-.62-.46-1.56-1.26-2.77-2.28C131.18,154.27,121,145.68,115.22,145.68Z" fill="#231f20"></path><rect x="132.7" y="160.38" width="11.18" height="5.1" rx="1.49" transform="translate(349.13 128.07) rotate(120.94)" fill="#fff"></rect><path d="M137.09,169a2,2,0,0,1-1-.28l-1.82-1.09a2,2,0,0,1-.69-2.75l4.21-7a2,2,0,0,1,2.75-.69l1.83,1.1A2,2,0,0,1,143,161l-4.22,7h0A2,2,0,0,1,137.09,169Zm2.4-11.1a1,1,0,0,0-.84.47l-4.22,7a1,1,0,0,0,.34,1.33l1.82,1.09a1,1,0,0,0,1.34-.33l4.21-7a1,1,0,0,0-.33-1.34L140,158A1,1,0,0,0,139.49,157.89Zm-1.12,9.87h0Z" fill="#231f20"></path><path d="M182.74,131.61A70.31,70.31,0,1,0,268,182.73,70.31,70.31,0,0,0,182.74,131.61ZM213,252.41a54.22,54.22,0,1,1,39.41-65.77A54.23,54.23,0,0,1,213,252.41Z" fill="#fff"></path><path d="M199.84,270.65a70.87,70.87,0,1,1,17.2-2.13A71,71,0,0,1,199.84,270.65Zm0-140.64a69.81,69.81,0,1,0,67.7,52.84A69.76,69.76,0,0,0,199.83,130Zm0,124.54a54.73,54.73,0,1,1,13.3-1.64l-.12-.5.12.5A54.84,54.84,0,0,1,199.83,254.55Zm0-108.45a53.71,53.71,0,1,0,13,105.81h0a53.71,53.71,0,0,0-13-105.81Z" fill="#231f20"></path><path d="M226.77,276.63,214.44,194c-.86-5.77-5.42-10-10.78-10H196c-5.35,0-9.92,4.24-10.78,10L172.9,276.63Z" fill="#fff"></path><path d="M226.77,277.15H172.9a.53.53,0,0,1-.39-.18.54.54,0,0,1-.12-.42l12.33-82.65c.9-6.06,5.65-10.45,11.29-10.45h7.65c5.64,0,10.39,4.39,11.29,10.45l12.34,82.65a.58.58,0,0,1-.12.42A.55.55,0,0,1,226.77,277.15Zm-53.27-1h52.68l-12.25-82.06c-.82-5.55-5.14-9.57-10.27-9.57H196c-5.12,0-9.44,4-10.27,9.57Z" fill="#231f20"></path><circle cx="199.84" cy="199.82" r="8.66" fill="#d1d3d4"></circle><path d="M140.56,155.88c-.24-.28-1.16-1.52-2.27-1.48-.88,0-2.63,2.51-2.63,2.51a4,4,0,0,0,.28-4.52c-1-1.31-3.33-1.38-4,.07a2.54,2.54,0,0,0-.71-3.66c-1.24-.68-2.77-.7-3.47.7,1.13-1,1.25-2.19.33-3.22a3.23,3.23,0,0,0-2.93-.62,19.6,19.6,0,0,0-10.76,5.47c-2.38,2.36-6.42,7.2-5.22,10.69a13.09,13.09,0,0,0,2.26,3.68,31,31,0,0,0,5.57,6A15.82,15.82,0,0,0,130,174.23c3.3-.8,3.83-2.14,5-5.16C136.26,165.84,141.94,157.52,140.56,155.88Z" fill="#fff"></path><path d="M126.42,175.17a16.22,16.22,0,0,1-9.75-3.24,31.54,31.54,0,0,1-5.67-6.11,13.77,13.77,0,0,1-2.33-3.83c-1.42-4.11,3.73-9.63,5.34-11.22a20,20,0,0,1,11-5.62c1.59-.24,2.7,0,3.38.79a2.61,2.61,0,0,1,.74,1.92,3.68,3.68,0,0,1,2.27.49,2.89,2.89,0,0,1,1.41,2,3.36,3.36,0,0,1,.06.63,3,3,0,0,1,.61-.12,3.21,3.21,0,0,1,2.83,1.19,3.74,3.74,0,0,1,.68,2.46,2.18,2.18,0,0,1,1.23-.65h.08a3.62,3.62,0,0,1,2.54,1.59l.07.07c1.07,1.28-.59,4.54-3.25,9.38a44.63,44.63,0,0,0-2.2,4.32c-1.14,3-1.77,4.61-5.35,5.48A15.74,15.74,0,0,1,126.42,175.17Zm-.3-29.07a6.13,6.13,0,0,0-.91.07,19,19,0,0,0-10.48,5.33c-3.09,3.06-6.06,7.34-5.09,10.16a13,13,0,0,0,2.18,3.53,30.76,30.76,0,0,0,5.47,5.92,15.24,15.24,0,0,0,12.63,2.62c3.05-.74,3.48-1.86,4.62-4.84a45.22,45.22,0,0,1,2.27-4.46c1.52-2.76,4.05-7.39,3.36-8.21l-.08-.09c-.25-.31-1-1.22-1.78-1.21a7.13,7.13,0,0,0-2.22,2.28h0a.51.51,0,0,1-.84-.59v0a3.48,3.48,0,0,0,.27-3.91,2.15,2.15,0,0,0-1.89-.77,1.56,1.56,0,0,0-1,.47,3.51,3.51,0,0,1-.27.4.52.52,0,0,1-.87-.55,2.62,2.62,0,0,1,.27-.43,2,2,0,0,0,.14-1.23,1.89,1.89,0,0,0-.9-1.32,2.47,2.47,0,0,0-1.87-.32,1,1,0,0,0-.33.15,4.33,4.33,0,0,1-.67.79.51.51,0,0,1-.66,0,.52.52,0,0,1-.15-.65,2.62,2.62,0,0,1,.71-.89,1.44,1.44,0,0,0-.31-1.75A2,2,0,0,0,126.12,146.1Z" fill="#231f20"></path><path d="M114.68,162.79a.47.47,0,0,1-.25-.07.51.51,0,0,1-.2-.7c3-5.52,12.78-12.64,13.2-12.94a.51.51,0,0,1,.72.11.52.52,0,0,1-.12.72c-.1.08-10,7.29-12.9,12.61A.51.51,0,0,1,114.68,162.79Z" fill="#231f20"></path><path d="M120.69,166.86a.48.48,0,0,1-.26-.07.51.51,0,0,1-.19-.7c3.47-5.92,11-13.66,11.3-14a.53.53,0,0,1,.73,0,.52.52,0,0,1,0,.73c-.08.08-7.74,8-11.15,13.79A.5.5,0,0,1,120.69,166.86Z" fill="#231f20"></path><path d="M126.3,170a.64.64,0,0,1-.23,0,.53.53,0,0,1-.24-.69c3.08-6.38,9.21-12.44,9.47-12.7a.53.53,0,0,1,.73,0,.51.51,0,0,1,0,.73c-.06.06-6.26,6.19-9.26,12.41A.52.52,0,0,1,126.3,170Z" fill="#231f20"></path><path d="M284.39,197.17a10.71,10.71,0,0,1-7.33-.84,7.06,7.06,0,0,1-3.8-6.07,4.75,4.75,0,0,1,.45-2,5.42,5.42,0,0,1,2.16-2.24c3.85-2.29,14.29-3.44,17.12.81C296.81,192.55,288.83,196.23,284.39,197.17Z" fill="#fff"></path><path d="M281.75,198a10.33,10.33,0,0,1-4.94-1.18,7.54,7.54,0,0,1-4.07-6.54,5.43,5.43,0,0,1,.5-2.21,5.93,5.93,0,0,1,2.37-2.46c4.15-2.47,14.79-3.56,17.81,1a5.12,5.12,0,0,1,.74,5c-1.44,3.53-6.75,5.51-9.66,6.12h0A13.08,13.08,0,0,1,281.75,198Zm2.64-.8h0Zm.71-12.67a19.73,19.73,0,0,0-9,2,5,5,0,0,0-2,2,4.28,4.28,0,0,0-.39,1.79,6.57,6.57,0,0,0,3.53,5.61,10.17,10.17,0,0,0,7,.78h0c3.51-.74,7.8-2.78,8.92-5.5a4.2,4.2,0,0,0-.64-4C291.3,185.22,288.29,184.5,285.1,184.5Z" fill="#231f20"></path><path d="M289,164.25a12.88,12.88,0,0,0-4.6-.57c-1.63.14-4,.44-5.24,1.55a2.86,2.86,0,0,0-1,2.43,3,3,0,0,0,1.6,2.12,8.1,8.1,0,0,0,2.62.77c2.19.36,14.32,2.59,12.07-3.08C293.58,165.43,290.85,164.78,289,164.25Z" fill="#fff"></path><path d="M289.37,171.8a42.08,42.08,0,0,1-6.88-.7l-.26,0a8.38,8.38,0,0,1-2.78-.83,3.52,3.52,0,0,1-1.86-2.5,3.35,3.35,0,0,1,1.19-2.88c1.33-1.18,3.65-1.52,5.53-1.69a13.48,13.48,0,0,1,4.79.59l.31.09c1.94.54,4.6,1.27,5.46,3.44a2.82,2.82,0,0,1-.21,3C293.84,171.29,292.09,171.8,289.37,171.8Zm-4.23-7.64c-.25,0-.5,0-.74,0-1.58.14-3.82.44-4.94,1.43a2.33,2.33,0,0,0-.85,2,2.5,2.5,0,0,0,1.34,1.74,7.79,7.79,0,0,0,2.45.71l.26.05c7.88,1.32,10.44.48,11.2-.47a1.88,1.88,0,0,0,.06-2c-.68-1.69-3.05-2.35-4.79-2.83l-.31-.09A13.84,13.84,0,0,0,285.14,164.16Z" fill="#231f20"></path><path d="M272.08,169.55c.33-.17,1.65-1,2.66-.5.8.37,1.47,3.33,1.47,3.33a4,4,0,0,1,1.47-4.29c1.39-.84,3.61,0,3.7,1.61a2.54,2.54,0,0,1,2.05-3.11c1.41-.16,2.83.42,2.95,2-.65-1.39-.32-2.49.92-3.1a3.27,3.27,0,0,1,2.95.55,19.56,19.56,0,0,1,7.84,9.18c1.3,3.09,3.18,9.1.73,11.87a13.54,13.54,0,0,1-3.49,2.54,31.25,31.25,0,0,1-7.46,3.42,15.79,15.79,0,0,1-13.1-2.49c-2.74-2-2.72-3.45-2.63-6.68C272.23,180.39,270.18,170.53,272.08,169.55Z" fill="#fff"></path><path d="M284,194a16.22,16.22,0,0,1-9.54-3.09c-3-2.17-2.93-3.92-2.84-7.1a44.16,44.16,0,0,0-.38-4.84c-.61-5.49-.89-9.14.59-9.91h0l.09-.05a3.59,3.59,0,0,1,3-.46,2.28,2.28,0,0,1,.89,1.07,3.67,3.67,0,0,1,1.57-2,3.17,3.17,0,0,1,3.06,0,2.75,2.75,0,0,1,.52.34,4.25,4.25,0,0,1,.29-.56,2.92,2.92,0,0,1,2.09-1.33,3.63,3.63,0,0,1,2.28.42,2.59,2.59,0,0,1,1.42-1.5c.92-.45,2-.26,3.43.57a20.07,20.07,0,0,1,8.06,9.42c.88,2.09,3.52,9.15.63,12.41a13.8,13.8,0,0,1-3.62,2.65,31.79,31.79,0,0,1-7.58,3.47A15.82,15.82,0,0,1,284,194Zm-11.7-24c-1,.5-.38,5.74,0,8.88a43.75,43.75,0,0,1,.39,5c-.09,3.2-.12,4.39,2.42,6.25a15.19,15.19,0,0,0,12.67,2.41,31.12,31.12,0,0,0,7.32-3.37,13,13,0,0,0,3.36-2.43c2-2.23.87-7.32-.81-11.33a19,19,0,0,0-7.64-8.93c-1.06-.64-1.86-.81-2.45-.53a1.44,1.44,0,0,0-1,1.49,2.7,2.7,0,0,1,.32,1.1.51.51,0,0,1-1,.26,4.07,4.07,0,0,1-.32-1,1.52,1.52,0,0,0-.25-.26,2.48,2.48,0,0,0-1.85-.43,1.91,1.91,0,0,0-1.33.88,2,2,0,0,0-.35,1.19,2.1,2.1,0,0,1,.09.5.53.53,0,0,1-.43.54.51.51,0,0,1-.58-.36,2.46,2.46,0,0,1-.1-.47,1.57,1.57,0,0,0-.79-.84,2.16,2.16,0,0,0-2.05,0,3.51,3.51,0,0,0-1.24,3.72h0a.51.51,0,1,1-1,.23h0a7.2,7.2,0,0,0-1.18-3c-.7-.33-1.77.25-2.11.43Z" fill="#231f20"></path><path d="M293.54,185.88a.52.52,0,0,1-.51-.47c-.64-6-7-16.47-7.09-16.58a.51.51,0,0,1,.17-.71.52.52,0,0,1,.71.17c.26.44,6.58,10.77,7.23,17a.51.51,0,0,1-.46.56Z" fill="#231f20"></path><path d="M286.43,187.34a.52.52,0,0,1-.51-.44c-.92-6.68-5-16.9-5-17a.52.52,0,0,1,1-.38c.17.42,4.15,10.45,5.08,17.24a.52.52,0,0,1-.44.59Z" fill="#231f20"></path><path d="M280.06,188.07a.52.52,0,0,1-.52-.49c-.39-6.89-3.77-14.92-3.81-15a.53.53,0,0,1,.28-.68.51.51,0,0,1,.67.27c.15.34,3.49,8.28,3.89,15.35a.52.52,0,0,1-.49.55Z" fill="#231f20"></path><path d="M217.69,110.54a.51.51,0,0,1-.47-.3.52.52,0,0,1,.26-.69c.06,0,6.45-3,9.77-12.75a.52.52,0,0,1,1,.33c-3.48,10.2-10,13.24-10.33,13.37A.52.52,0,0,1,217.69,110.54Z" fill="#231f20"></path><circle cx="205.69" cy="155.29" r="2.06" fill="#231f20"></circle><circle cx="204.44" cy="172.35" r="2.06" fill="#231f20"></circle></g></svg>