<svg xmlns:xlink="http://www.w3.org/1999/xlink" xmlns="http://www.w3.org/2000/svg" width="22" height="22" viewBox="0 0 22 22"><path d="M16.317 4.477a1.219 1.219 0 11-1.22 1.218 1.22 1.22 0 011.22-1.218zM11 8.026A2.974 2.974 0 1013.974 11 2.978 2.978 0 0011 8.026zm0-2.177A5.151 5.151 0 115.85 11 5.157 5.157 0 0111 5.85zm4.955-2.672h-9.91a2.872 2.872 0 00-2.868 2.868v9.91a2.872 2.872 0 002.868 2.87h9.91a2.872 2.872 0 002.87-2.87v-9.91a2.872 2.872 0 00-2.87-2.868zm0-2.177A5.05 5.05 0 0121 6.045v9.91A5.05 5.05 0 0115.955 21h-9.91A5.05 5.05 0 011 15.955v-9.91A5.051 5.051 0 016.045 1z" fill="#AAAAAA"></path></svg>